<?xml version="1.0" encoding="UTF-8"?>
<!DOCTYPE svg PUBLIC "-//W3C//DTD SVG 1.1//EN" "http://www.w3.org/Graphics/SVG/1.1/DTD/svg11.dtd">
<!-- Creator: CorelDRAW 2020 (64-Bit) -->
<svg xmlns="http://www.w3.org/2000/svg" xml:space="preserve" width="16.134mm" height="17.5441mm" version="1.1" style="shape-rendering:geometricPrecision; text-rendering:geometricPrecision; image-rendering:optimizeQuality; fill-rule:evenodd; clip-rule:evenodd"
viewBox="0 0 138.6 150.71"
 xmlns:xlink="http://www.w3.org/1999/xlink"
 xmlns:xodm="http://www.corel.com/coreldraw/odm/2003">
 <defs>
  <style type="text/css">
   <![CDATA[
    .str0 {stroke:black;stroke-width:0.65;stroke-linejoin:bevel;stroke-miterlimit:22.9256}
    .fil4 {fill:none}
    .fil2 {fill:#242424}
    .fil5 {fill:#424242}
    .fil0 {fill:#CCCC00}
    .fil3 {fill:#F2F2F2}
    .fil1 {fill:yellow}
   ]]>
  </style>
    <clipPath id="id0">
     <path d="M97.4 66.32l2.84 -11.03 -0.52 -3.27 -2.54 -0.87 -1.74 0.78 -0.48 2.4 -2.22 0.24 0.6 -1.98 -0.3 -3 -1.44 -0.84 -1.92 0.18 -0.42 1.56 -2.1 1.5 -0.36 -1.98 -0.06 -2.16 -1.68 -1.26 -1.26 -0.72 -0.9 2.22 -1.86 2.46 -1.02 -0.3 0.54 -4.44 -0.72 -0.66 -1.08 -0.42 -2.28 0.06 -1.2 1.62 -1.14 2.46 -1.38 0.78 -0.54 -1.14 0.06 -2.46 -1.32 -1.56 -2.28 0.06 -1.68 0.36 0.24 1.62 -1.98 2.88 -1.14 -0.24 -0.72 -3.06 -1.98 -0.72 -2.1 1.38 -0.12 2.34 -0.9 1.14 -0.72 -1.62 -1.62 -1.98 -2.4 -0.54 -0.72 1.2 -0.06 2.94 -1.5 0.96 -1.56 0.42 -1.62 -2.64 -1.62 -0.48 -2.22 1.02 -0.3 1.68 0.12 2.22 -0.48 0.42 -1.62 0.06 -1.56 -1.2 -1.5 0.36 -0.48 3.12 2.06 2.03 2.99 35.06 4.2 -2.61 4.79 -1.94 5.09 0 4.06 1.76 3.51 3.21 1.6 4.69 0.21 2.94 -0.84 2.91 -2.48 4.48 -2.91 3.39 -3.51 1.57 -5.57 -0.18 -4 -1.88 -3.27 -1.94 -1.82 0.86 2.19 0.38 3.52 1.86 2.21 3.27 0 1.86 -2.57 0 -2.24 -1.03 0.23 0.75 -0.73 1.21 1.56 1.31 0 1.75 -2.4 1.47 0.82 0.25 2.77 0.76 0.19 11.66 7.65 5.07 0.29 6.5 4.59 1.15 5.39 0.29 7.8 -0.1 8.85 -1.25 2.41 -0.96 0.29 -2.02 -0.38 -2.4 1.25 -2.6 1.64 -1.25 3.08 -3.46 1.06 -2.31 -0.38 -3.75 1.93 -7.26 -0.68 -1.75 0.52 -2.35 1.57 -0.85 -0.42 -1.09 -1.54 -0.18 -1.55 -0.46 -0.92 -1.76 1.08 -1.64 2.72 -1.19 -1.54 -1.06 -5.48 3.75 -5.34 0 -5.1 -1.66 -2.64 -4.42 -2.27 -4.09 0 -5.67 2.58 -5.27 3.68 -3.31 5.4 -1.35 6.2 2.27 3.38 3.31 2.85 3.23 -0.67 -4.1 -0.19 -4.61 0.67 -9.06z"/>
    </clipPath>
    <clipPath id="id1">
     <path d="M48.27 112.77l-3.52 -1.86 -2.19 -0.38 -3.73 2.87 -0.1 5.16 2.39 3.82 3.2 0.99 2.4 -1.47 0 -1.75 -1.56 -1.31 -2.01 -1.21 2.52 -0.75 2.24 1.03 2.57 0 0 -1.86z"/>
    </clipPath>
    <clipPath id="id2">
     <path d="M99.04 110.15l-1.73 -0.38 -2.98 0.67 -2.72 1.19 -1.08 1.64 0.92 1.76 1.55 0.46 1.54 0.18 2.48 0.14 -2.06 0.94 -1.57 0.85 -0.52 2.35 0.68 1.75 4.91 -0.29 1.15 -3.46 1.54 -2.31 -0.38 -3.08z"/>
    </clipPath>
    <clipPath id="id3">
     <path d="M40.54 58.22l-2.06 -2.03 0.48 -3.12 1.5 -0.36 1.56 1.2 1.62 -0.06 0.48 -0.42 -0.12 -2.22 0.3 -1.68 2.22 -1.02 1.62 0.48 1.62 2.64 1.56 -0.42 1.5 -0.96 0.06 -2.94 0.72 -1.2 2.4 0.54 1.62 1.98 0.72 1.62 0.9 -1.14 0.12 -2.34 2.1 -1.38 1.98 0.72 0.72 3.06 1.14 0.24 1.98 -2.88 -0.24 -1.62 1.68 -0.36 2.28 -0.06 1.32 1.56 -0.06 2.46 0.54 1.14 1.38 -0.78 1.14 -2.46 1.2 -1.62 2.28 -0.06 1.08 0.42 0.72 0.66 -0.54 4.44 1.02 0.3 1.86 -2.46 0.9 -2.22 1.26 0.72 1.68 1.26 0.06 2.16 0.36 1.98 2.1 -1.5 0.42 -1.56 1.92 -0.18 1.44 0.84 0.3 3 -0.6 1.98 2.22 -0.24 0.48 -2.4 1.74 -0.78 2.54 0.87 0.52 3.27 -2.84 11.03 -1.54 12.09 -0.67 9.06 0.19 4.61 0.78 4.82 0.24 3.84 -0.36 3.9 -1.98 3.12 -1.27 1.62 1.54 1.06 2.98 -0.67 1.73 0.38 1.73 2.4 0.38 3.08 -1.54 2.31 -0.58 1.73 1.1 0.44 5.69 0 0.98 -0.91 1.63 -2.16 2.29 -1.37 3.07 0.2 3.4 -0.52 1.5 -1.5 0.98 -1.76 -0.26 -2.22 0.78 -2.35 3.14 -0.13 1.05 -1.96 -0.52 -2.09 -0.59 -3.2 1.96 -2.02 4.12 -3.13 3.29 -1.71 0.63 -2.19 -1.46 -4.59 -1.98 -5.22 3.34 -3.34 4.6 -5.4 0.83 -2.22 -3.66 -1.98 -0.42 -4.8 0.42 -4.17 -1.98 -0.94 -1.27 -3.28 0.5 -3.23 2.84 -1.68 -1.36 -2.3 -1.12 -2.52 2.16 -3.11 -3.76 -2.61 -3.55 -2.92 -2.43 -4.03 0.76 -3.79 -3.13 -0.63 -3.13 -0.94 -2.6 -4.06 0.72 -3.87 -2.82 -0.52 -2.99 -1.98 -0.56 -3.76 -6.27 0.94 -3.12 -0.89 -0.78 -1.89 -2.47 -2.41 -2.8 -0.32 -2.47 1.89 -6.57 0.71 -3.84 -2.93 -2.47 -0.85 -3.71 1.63 -5.66 -3.45 -4.43 -5.59 -2.08 2.02 -3.38 3.32 -2.08 1.04 -2.72 0.13 -2.29 -0.39 -0.46 2.67 -2.54 1.63 -2.54 -0.85 -3.38 3.35 -4.68 4.57 -3.43 -0.31 -5.1 -0.73 -2.91 4.57 -0.73 2.47 -0.21 1.17 -3.54 -0.62 -3.64 2.29 0 3.43 1.04 3.74 -1.14 2.7 -1.66 1.35 -3.85 0 -3.33 2.7 -1.75 3.73 -2.38 2.64 -2.22 -2 -2.81 3.12 -2.81 4.68 1.46 4.78 4.27 4.43 -0.62 8.73 -3.74 5.72 0.83 3.22 5.72 7.28 -1.04 2.08 -1.04 2.91 2.6 2.29 3.54 1.25 0.31 5.92 6.71 6.15 2.15 -0.08 2.89 2.68 0.97 1.29 -0.33 3.58 4.57 0.41 4.67 3.99 6.21 5.39 7.81 -0.05 -2.77 -0.76 -4.02 -1.24 -2.39 -3.82 0.1 -5.16 3.73 -2.87 1.82 -0.86 -0.86 -1.39 -1.63 -4.21 0 -6.02 1.63 -4.78z"/>
    </clipPath>
    <clipPath id="id4">
     <path d="M57.6 88.73l-5.09 0 -4.79 1.94 -4.2 2.61 -1.63 4.78 0 6.02 1.63 4.21 0.86 1.39 3.27 1.94 4 1.88 5.57 0.18 3.51 -1.57 2.91 -3.39 2.48 -4.48 0.84 -2.91 -0.21 -2.94 -1.6 -4.69 -3.51 -3.21z"/>
    </clipPath>
    <clipPath id="id5">
     <path d="M71.96 97.31l0 5.67 2.27 4.09 2.64 4.42 5.1 1.66 5.34 0 5.48 -3.75 1.27 -1.62 1.98 -3.12 0.36 -3.9 -0.24 -3.84 -0.12 -0.71 -2.85 -3.23 -3.38 -3.31 -6.2 -2.27 -5.4 1.35 -3.68 3.31z"/>
    </clipPath>
    <clipPath id="id6">
     <path d="M57.19 103.19c0,-1.08 -0.88,-1.96 -1.96,-1.96 -1.08,0 -1.96,0.88 -1.96,1.96 0,1.08 0.88,1.96 1.96,1.96 1.08,0 1.96,-0.88 1.96,-1.96z"/>
    </clipPath>
    <clipPath id="id7">
     <path d="M86.43 101.56c0,-1.1 -0.89,-1.99 -1.99,-1.99 -1.1,0 -1.99,0.89 -1.99,1.99 0,1.1 0.89,1.99 1.99,1.99 1.1,0 1.99,-0.89 1.99,-1.99z"/>
    </clipPath>
    <clipPath id="id8">
     <path d="M57.19 103.19l-3.91 0z"/>
    </clipPath>
    <clipPath id="id9">
     <path d="M86.43 101.56l-3.98 0z"/>
    </clipPath>
 </defs>
 <g id="Слой_x0020_1">
  <metadata id="CorelCorpID_0Corel-Layer"/>
  <g>
   <polygon class="fil0" points="97.4,66.32 100.24,55.29 99.72,52.02 97.19,51.16 95.45,51.93 94.97,54.33 92.75,54.57 93.35,52.59 93.05,49.6 91.61,48.76 89.69,48.94 89.27,50.5 87.17,51.99 86.81,50.02 86.75,47.86 85.07,46.6 83.81,45.88 82.91,48.1 81.05,50.56 80.03,50.26 80.57,45.82 79.85,45.16 78.77,44.74 76.49,44.8 75.29,46.42 74.16,48.88 72.78,49.66 72.24,48.52 72.3,46.06 70.98,44.5 68.7,44.56 67.02,44.92 67.26,46.54 65.28,49.42 64.14,49.18 63.42,46.12 61.44,45.4 59.34,46.78 59.22,49.12 58.32,50.26 57.6,48.64 55.98,46.66 53.58,46.12 52.86,47.32 52.8,50.26 51.3,51.21 49.75,51.63 48.13,49 46.51,48.52 44.29,49.54 43.99,51.21 44.11,53.43 43.63,53.85 42.01,53.91 40.45,52.71 38.95,53.07 38.47,56.19 40.54,58.22 43.53,93.28 47.72,90.66 52.51,88.73 57.6,88.73 61.66,90.48 65.17,93.69 66.77,98.38 66.98,101.32 66.14,104.23 63.65,108.71 60.75,112.1 57.23,113.67 51.66,113.49 47.66,111.61 44.39,109.67 42.57,110.53 44.75,110.91 48.27,112.77 50.48,116.04 50.48,117.9 47.91,117.9 45.67,116.86 45.9,117.62 45.17,118.83 46.73,120.14 46.73,121.89 44.33,123.37 45.15,123.62 47.93,124.39 48.12,136.05 55.77,141.12 56.06,147.62 60.64,148.76 66.03,149.05 73.83,148.95 82.68,147.7 85.09,146.74 85.38,144.72 84.99,142.32 86.24,139.72 87.88,138.47 90.96,135.01 92.02,132.7 91.63,128.95 93.56,121.69 92.88,119.95 93.4,117.6 94.97,116.75 94.55,115.66 93,115.48 91.45,115.02 90.54,113.27 91.61,111.63 94.33,110.44 92.79,109.38 87.3,113.14 81.96,113.14 76.87,111.48 74.23,107.06 71.96,102.97 71.96,97.31 74.54,92.04 78.22,88.72 83.62,87.37 89.82,89.64 93.2,92.96 96.05,96.18 95.39,92.08 95.19,87.47 "/>
   <g style="clip-path:url(#id0)">
   </g>
  </g>
  <g>
   <polygon class="fil1" points="48.27,112.77 44.75,110.91 42.57,110.53 38.84,113.4 38.74,118.56 41.13,122.38 44.33,123.37 46.73,121.89 46.73,120.14 45.17,118.83 43.16,117.62 45.67,116.86 47.91,117.9 50.48,117.9 "/>
   <g style="clip-path:url(#id1)">
   </g>
  </g>
  <g>
   <polygon class="fil1" points="99.04,110.15 97.31,109.77 94.33,110.44 91.61,111.63 90.54,113.27 91.45,115.02 93,115.48 94.55,115.66 97.03,115.8 94.97,116.75 93.4,117.6 92.88,119.95 93.56,121.69 98.47,121.41 99.62,117.94 101.16,115.64 "/>
   <g style="clip-path:url(#id2)">
   </g>
  </g>
  <g>
   <polygon class="fil2" points="40.54,58.22 38.47,56.19 38.95,53.07 40.45,52.71 42.01,53.91 43.63,53.85 44.11,53.43 43.99,51.21 44.29,49.54 46.51,48.52 48.13,49 49.75,51.63 51.3,51.21 52.8,50.26 52.86,47.32 53.58,46.12 55.98,46.66 57.6,48.64 58.32,50.26 59.22,49.12 59.34,46.78 61.44,45.4 63.42,46.12 64.14,49.18 65.28,49.42 67.26,46.54 67.02,44.92 68.7,44.56 70.98,44.5 72.3,46.06 72.24,48.52 72.78,49.66 74.16,48.88 75.29,46.42 76.49,44.8 78.77,44.74 79.85,45.16 80.57,45.82 80.03,50.26 81.05,50.56 82.91,48.1 83.81,45.88 85.07,46.6 86.75,47.86 86.81,50.02 87.17,51.99 89.27,50.5 89.69,48.94 91.61,48.76 93.05,49.6 93.35,52.59 92.75,54.57 94.97,54.33 95.45,51.93 97.19,51.16 99.72,52.02 100.24,55.29 97.4,66.32 95.87,78.41 95.19,87.47 95.39,92.08 96.17,96.9 96.41,100.74 96.05,104.64 94.06,107.77 92.79,109.38 94.33,110.44 97.31,109.77 99.04,110.15 100.78,112.56 101.16,115.64 99.62,117.94 99.04,119.67 100.14,120.11 105.83,120.11 106.81,119.2 108.44,117.04 110.73,115.67 113.8,115.87 117.2,115.34 118.7,113.84 119.68,112.08 119.42,109.86 120.2,107.51 123.34,107.38 124.39,105.42 123.87,103.33 123.28,100.13 125.24,98.1 129.35,94.97 132.65,93.26 133.27,91.06 131.81,86.47 129.83,81.25 133.17,77.91 137.77,72.51 138.6,70.3 134.94,68.31 134.53,63.51 134.94,59.34 132.96,58.4 131.69,55.11 132.19,51.89 135.03,50.21 133.68,47.91 132.56,45.39 134.72,42.28 130.96,39.67 127.41,36.75 124.98,32.71 125.74,28.92 122.61,28.29 119.47,27.35 116.88,23.29 117.59,19.42 114.77,18.9 111.78,16.91 111.22,13.16 104.96,14.1 101.83,13.2 101.05,11.32 98.58,8.91 95.78,8.59 93.31,10.47 86.73,11.19 82.89,8.26 80.42,7.42 76.71,9.04 71.05,5.59 66.62,0 64.54,2.02 61.15,5.33 59.07,6.37 56.34,6.5 54.06,6.11 53.6,8.78 51.06,10.41 48.52,9.56 45.14,12.91 40.46,17.49 37.03,17.17 31.93,16.45 29.02,21.02 28.29,23.49 28.08,24.66 24.55,24.04 20.91,26.32 20.91,29.75 21.95,33.49 20.8,36.2 19.14,37.55 15.29,37.55 11.96,40.25 10.22,43.98 7.84,46.62 5.62,44.62 2.81,47.73 -0,52.41 1.46,57.19 5.72,61.62 5.1,70.35 1.35,76.07 2.19,79.29 7.91,86.57 6.87,88.65 5.83,91.56 8.43,93.84 11.96,95.09 12.27,101.02 18.99,107.17 21.14,107.09 24.03,109.77 25,111.06 24.67,114.64 29.24,115.05 33.91,119.05 40.11,124.44 47.93,124.39 45.15,123.62 41.13,122.38 38.74,118.56 38.84,113.4 42.57,110.53 44.39,109.67 43.53,108.28 41.9,104.08 41.9,98.06 "/>
   <g style="clip-path:url(#id3)">
   </g>
  </g>
  <g>
   <polygon class="fil3" points="57.6,88.73 52.51,88.73 47.72,90.66 43.53,93.28 41.9,98.06 41.9,104.08 43.53,108.28 44.39,109.67 47.66,111.61 51.66,113.49 57.23,113.67 60.75,112.1 63.65,108.71 66.14,104.23 66.98,101.32 66.77,98.38 65.17,93.69 "/>
   <g style="clip-path:url(#id4)">
   </g>
  </g>
  <g>
   <polygon class="fil3" points="71.96,97.31 71.96,102.97 74.23,107.06 76.87,111.48 81.96,113.14 87.3,113.14 92.79,109.38 94.06,107.77 96.05,104.64 96.41,100.74 96.17,96.9 96.05,96.18 93.2,92.96 89.82,89.64 83.62,87.37 78.22,88.72 "/>
   <g style="clip-path:url(#id5)">
   </g>
  </g>
  <polygon class="fil4 str0" points="56.06,147.62 55.77,141.12 48.12,136.05 47.93,124.39 45.15,123.62 41.13,122.38 38.74,118.56 38.84,113.4 42.57,110.53 44.39,109.67 43.53,108.28 41.9,104.08 41.9,98.06 43.53,93.28 40.54,58.22 38.47,56.19 38.95,53.07 40.45,52.71 42.01,53.91 43.63,53.85 44.11,53.43 43.99,51.21 44.29,49.54 46.51,48.52 48.13,49 49.75,51.63 51.3,51.21 52.8,50.26 52.86,47.32 53.58,46.12 55.98,46.66 57.6,48.64 58.32,50.26 59.22,49.12 59.34,46.78 61.44,45.4 63.42,46.12 64.14,49.18 65.28,49.42 67.26,46.54 67.02,44.92 68.7,44.56 70.98,44.5 72.3,46.06 72.24,48.52 72.78,49.66 74.16,48.88 75.29,46.42 76.49,44.8 78.77,44.74 79.85,45.16 80.57,45.82 80.03,50.26 81.05,50.56 82.91,48.1 83.81,45.88 85.07,46.6 86.75,47.86 86.81,50.02 87.17,51.99 89.27,50.5 89.69,48.94 91.61,48.76 93.05,49.6 93.35,52.59 92.75,54.57 94.97,54.33 95.45,51.93 97.19,51.16 99.72,52.02 100.24,55.29 97.4,66.32 95.87,78.41 95.19,87.47 95.39,92.08 96.17,96.9 96.41,100.74 96.05,104.64 94.06,107.77 92.79,109.38 94.33,110.44 97.31,109.77 99.04,110.15 100.78,112.56 101.16,115.64 99.62,117.94 98.47,121.41 93.56,121.69 91.63,128.95 92.02,132.7 90.96,135.01 87.88,138.47 86.24,139.72 84.99,142.32 85.38,144.72 85.09,146.74 82.68,147.7 73.83,148.95 66.03,149.05 60.64,148.76 "/>
 </g>
 <g id="contour">
  <metadata id="CorelCorpID_1Corel-Layer"/>
  <polyline class="fil4 str0" points="96.05,96.18 93.2,92.96 89.82,89.64 83.62,87.37 78.22,88.72 74.54,92.04 71.96,97.31 71.96,102.97 74.23,107.06 76.87,111.48 81.96,113.14 87.3,113.14 92.79,109.38 "/>
  <polygon class="fil4 str0" points="65.26,116.61 66.65,117.58 68.63,118.04 71.65,118.04 73.7,116.3 75.29,112.08 74.47,108.64 72.54,105.54 70.48,104.81 68.08,104.77 65.18,107.09 63.9,110.03 63.86,112.74 64.68,115.8 "/>
  <g>
   <path class="fil5" d="M57.19 103.19c0,-1.08 -0.88,-1.96 -1.96,-1.96 -1.08,0 -1.96,0.88 -1.96,1.96 0,1.08 0.88,1.96 1.96,1.96 1.08,0 1.96,-0.88 1.96,-1.96z"/>
   <g style="clip-path:url(#id6)">
   </g>
   <path id="1" class="fil4 str0" d="M57.19 103.19c0,-1.08 -0.88,-1.96 -1.96,-1.96 -1.08,0 -1.96,0.88 -1.96,1.96 0,1.08 0.88,1.96 1.96,1.96 1.08,0 1.96,-0.88 1.96,-1.96z"/>
  </g>
  <g>
   <path class="fil5" d="M86.43 101.56c0,-1.1 -0.89,-1.99 -1.99,-1.99 -1.1,0 -1.99,0.89 -1.99,1.99 0,1.1 0.89,1.99 1.99,1.99 1.1,0 1.99,-0.89 1.99,-1.99z"/>
   <g style="clip-path:url(#id7)">
   </g>
   <path id="1" class="fil4 str0" d="M86.43 101.56c0,-1.1 -0.89,-1.99 -1.99,-1.99 -1.1,0 -1.99,0.89 -1.99,1.99 0,1.1 0.89,1.99 1.99,1.99 1.1,0 1.99,-0.89 1.99,-1.99z"/>
  </g>
 </g>
 <g id="solid">
  <metadata id="CorelCorpID_2Corel-Layer"/>
  <g>
   <line class="fil3" x1="57.19" y1="103.19" x2="53.27" y2= "103.19" />
   <g style="clip-path:url(#id8)">
   </g>
  </g>
  <g>
   <line class="fil3" x1="86.43" y1="101.56" x2="82.45" y2= "101.56" />
   <g style="clip-path:url(#id9)">
   </g>
  </g>
  <line class="fil4 str0" x1="52.52" y1="150.19" x2="56.06" y2= "147.62" />
  <line class="fil4 str0" x1="89.4" y1="150.46" x2="85.09" y2= "146.74" />
  <path class="fil4 str0" d="M84.53 133.6c-9.29,-0.93 -18.66,-0.47 -27.81,1.38"/>
  <polyline class="fil4 str0" points="43.53,93.28 47.72,90.66 52.51,88.73 57.6,88.73 61.66,90.48 65.17,93.69 66.77,98.38 66.98,101.32 66.14,104.23 63.65,108.71 60.75,112.1 57.23,113.67 51.66,113.49 47.66,111.61 44.39,109.67 "/>
 </g>
</svg>
