<?xml version="1.0" encoding="UTF-8"?>
<!DOCTYPE svg PUBLIC "-//W3C//DTD SVG 1.1//EN" "http://www.w3.org/Graphics/SVG/1.1/DTD/svg11.dtd">
<!-- Creator: CorelDRAW 2020 (64-Bit) -->
<svg xmlns="http://www.w3.org/2000/svg" xml:space="preserve" width="2.3504mm" height="2.6601mm" version="1.1" style="shape-rendering:geometricPrecision; text-rendering:geometricPrecision; image-rendering:optimizeQuality; fill-rule:evenodd; clip-rule:evenodd"
viewBox="0 0 3.76 4.26"
 xmlns:xlink="http://www.w3.org/1999/xlink"
 xmlns:xodm="http://www.corel.com/coreldraw/odm/2003">
 <defs>
  <style type="text/css">
   <![CDATA[
    .str0 {stroke:black;stroke-width:0.12;stroke-linejoin:bevel;stroke-miterlimit:22.9256}
    .fil6 {fill:none}
    .fil0 {fill:#21134E}
    .fil2 {fill:#615248}
    .fil1 {fill:#737054}
    .fil4 {fill:#786658}
    .fil3 {fill:#8F8B68}
    .fil5 {fill:#E8E8E8}
   ]]>
  </style>
    <clipPath id="id0">
     <path d="M3.76 4.26l-0.02 -0.15 -0.17 -0.06 -0.32 -0.05 -0.36 -0.08 -0.27 -0.16 -0.1 -0.35 -0.26 0.41 -0.59 0.05 -0.25 -0.08 -0.26 -0.23 -0.17 0.28 -0.44 0.18 -0.41 0.08 -0.08 0.16z"/>
    </clipPath>
    <clipPath id="id1">
     <path d="M1.25 1.68l0.35 -0.15 0.51 0.01 0.28 0.18 0.01 -0.14 -0.25 -0.16 -0.58 -0.01 -0.4 0.17 -0.34 0.29 -0.15 0.42 0.11 0.31 -0.32 -0.03 -0.22 -0.25 -0.01 -0.5 -0.11 -0.61 0.28 -0.41 0.55 -0.35 0.94 -0.31 0.7 0.19 0.29 0.23 0.13 -0.06 -0.36 -0.29 -0.76 -0.2 -0.99 0.33 -0.58 0.37 -0.33 0.47 0.12 0.65 0.01 0.53 0.28 0.33 0.54 0.06 -0.03 -0.18 -0.09 -0.27 0.13 -0.34z"/>
    </clipPath>
    <clipPath id="id2">
     <path d="M3.23 0.66l-0.2 -0.16 -0.13 0.06 0.23 0.19 0.41 0.84 0.04 0.55 -0.39 0.48 -0.17 0.01 -0.02 -0.18 -0.09 -0.38 -0.5 -0.5 -0.01 0.14 0.39 0.42 0.08 0.34 0.03 0.29 0.35 -0.03 0.46 -0.57 -0.04 -0.62z"/>
    </clipPath>
    <clipPath id="id3">
     <path d="M2.66 0.65l0.23 -0.1 -0.29 -0.23 -0.7 -0.19 -0.94 0.31 -0.55 0.35 -0.28 0.41 0.11 0.61 0.01 0.5 0.22 0.25 0.32 0.03 -0.11 -0.31 0.15 -0.42 0.34 -0.29 0.4 -0.17 0.58 0.01 0.25 0.16 0.02 -0.23 0.23 -0.33z"/>
    </clipPath>
    <clipPath id="id4">
     <path d="M3.13 0.74l-0.23 -0.19 -0.23 0.1 0 0.36 -0.23 0.33 -0.02 0.23 0.5 0.5 0.09 0.38 0.02 0.18 0.17 -0.01 0.39 -0.48 -0.04 -0.55z"/>
    </clipPath>
    <clipPath id="id5">
     <path d="M2.87 2.47l-0.08 -0.34 -0.39 -0.42 -0.28 -0.18 -0.51 -0.01 -0.35 0.15 -0.3 0.26 -0.13 0.34 0.09 0.27 0.03 0.18 0.03 0.18 0.18 0.64 0.26 0.23 0.25 0.08 0.59 -0.05 0.26 -0.41 0.38 -0.65z"/>
    </clipPath>
 </defs>
 <g id="solid">
  <metadata id="CorelCorpID_0Corel-Layer"/>
  <g>
   <polygon class="fil0" points="3.76,4.26 3.74,4.11 3.57,4.05 3.25,4 2.89,3.92 2.62,3.76 2.52,3.41 2.26,3.82 1.67,3.87 1.42,3.79 1.16,3.56 0.98,3.83 0.54,4.01 0.13,4.09 "/>
   <g style="clip-path:url(#id0)">
   </g>
  </g>
  <g>
   <polygon class="fil1" points="1.25,1.68 1.6,1.53 2.11,1.54 2.39,1.71 2.4,1.57 2.15,1.41 1.58,1.4 1.18,1.57 0.84,1.86 0.69,2.28 0.79,2.59 0.47,2.56 0.25,2.3 0.25,1.81 0.14,1.2 0.42,0.79 0.97,0.44 1.91,0.13 2.6,0.32 2.89,0.55 3.03,0.49 2.66,0.2 1.9,0 0.91,0.33 0.33,0.7 -0,1.17 0.12,1.82 0.13,2.35 0.4,2.68 0.95,2.73 0.91,2.55 0.82,2.28 "/>
   <g style="clip-path:url(#id1)">
   </g>
  </g>
  <g>
   <polygon class="fil2" points="3.23,0.66 3.03,0.49 2.89,0.55 3.13,0.74 3.54,1.58 3.58,2.12 3.18,2.61 3.01,2.62 3,2.45 2.9,2.07 2.4,1.57 2.39,1.71 2.79,2.13 2.87,2.47 2.9,2.76 3.25,2.73 3.71,2.16 "/>
   <g style="clip-path:url(#id2)">
   </g>
  </g>
  <g>
   <polygon class="fil3" points="2.66,0.65 2.89,0.55 2.6,0.32 1.91,0.13 0.97,0.44 0.42,0.79 0.14,1.2 0.25,1.81 0.25,2.3 0.47,2.56 0.79,2.59 0.69,2.28 0.84,1.86 1.18,1.57 1.58,1.4 2.15,1.41 2.4,1.57 2.43,1.33 "/>
   <g style="clip-path:url(#id3)">
   </g>
  </g>
  <g>
   <polygon class="fil4" points="3.13,0.74 2.89,0.55 2.66,0.65 2.66,1.01 2.43,1.33 2.4,1.57 2.9,2.07 3,2.45 3.01,2.62 3.18,2.61 3.58,2.12 "/>
   <g style="clip-path:url(#id4)">
   </g>
  </g>
  <g>
   <polygon class="fil5" points="2.87,2.47 2.79,2.13 2.39,1.71 2.11,1.54 1.6,1.53 1.25,1.68 0.95,1.94 0.82,2.28 0.91,2.55 0.95,2.73 0.98,2.92 1.16,3.56 1.42,3.79 1.67,3.87 2.26,3.82 2.52,3.41 "/>
   <g style="clip-path:url(#id5)">
   </g>
  </g>
  <line class="fil6 str0" x1="2.9" y1="2.76" x2="2.52" y2= "3.41" />
  <polyline class="fil6 str0" points="1.16,3.56 0.98,2.92 0.95,2.73 "/>
 </g>
</svg>
