<svg width="128" height="33" viewBox="0 0 128 33" fill="none" xmlns="http://www.w3.org/2000/svg">
<path d="M6.45746 0.256165L0.143555 3.89754L6.45746 7.53892L0.143555 11.1234L6.45746 14.7648L0.143555 18.3493L6.45746 21.9906L14.6655 17.3251L19.1427 21.9906V14.7932L25.4566 11.1519L6.45746 0.256165ZM17.9947 18.9751L7.60544 8.16479L17.9947 14.082V18.9751Z" fill="black"/>
<path d="M127.856 16.5001H125.618V12.8587H123.609V16.5001H121.313V18.4346H123.609V27.8794H125.618V18.4061H127.856V16.5001ZM116.377 16.2156C115.71 16.1793 115.046 16.3181 114.452 16.6178C113.857 16.9175 113.353 17.3676 112.99 17.9225V16.5001H110.981V27.8794H112.99V21.3647C112.954 20.9113 113.011 20.4553 113.159 20.0247C113.307 19.5942 113.543 19.1983 113.851 18.8613C114.396 18.3551 115.113 18.0707 115.86 18.0647C116.175 18.0488 116.489 18.0961 116.785 18.2036C117.081 18.3111 117.352 18.4768 117.582 18.6906C117.81 18.9335 117.984 19.221 118.092 19.5346C118.201 19.8482 118.242 20.1809 118.213 20.5113V27.794H120.222V20.3975C120.235 19.6089 120.058 18.8288 119.706 18.1216C119.388 17.5152 118.913 17.0044 118.328 16.6423C117.723 16.3388 117.054 16.1828 116.377 16.1871V16.2156ZM99.8743 21.3647C99.9832 20.4409 100.433 19.5898 101.137 18.9751C101.86 18.3747 102.777 18.0517 103.72 18.0647C104.601 18.0514 105.458 18.3546 106.131 18.9182C106.487 19.225 106.777 19.5997 106.984 20.02C107.191 20.4403 107.311 20.8976 107.336 21.3647H99.8743ZM109.345 23.0716C109.393 22.7706 109.412 22.4658 109.403 22.1613C109.407 21.1173 109.171 20.0861 108.714 19.1458C108.274 18.2469 107.601 17.4808 106.762 16.9268C105.873 16.3655 104.831 16.0876 103.777 16.1302C102.692 16.1234 101.623 16.398 100.678 16.9268C99.7803 17.437 99.0447 18.1859 98.5541 19.0889C98.0392 20.0309 97.7819 21.0901 97.808 22.1613C97.7819 23.2324 98.0392 24.2916 98.5541 25.2337C99.0447 26.1367 99.7803 26.8856 100.678 27.3958C101.623 27.9245 102.692 28.1991 103.777 28.1923C104.959 28.2037 106.118 27.8671 107.107 27.2251C108.001 26.622 108.667 25.7413 109.001 24.7216H106.934C106.689 25.2494 106.262 25.6731 105.729 25.9164C105.01 26.2735 104.206 26.4254 103.405 26.355C102.604 26.2847 101.839 25.9949 101.195 25.5182C100.461 24.8953 99.9898 24.0222 99.8743 23.0716H109.345ZM89.973 26.1725C89.2515 26.1785 88.5403 26.0023 87.9066 25.6604C87.2884 25.3037 86.7742 24.7939 86.4142 24.1811C86.0751 23.5507 85.8976 22.8473 85.8976 22.1328C85.8976 21.4184 86.0751 20.7149 86.4142 20.0845C86.7742 19.4717 87.2884 18.962 87.9066 18.6052C88.5426 18.269 89.2522 18.0932 89.973 18.0932C90.6937 18.0932 91.4034 18.269 92.0394 18.6052C92.6576 18.962 93.1718 19.4717 93.5317 20.0845C93.8709 20.7149 94.0483 21.4184 94.0483 22.1328C94.0483 22.8473 93.8709 23.5507 93.5317 24.1811C93.1718 24.7939 92.6576 25.3037 92.0394 25.6604C91.4056 26.0023 90.6945 26.1785 89.973 26.1725ZM94.0483 16.5001V18.4914C93.5815 17.8008 92.9508 17.2342 92.2115 16.8414C91.435 16.4285 90.5672 16.2135 89.686 16.2156C88.6569 16.224 87.6478 16.4986 86.7586 17.0121C85.8611 17.5223 85.1254 18.2712 84.6349 19.1742C84.1091 20.0732 83.8319 21.0937 83.8313 22.1328C83.832 23.1899 84.1089 24.2288 84.6349 25.1483C85.1415 26.0395 85.8734 26.7846 86.7586 27.3104C87.6417 27.8382 88.6548 28.1139 89.686 28.107C90.5459 28.1129 91.394 27.9083 92.155 27.5112C92.916 27.1142 93.5664 26.5371 94.0483 25.8311V27.4242C94.0689 27.8942 93.993 28.3635 93.8253 28.8036C93.6576 29.2437 93.4015 29.6454 93.0725 29.9846C92.2889 30.6368 91.2809 30.963 90.26 30.8949C89.6047 30.9242 88.9527 30.7871 88.3658 30.4966C87.8673 30.2883 87.4321 29.955 87.103 29.5294C86.843 29.1843 86.7021 28.7653 86.7012 28.3346H84.6923C84.6957 29.1609 84.9786 29.9623 85.4958 30.6104C86.0264 31.3037 86.7422 31.8358 87.5622 32.1466C88.4082 32.531 89.3294 32.7253 90.26 32.7156C91.2513 32.7175 92.231 32.5038 93.1299 32.0897C93.9969 31.6935 94.7331 31.0623 95.2537 30.269C95.8008 29.3999 96.08 28.3915 96.0573 27.3673V16.5001H94.0483ZM80.0429 27.8794H82.0806V16.5001H80.0716L80.0429 27.8794ZM80.0429 14.4518H82.0806V11.9483H80.0716L80.0429 14.4518ZM75.5658 27.8794H77.5748V11.4647H75.5658V27.8794ZM71.0887 27.8794H73.0976V11.4647H71.0887V27.8794ZM59.9532 21.3932C60.0621 20.4694 60.5119 19.6182 61.216 19.0035C61.9392 18.4032 62.8558 18.0801 63.799 18.0932C64.6802 18.0799 65.5364 18.383 66.2098 18.9466C66.5659 19.2535 66.8562 19.6282 67.0632 20.0485C67.2703 20.4688 67.39 20.9261 67.4151 21.3932H59.9532ZM69.4241 23.1001C69.4718 22.7991 69.491 22.4943 69.4815 22.1897C69.4857 21.1458 69.2502 20.1145 68.7927 19.1742C68.3533 18.2754 67.6795 17.5093 66.8411 16.9552C65.9516 16.394 64.91 16.116 63.8564 16.1587C62.7708 16.1519 61.7023 16.4265 60.7568 16.9552C59.8593 17.4654 59.1236 18.2143 58.6331 19.1173C58.1181 20.0594 57.8609 21.1186 57.8869 22.1897C57.8609 23.2609 58.1181 24.3201 58.6331 25.2621C59.1236 26.1651 59.8593 26.914 60.7568 27.4242C61.7023 27.953 62.7708 28.2276 63.8564 28.2208C65.0382 28.2321 66.1969 27.8955 67.1855 27.2535C68.0797 26.6505 68.746 25.7698 69.0797 24.7501H67.0133C66.7679 25.2779 66.3404 25.7016 65.808 25.9449C65.0892 26.302 64.2845 26.4538 63.4837 26.3835C62.6829 26.3131 61.9176 26.0234 61.2734 25.5466C60.9004 25.2462 60.5915 24.8752 60.3649 24.4551C60.1382 24.035 59.9982 23.5744 59.9532 23.1001H69.4241ZM57.5999 16.5001H55.3613V12.8587H53.3811V16.5001H51.0851V18.4346H53.3811V27.8794H55.39V18.4061H57.6286L57.5999 16.5001ZM43.6232 26.2578C42.9017 26.2639 42.1906 26.0876 41.5568 25.7458C40.9386 25.389 40.4244 24.8793 40.0645 24.2664C39.7253 23.6361 39.5479 22.9326 39.5479 22.2182C39.5479 21.5037 39.7253 20.8003 40.0645 20.1699C40.4082 19.5449 40.9263 19.0313 41.5568 18.6906C42.1928 18.3544 42.9025 18.1785 43.6232 18.1785C44.344 18.1785 45.0536 18.3544 45.6896 18.6906C46.3078 19.0473 46.822 19.5571 47.1819 20.1699C47.5211 20.8003 47.6985 21.5037 47.6985 22.2182C47.6985 22.9326 47.5211 23.6361 47.1819 24.2664C46.8382 24.8915 46.3201 25.405 45.6896 25.7458C45.0612 26.1011 44.3463 26.2783 43.6232 26.2578ZM47.7272 11.9483V18.4346C47.2536 17.7244 46.6034 17.1472 45.8393 16.7586C45.0753 16.3699 44.2231 16.1829 43.3649 16.2156C42.3528 16.2165 41.3603 16.492 40.495 17.0121C39.6101 17.5384 38.8783 18.2834 38.3712 19.1742C37.8444 20.0934 37.5674 21.1325 37.5674 22.1897C37.5674 23.2469 37.8444 24.286 38.3712 25.2052C38.8783 26.0961 39.6101 26.8411 40.495 27.3673C41.3603 27.8875 42.3528 28.1629 43.3649 28.1639C44.242 28.1916 45.1116 27.9957 45.8905 27.5949C46.6183 27.1863 47.2457 26.6228 47.7272 25.9449V27.8794H49.7362V11.9483H47.7272ZM29.6465 26.2863C28.925 26.2923 28.2139 26.1161 27.5802 25.7742C26.9619 25.4174 26.4477 24.9077 26.0878 24.2949C25.7486 23.6645 25.5712 22.9611 25.5712 22.2466C25.5712 21.5322 25.7486 20.8287 26.0878 20.1983C26.4315 19.5733 26.9496 19.0597 27.5802 18.719C28.2161 18.3828 28.9258 18.207 29.6465 18.207C30.3673 18.207 31.0769 18.3828 31.7129 18.719C32.3311 19.0758 32.8454 19.5855 33.2053 20.1983C33.5444 20.8287 33.7219 21.5322 33.7219 22.2466C33.7219 22.9611 33.5444 23.6645 33.2053 24.2949C32.8616 24.9199 32.3434 25.4335 31.7129 25.7742C31.0845 26.1295 30.3697 26.3067 29.6465 26.2863ZM33.7219 16.5001V18.4346C33.2482 17.7244 32.598 17.1472 31.834 16.7586C31.0699 16.3699 30.2177 16.1829 29.3595 16.2156C28.3282 16.2188 27.3164 16.4947 26.4285 17.0147C25.5406 17.5348 24.8088 18.2803 24.3084 19.1742C23.7816 20.0934 23.5046 21.1325 23.5046 22.1897C23.5046 23.2469 23.7816 24.286 24.3084 25.2052C24.8088 26.0992 25.5406 26.8446 26.4285 27.3647C27.3164 27.8848 28.3282 28.1606 29.3595 28.1639C30.2366 28.1916 31.1063 27.9957 31.8851 27.5949C32.6129 27.1863 33.2403 26.6228 33.7219 25.9449V27.8794H35.7308V16.5001H33.7219Z" fill="black"/>
</svg>
