<svg width="132" height="28" viewBox="0 0 132 28" fill="none" xmlns="http://www.w3.org/2000/svg">
<path d="M1.66748 26.6668L4.10666 23.3907L1.81614 20.8894H2.51541L5.80803 24.5695V20.8894H6.35863V24.5695L9.65124 20.8894H10.3505L8.049 23.3907L10.4992 26.6668H9.82192L7.70211 23.7892L6.35863 25.2501V26.6668H5.80803V25.2501L4.46455 23.7781L2.34473 26.6668H1.66748ZM11.8371 26.6668V20.8894H12.3933V25.9308L16.2915 20.8894H16.8476V26.6668H16.2915V21.6255L12.3933 26.6668H11.8371ZM17.9379 26.6668L18.0425 26.1577C18.2224 26.2093 18.3673 26.2351 18.4775 26.2351C18.6022 26.2351 18.7068 26.2259 18.7913 26.2075C18.8794 26.1853 18.973 26.1355 19.0721 26.0581C19.1712 25.9806 19.2538 25.8718 19.3199 25.7316C19.3859 25.5914 19.4502 25.3977 19.5126 25.1505C19.5786 24.9033 19.63 24.6045 19.6667 24.2541C19.7071 23.8999 19.7402 23.4664 19.7658 22.9536C19.7916 22.4408 19.8062 21.8542 19.8099 21.1938V20.8894H23.7247V26.6668H23.1686V21.3875H20.3385V21.5424C20.3385 22.2176 20.322 22.8171 20.2889 23.3409C20.2595 23.8611 20.2192 24.3039 20.1678 24.6691C20.1201 25.0343 20.054 25.3461 19.9696 25.6043C19.8852 25.8589 19.7989 26.0617 19.7108 26.213C19.6227 26.3606 19.5126 26.4768 19.3804 26.5617C19.2483 26.6428 19.1216 26.6945 19.0005 26.7166C18.883 26.7424 18.7399 26.7553 18.5711 26.7553C18.3618 26.7553 18.1507 26.7258 17.9379 26.6668ZM25.4315 23.7781C25.4315 23.376 25.5068 22.9905 25.6573 22.6215C25.8078 22.2526 26.0116 21.9317 26.2685 21.6587C26.5254 21.382 26.8393 21.1625 27.21 21.0001C27.5808 20.8341 27.9754 20.7511 28.3939 20.7511C28.9481 20.7511 29.451 20.8894 29.9025 21.1661C30.3577 21.4391 30.71 21.8081 30.9596 22.2729C31.2129 22.7341 31.3396 23.2358 31.3396 23.7781C31.3396 24.3167 31.2129 24.8167 30.9596 25.2778C30.7064 25.7389 30.3503 26.1097 29.8915 26.3901C29.4363 26.6668 28.9297 26.8051 28.3718 26.8051C27.957 26.8051 27.5661 26.724 27.199 26.5617C26.8319 26.3993 26.5199 26.1817 26.263 25.9087C26.006 25.6357 25.8023 25.3147 25.6518 24.9458C25.505 24.5731 25.4315 24.1839 25.4315 23.7781ZM26.0262 23.7781C26.0262 24.4754 26.2538 25.0675 26.709 25.5545C27.1678 26.0378 27.7294 26.2794 28.3939 26.2794C28.8123 26.2794 29.2014 26.1687 29.5611 25.9474C29.9208 25.7223 30.2072 25.418 30.4201 25.0343C30.6329 24.6506 30.7394 24.2319 30.7394 23.7781C30.7394 23.0845 30.5082 22.4943 30.0456 22.0073C29.5831 21.5166 29.0252 21.2713 28.3718 21.2713C27.946 21.2713 27.5532 21.3838 27.1935 21.6089C26.8338 21.8302 26.5493 22.1346 26.3401 22.5219C26.1308 22.9056 26.0262 23.3243 26.0262 23.7781ZM33.0354 26.6668V20.8894H33.5915V25.9308L37.4898 20.8894H38.0459V26.6668H37.4898V21.6255L33.5915 26.6668H33.0354ZM34.021 18.6427L34.4835 18.5431C34.6304 19.0928 34.9827 19.3676 35.5407 19.3676C36.1023 19.3676 36.4565 19.0928 36.6033 18.5431L37.0659 18.6427C36.9961 19.019 36.8218 19.3307 36.5428 19.5779C36.2638 19.8251 35.9298 19.9487 35.5407 19.9487C35.1516 19.9487 34.8175 19.8251 34.5386 19.5779C34.2633 19.3307 34.0907 19.019 34.021 18.6427ZM43.5189 26.6668V20.8894H44.0751V24.5916L47.6375 20.8894H48.3698L45.8535 23.4461L48.4468 26.6668H47.7476L45.4736 23.8445L44.0751 25.2612V26.6668H43.5189ZM49.3939 23.7781C49.3939 23.376 49.4691 22.9905 49.6197 22.6215C49.7702 22.2526 49.9739 21.9317 50.2308 21.6587C50.4877 21.382 50.8016 21.1625 51.1723 21.0001C51.5431 20.8341 51.9377 20.7511 52.3562 20.7511C52.9104 20.7511 53.4133 20.8894 53.8648 21.1661C54.32 21.4391 54.6723 21.8081 54.9219 22.2729C55.1753 22.7341 55.3019 23.2358 55.3019 23.7781C55.3019 24.3167 55.1753 24.8167 54.9219 25.2778C54.6687 25.7389 54.3126 26.1097 53.8538 26.3901C53.3986 26.6668 52.8921 26.8051 52.3341 26.8051C51.9193 26.8051 51.5284 26.724 51.1613 26.5617C50.7943 26.3993 50.4822 26.1817 50.2253 25.9087C49.9684 25.6357 49.7647 25.3147 49.6141 24.9458C49.4673 24.5731 49.3939 24.1839 49.3939 23.7781ZM49.9885 23.7781C49.9885 24.4754 50.2161 25.0675 50.6713 25.5545C51.1302 26.0378 51.6917 26.2794 52.3562 26.2794C52.7746 26.2794 53.1637 26.1687 53.5234 25.9474C53.8831 25.7223 54.1695 25.418 54.3824 25.0343C54.5953 24.6506 54.7017 24.2319 54.7017 23.7781C54.7017 23.0845 54.4705 22.4943 54.008 22.0073C53.5454 21.5166 52.9875 21.2713 52.3341 21.2713C51.9083 21.2713 51.5155 21.3838 51.1558 21.6089C50.7961 21.8302 50.5116 22.1346 50.3024 22.5219C50.0931 22.9056 49.9885 23.3243 49.9885 23.7781ZM56.9977 26.6668V20.8894H57.4988L59.8443 24.2098L62.19 20.8894H62.6855V26.6668H62.1294V21.8523L59.8168 25.0454L57.5318 21.8523V26.6668H56.9977ZM64.7833 26.6668V20.8894H69.5681V26.6668H69.0122V21.3875H65.3394V26.6668H64.7833ZM70.6639 26.6668L70.768 26.1577C70.9485 26.2093 71.0931 26.2351 71.2032 26.2351C71.3279 26.2351 71.4327 26.2259 71.5169 26.2075C71.6051 26.1853 71.6987 26.1355 71.7982 26.0581C71.897 25.9806 71.9799 25.8718 72.0456 25.7316C72.1119 25.5914 72.1763 25.3977 72.2386 25.1505C72.3043 24.9033 72.356 24.6045 72.3925 24.2541C72.433 23.8999 72.4661 23.4664 72.492 22.9536C72.5172 22.4408 72.5318 21.8542 72.5358 21.1938V20.8894H76.4507V26.6668H75.8948V21.3875H73.0644V21.5424C73.0644 22.2176 73.0479 22.8171 73.0147 23.3409C72.9855 23.8611 72.945 24.3039 72.894 24.6691C72.8462 25.0343 72.7799 25.3461 72.6956 25.6043C72.6107 25.8589 72.5245 26.0617 72.437 26.213C72.3487 26.3606 72.2386 26.4768 72.1066 26.5617C71.974 26.6428 71.8473 26.6945 71.7265 26.7166C71.6091 26.7424 71.4659 26.7553 71.2967 26.7553C71.0878 26.7553 70.8768 26.7258 70.6639 26.6668ZM78.1574 23.7671C78.1574 23.3539 78.227 22.9628 78.367 22.5939C78.5063 22.2213 78.6953 21.9003 78.9341 21.631C79.1723 21.3617 79.4608 21.1477 79.7984 20.9891C80.1394 20.8304 80.5009 20.7511 80.883 20.7511C81.4076 20.7511 81.872 20.8858 82.2759 21.1551C82.6832 21.4207 82.9936 21.7822 83.2066 22.2397C83.4195 22.6972 83.5256 23.21 83.5256 23.7781C83.5256 23.8703 83.5223 23.946 83.515 24.005H78.7411C78.7889 24.6986 79.029 25.252 79.4621 25.6652C79.8993 26.0747 80.4113 26.2794 80.9984 26.2794C81.7546 26.2794 82.4119 25.9787 82.9697 25.3774L83.3551 25.715C83.0321 26.0655 82.6832 26.3348 82.3091 26.5229C81.9383 26.7111 81.4939 26.8051 80.9765 26.8051C80.6024 26.8051 80.2422 26.7313 79.8973 26.5838C79.5563 26.4362 79.2572 26.2333 78.9998 25.9751C78.7431 25.7131 78.5375 25.3922 78.3829 25.0122C78.233 24.6285 78.1574 24.2135 78.1574 23.7671ZM78.7411 23.507H82.926C82.9074 23.2081 82.8504 22.9278 82.7548 22.6658C82.6593 22.4002 82.5293 22.1622 82.3641 21.9519C82.199 21.738 81.9861 21.5701 81.7254 21.4484C81.4687 21.3229 81.1801 21.2602 80.8611 21.2602C80.2959 21.2602 79.813 21.4742 79.413 21.9021C79.0164 22.3301 78.7922 22.865 78.7411 23.507ZM85.1335 26.6668V20.8894H85.69V24.5916L89.252 20.8894H89.9843L87.4684 23.4461L90.0613 26.6668H89.3621L87.0883 23.8445L85.69 25.2612V26.6668H85.1335ZM91.0085 23.7781C91.0085 23.2321 91.1372 22.7285 91.3939 22.2674C91.6512 21.8025 92.0035 21.4336 92.4512 21.1606C92.9029 20.8876 93.3984 20.7511 93.9377 20.7511C94.8332 20.7511 95.5966 21.1108 96.2281 21.8302L95.8427 22.2231C95.5496 21.9206 95.2537 21.6863 94.9566 21.5203C94.6627 21.3543 94.3198 21.2713 93.9271 21.2713C93.5085 21.2713 93.1212 21.3838 92.765 21.6089C92.4088 21.8302 92.1262 22.1346 91.9172 22.5219C91.7076 22.9056 91.6035 23.3243 91.6035 23.7781C91.6035 24.4754 91.8323 25.0675 92.2913 25.5545C92.7504 26.0378 93.3102 26.2794 93.9709 26.2794C94.6574 26.2794 95.2942 25.9511 95.8812 25.2944L96.2832 25.6597C95.9641 26.0249 95.6172 26.3071 95.2424 26.5063C94.8723 26.7055 94.4372 26.8051 93.9377 26.8051C93.3944 26.8051 92.8969 26.6705 92.4459 26.4012C91.9982 26.1282 91.6453 25.7611 91.3886 25.2999C91.1352 24.8351 91.0085 24.3278 91.0085 23.7781Z" fill="white"/>
<path d="M12.2701 14.424C11.6864 14.8542 10.9762 15.1768 10.1395 15.392C9.32232 15.6266 8.47593 15.744 7.60035 15.744C6.43289 15.744 5.44057 15.5582 4.62336 15.1866C3.82562 14.8151 3.17379 14.2968 2.6679 13.632C2.16202 12.9475 1.79233 12.1262 1.55884 11.168C1.34481 10.2098 1.23779 9.15378 1.23779 7.99998C1.23779 5.51645 1.79233 3.60978 2.90139 2.27998C4.01046 0.930648 5.62541 0.255981 7.74628 0.255981C8.81641 0.255981 9.67255 0.343981 10.3146 0.519981C10.9762 0.695981 11.5696 0.920847 12.095 1.19465L11.1902 4.30398C10.7427 4.08885 10.2951 3.92265 9.84767 3.80531C9.41956 3.68798 8.9234 3.62931 8.35919 3.62931C7.30849 3.62931 6.51072 3.98131 5.96591 4.68531C5.42111 5.36978 5.14871 6.47465 5.14871 7.99998C5.14871 8.62578 5.21681 9.20265 5.35301 9.73065C5.48921 10.2586 5.69352 10.7182 5.96591 11.1093C6.23832 11.5004 6.58855 11.8133 7.01663 12.048C7.46411 12.2631 7.97977 12.3706 8.56349 12.3706C9.20558 12.3706 9.75036 12.2924 10.1979 12.136C10.6454 11.96 11.0443 11.7546 11.3945 11.52L12.2701 14.424ZM23.3495 8.64531L23.4955 6.56265H23.4079L22.1529 8.70398L16.9578 15.3333H14.5646V0.666648H18.3587V7.64798L18.1836 9.64265H18.3004L19.497 7.55998L24.7505 0.666648H27.1437V15.3333H23.3495V8.64531ZM40.9756 4.03998H36.8604V15.3333H32.9495V4.03998H28.8342V0.666648H40.9756V4.03998ZM51.4524 8.64531L51.5983 6.56265H51.5108L50.2558 8.70398L45.0607 15.3333H42.6674V0.666648H46.4616V7.64798L46.2865 9.64265H46.4032L47.5999 7.55998L52.8533 0.666648H55.2466V15.3333H51.4524V8.64531ZM81.7412 4.03998H77.1298V15.3333H73.3356V0.666648H85.5353V15.3333H81.7412V4.03998ZM88.7816 1.51731C89.5597 1.16531 90.4837 0.891515 91.5543 0.695981C92.6242 0.480848 93.7432 0.373314 94.9107 0.373314C95.9222 0.373314 96.7686 0.500448 97.4498 0.754648C98.1304 0.989314 98.6657 1.33151 99.0551 1.78131C99.4637 2.23111 99.7456 2.76885 99.9014 3.39465C100.077 4.02045 100.164 4.72445 100.164 5.50665C100.164 6.36711 100.135 7.23731 100.077 8.11731C100.018 8.97778 99.9791 9.82845 99.9598 10.6693C99.9598 11.5102 99.989 12.3315 100.047 13.1333C100.106 13.9155 100.252 14.6586 100.485 15.3626H97.3915L96.7786 13.3386H96.6326C96.2433 13.9448 95.6987 14.4728 94.9982 14.9226C94.317 15.3528 93.4315 15.568 92.3423 15.568C91.6611 15.568 91.0482 15.4702 90.5036 15.2746C89.9583 15.0595 89.4914 14.7662 89.1027 14.3946C88.7133 14.0035 88.4115 13.5538 88.1979 13.0453C87.9836 12.5173 87.8768 11.9306 87.8768 11.2853C87.8768 10.3858 88.0712 9.63285 88.4606 9.02665C88.8692 8.40085 89.4429 7.90218 90.1825 7.53065C90.9414 7.13952 91.8362 6.87552 92.8676 6.73865C93.9183 6.58218 95.0858 6.53331 96.3699 6.59198C96.5059 5.49685 96.4283 4.71465 96.1365 4.24531C95.8446 3.75645 95.1926 3.51198 94.181 3.51198C93.4222 3.51198 92.6143 3.59018 91.7586 3.74665C90.9215 3.90312 90.231 4.10845 89.6864 4.36265L88.7816 1.51731ZM93.5973 12.4293C94.3561 12.4293 94.9591 12.2631 95.4068 11.9306C95.8539 11.5786 96.1849 11.2071 96.3991 10.816V8.90931C95.7955 8.85065 95.2118 8.84085 94.648 8.87998C94.1027 8.91911 93.6165 9.00711 93.1887 9.14398C92.7602 9.28085 92.4199 9.47645 92.1672 9.73065C91.9138 9.98485 91.7878 10.3075 91.7878 10.6986C91.7878 11.2462 91.943 11.6764 92.2547 11.9893C92.5851 12.2826 93.0328 12.4293 93.5973 12.4293ZM103.348 0.666648H106.121L106.558 2.42665H106.675C107.181 1.68351 107.774 1.13598 108.456 0.783981C109.156 0.431981 110.002 0.255981 110.995 0.255981C112.824 0.255981 114.195 0.842648 115.11 2.01598C116.025 3.16978 116.482 5.03732 116.482 7.61865C116.482 8.87018 116.336 10.0044 116.044 11.0213C115.752 12.0186 115.314 12.8693 114.731 13.5733C114.166 14.2773 113.466 14.8151 112.629 15.1866C111.812 15.5582 110.868 15.744 109.798 15.744C109.195 15.744 108.699 15.6951 108.31 15.5973C107.92 15.5191 107.532 15.3822 107.142 15.1866V21.2H103.348V0.666648ZM109.857 3.48265C109.117 3.48265 108.533 3.66845 108.105 4.03998C107.697 4.41151 107.376 4.96885 107.142 5.71198V11.8133C107.415 12.0284 107.707 12.2044 108.018 12.3413C108.349 12.4586 108.777 12.5173 109.302 12.5173C110.392 12.5173 111.209 12.136 111.754 11.3733C112.298 10.5911 112.571 9.31018 112.571 7.53065C112.571 6.23998 112.357 5.24265 111.929 4.53865C111.501 3.83465 110.81 3.48265 109.857 3.48265ZM123.925 9.26131H122.904V15.3333H119.11V0.666648H122.904V6.91465L123.809 6.50398L127.223 0.666648H131.28L127.749 6.23998L126.26 7.35465L127.895 8.49865L131.835 15.3333H127.486L123.925 9.26131Z" fill="white"/>
<path d="M64.3417 10.6666C65.8071 10.6666 66.995 9.47274 66.995 7.99998C66.995 6.52722 65.8071 5.33331 64.3417 5.33331C62.8764 5.33331 61.6885 6.52722 61.6885 7.99998C61.6885 9.47274 62.8764 10.6666 64.3417 10.6666Z" fill="#F1C650"/>
</svg>
