<svg width="109" height="45" viewBox="0 0 109 45" fill="none" xmlns="http://www.w3.org/2000/svg">
<path fill-rule="evenodd" clip-rule="evenodd" d="M20.349 1.74863L20.5217 2.97363C15.0087 14.1089 22.0387 13.2024 22.0387 13.2024L22.9267 13.0431L23.0623 13.3126C36.1233 11.8426 43.2643 18.5924 43.2643 18.5924C44.214 2.61838 20.349 1.74863 20.349 1.74863Z" fill="#F8B829"/>
<path d="M12.1474 39.3684C11.5924 43.0434 14.6141 45.1749 15.0951 43.9989C16.4271 42.2716 16.8957 42.7739 17.5617 40.1769C17.8049 39.8543 18.0865 39.5623 18.4004 39.3071C19.0746 38.6129 19.7242 37.9024 20.3491 37.1756C22.1922 35.1046 23.7667 32.8124 25.0357 30.3524C26.4437 27.8685 26.9571 24.982 26.4911 22.1694C25.9866 20.7465 25.2672 19.4082 24.3574 18.2004C24.0797 17.568 23.9531 16.8804 23.9874 16.1914C23.9568 15.1606 23.6457 14.1573 23.0871 13.2881C22.7987 12.9792 22.5793 12.6133 22.4432 12.2143C22.3072 11.8153 22.2576 11.3922 22.2977 10.9729C22.4581 10.0419 22.4581 9.12311 22.5937 8.19211C22.6792 6.45244 22.3584 4.71671 21.6564 3.12061C21.6564 3.12061 20.7931 1.60161 20.0284 1.98136C18.6669 1.12519 17.0846 0.67987 15.4733 0.69944C13.862 0.71901 12.2911 1.20263 10.9511 2.09161C10.9511 2.09161 -6.71025 13.3004 9.21208 34.8359C8.73108 37.6289 10.4454 40.5076 11.7774 42.4186" fill="#005D86"/>
<path d="M20.2751 14.7826L17.8824 3.95359C17.8824 3.95359 16.4764 -0.211414 12.7764 5.04384L12.1598 4.23534C8.75577 9.02508 4.1431 14.7703 5.16677 20.9933C5.31566 22.142 5.71503 23.2445 6.33702 24.2241C6.95902 25.2037 7.78866 26.0367 8.7681 26.6651C10.2114 27.6606 11.9588 28.1257 13.7099 27.9804C15.461 27.835 17.1064 27.0884 18.3634 25.8688C20.2874 24.2763 21.8538 21.0423 20.2751 14.7826Z" fill="white"/>
<path fill-rule="evenodd" clip-rule="evenodd" d="M23.0625 13.3494C23.0625 13.3494 34.4832 11.5854 43.2645 18.6292C43.2645 18.6292 35.0012 7.86141 21.8292 9.85816C21.8415 9.85816 20.8918 12.5042 23.0625 13.3494Z" fill="#F19320"/>
<path d="M43.2644 18.6291C43.4965 15.8505 42.7891 13.0744 41.254 10.7401C41.1307 10.5809 40.181 12.6389 40.1687 12.8226C40.1183 13.681 40.3288 14.5346 40.773 15.2726C41.402 16.4241 42.9314 17.3674 43.2397 18.6046" fill="#E95253"/>
<path d="M0.233398 34.1866C1.84769 34.7968 3.60915 34.912 5.29006 34.5174C7.64573 34.8359 8.87906 35.5709 11.6911 35.8894C15.1321 35.8894 18.5484 35.5219 21.9647 35.2034C23.0747 35.1054 25.5414 34.9706 26.4787 35.8404C27.0214 36.3426 26.8611 37.7024 26.8734 38.4129C24.8346 37.6408 22.688 37.1862 20.5094 37.0654C18.0427 37.0654 15.4897 37.1756 12.9861 37.1511C11.2783 37.1561 9.57354 37.0085 7.8924 36.7101C6.32606 36.4161 4.7844 36.0119 3.21807 35.6934C2.0834 35.4484 0.702065 35.2524 0.233398 34.1866Z" fill="#9B5F48"/>
<path d="M22.2238 36.3916C22.2238 36.7836 21.8785 37.6166 21.5578 37.6166C21.2372 37.6166 20.8918 36.7959 20.8918 36.3916V35.0074C20.8918 34.6154 21.1385 34.2234 21.4592 34.2234C21.6531 34.2528 21.8315 34.3461 21.9657 34.4883C22.0999 34.6305 22.1821 34.8133 22.1992 35.0074L22.2238 36.3916Z" fill="#969595"/>
<path d="M20.8917 36.5875C20.8917 36.8938 20.645 37.5308 20.386 37.5308C20.127 37.5308 19.8804 36.8938 19.8804 36.5875V35.4973C19.8804 35.191 20.0654 34.8848 20.3244 34.8848C20.4727 34.9076 20.6082 34.9815 20.7074 35.0934C20.8065 35.2053 20.863 35.3482 20.867 35.4973L20.8917 36.5875Z" fill="#838383"/>
<path d="M8.65698 36.3916C8.65698 36.7836 9.00232 37.6166 9.32298 37.6166C9.64365 37.6166 9.98898 36.7959 9.98898 36.3916V35.0074C9.98898 34.6154 9.74231 34.2234 9.42165 34.2234C9.22771 34.2528 9.04934 34.3461 8.91516 34.4883C8.78097 34.6305 8.69874 34.8133 8.68165 35.0074L8.65698 36.3916Z" fill="#969595"/>
<path d="M9.98901 36.5875C9.98901 36.8938 10.2357 37.5308 10.4947 37.5308C10.7537 37.5308 11.0003 36.8938 11.0003 36.5875V35.4973C11.0003 35.191 10.8153 34.8848 10.5563 34.8848C10.408 34.9076 10.2725 34.9815 10.1733 35.0934C10.0742 35.2053 10.0177 35.3482 10.0137 35.4973L9.98901 36.5875Z" fill="#838383"/>
<path d="M22.7911 9.6131C23.0871 8.91486 23.6297 6.74661 22.1251 3.01036C21.8537 2.43461 21.1754 1.09935 19.7324 1.78535C19.5227 2.10385 22.3347 3.8556 21.7551 10.0296C21.7551 10.0296 21.0274 12.6144 23.0624 13.3371C22.7596 12.7015 22.6036 12.0068 22.6061 11.3036C22.563 10.7336 22.6257 10.1606 22.7911 9.6131ZM22.6554 9.85811C22.6554 9.85811 22.6554 9.85811 22.6677 9.85811H22.6554Z" fill="#003B55"/>
<path d="M20.3491 7.33457C20.8918 10.2256 19.4365 11.8671 16.5505 11.9038C14.3305 11.9038 11.0991 11.4383 10.7908 8.74332C10.5318 6.40357 12.0241 3.23082 14.4168 2.52032C17.7345 1.51582 19.8311 4.49257 20.3615 7.33457H20.3491Z" fill="#F8B829"/>
<path d="M18.5854 7.12638C18.6993 7.46662 18.7233 7.8302 18.6552 8.18231C18.5871 8.53443 18.4292 8.86329 18.1965 9.13742C17.9638 9.41155 17.6642 9.62178 17.3263 9.74797C16.9884 9.87416 16.6236 9.91209 16.2667 9.85813C14.8607 9.85813 12.8997 9.52738 12.7764 7.82463C12.7104 7.05016 12.8933 6.27484 13.2988 5.61012C13.7044 4.94539 14.3116 4.42549 15.0334 4.12513C17.019 3.57388 18.2524 5.35013 18.5484 7.07738L18.5854 7.12638Z" fill="#005D86"/>
<path fill-rule="evenodd" clip-rule="evenodd" d="M17.5001 6.75891C17.5001 7.21538 17.3175 7.65315 16.9926 7.97593C16.6676 8.2987 16.2268 8.48003 15.7673 8.48003C15.3077 8.48003 14.8669 8.2987 14.542 7.97593C14.217 7.65315 14.0344 7.21538 14.0344 6.75891C14.0344 6.30244 14.217 5.86466 14.542 5.54189C14.8669 5.21911 15.3077 5.03778 15.7673 5.03778C16.2268 5.03778 16.6676 5.21911 16.9926 5.54189C17.3175 5.86466 17.5001 6.30244 17.5001 6.75891Z" fill="#151410"/>
<path fill-rule="evenodd" clip-rule="evenodd" d="M16.0077 5.66859C16.0077 5.97484 15.7363 5.66859 15.7363 5.66859C15.7363 5.66859 16.0077 5.35009 16.0077 5.66859Z" fill="white"/>
<path fill-rule="evenodd" clip-rule="evenodd" d="M15.0333 5.65631C14.8607 5.65631 14.8237 5.84006 14.799 6.03606C14.7525 6.05365 14.7106 6.08136 14.6763 6.11716C14.642 6.15296 14.6162 6.19595 14.6008 6.24295C14.5854 6.28996 14.5808 6.33979 14.5874 6.38878C14.5939 6.43777 14.6115 6.48469 14.6387 6.52606C14.6387 6.52606 15.4773 5.74206 15.539 5.79106C15.469 5.73454 15.3878 5.69332 15.3007 5.6701C15.2135 5.64688 15.1224 5.64219 15.0333 5.65631Z" fill="white"/>
<path d="M42.5983 33.9172C42.6955 33.9149 42.7921 33.9334 42.8815 33.9715C42.9709 34.0095 43.0509 34.0662 43.1163 34.1377L44.5717 35.6812C42.364 38.4742 38.1337 39.0989 34.9023 37.9107C33.296 37.2583 31.925 36.1403 30.9679 34.7025C30.0109 33.2646 29.5124 31.5737 29.5373 29.8502C29.4045 28.1041 29.7951 26.3579 30.6599 24.832C31.5247 23.306 32.8249 22.0684 34.3967 21.2752C36.0187 20.5254 37.8276 20.2684 39.5963 20.5364C41.3649 20.8045 43.0143 21.5857 44.3373 22.7819L43.104 24.4479C42.438 25.4034 41.4143 24.3499 40.7237 24.0192C39.699 23.5501 38.5564 23.3965 37.443 23.5782C36.3002 23.813 35.2711 24.425 34.5231 25.3148C33.7751 26.2045 33.3524 27.3194 33.3237 28.4782C33.1421 29.5762 33.2487 30.7021 33.6333 31.7472C34.0178 32.7922 34.6673 33.7211 35.519 34.4439C36.4922 35.0915 37.6505 35.4081 38.8202 35.3462C39.9899 35.2844 41.1079 34.8474 42.0063 34.1009C42.1774 33.9756 42.3859 33.9109 42.5983 33.9172Z" fill="white"/>
<path d="M49.5667 20.1849V38.2414H46.175V20.1849H49.5667Z" fill="white"/>
<path d="M55.8073 25.7586V38.2536H52.4526V25.7586H55.8073Z" fill="white"/>
<path d="M56.2143 22.1327C56.2143 24.7419 52.0457 24.7542 52.0457 22.1327C52.0457 19.5112 56.2143 19.5112 56.2143 22.1327Z" fill="white"/>
<path d="M67.8077 28.5394C67.2774 29.2499 66.7101 28.8089 66.1181 28.5394C65.3883 28.1302 64.5346 27.9954 63.7131 28.1597C62.0111 28.5394 61.5177 30.2667 61.4684 31.8347C61.4191 33.4027 61.7521 35.1912 63.3061 35.8159C63.7021 35.9662 64.1245 36.0361 64.5482 36.0213C64.9718 36.0066 65.3883 35.9076 65.7727 35.7302C66.3771 35.4484 67.2404 34.3827 67.8694 35.2034L68.8314 36.4284C67.9623 37.3428 66.8467 37.9896 65.6177 38.2915C64.3886 38.5934 63.0981 38.5378 61.9001 38.1312C60.7193 37.6594 59.7143 36.8363 59.0232 35.7748C58.332 34.7133 57.9885 33.4653 58.0397 32.2022C57.9246 30.9126 58.2197 29.6196 58.8835 28.5054C59.5473 27.3912 60.5463 26.5119 61.7397 25.9914C62.9136 25.5418 64.1925 25.4356 65.4252 25.6852C66.6579 25.9349 67.7928 26.53 68.6957 27.4002L67.8077 28.5394Z" fill="white"/>
<path d="M73.8634 20.1849V30.4382H74.4184C74.5873 30.4461 74.7553 30.4109 74.9065 30.3358C75.0577 30.2608 75.1869 30.1484 75.2818 30.0094L78.0568 26.3344C78.1846 26.155 78.355 26.0097 78.553 25.9114C78.7509 25.8131 78.9702 25.7648 79.1914 25.7709H82.2624L78.6734 30.3034C78.4085 30.6644 78.0729 30.9686 77.6868 31.1977C78.0501 31.4723 78.3524 31.8184 78.5748 32.2144L82.4598 38.2292H79.4381C79.2141 38.2449 78.9901 38.1996 78.7901 38.0981C78.5902 37.9967 78.4219 37.8429 78.3035 37.6534L75.4668 33.0719C75.3812 32.9134 75.2496 32.7842 75.089 32.7012C74.9283 32.6181 74.7462 32.5851 74.5664 32.6064H73.8634V38.2414H70.5334V20.1849H73.8634Z" fill="white"/>
<path d="M87.1709 20.1849V30.4382H87.726C87.8948 30.4461 88.0628 30.4109 88.214 30.3358C88.3652 30.2607 88.4944 30.1484 88.5893 30.0094L91.3643 26.3344C91.4921 26.155 91.6626 26.0097 91.8605 25.9114C92.0584 25.8131 92.2777 25.7648 92.499 25.7709H95.57L91.9563 30.3279C91.6913 30.6889 91.3557 30.9931 90.9696 31.2222C91.3329 31.4968 91.6352 31.8429 91.8576 32.2389L95.7426 38.2537H92.7333C92.5093 38.2694 92.2853 38.2241 92.0853 38.1226C91.8853 38.0212 91.7171 37.8674 91.5986 37.6779L88.7743 33.0842C88.6887 32.9257 88.5571 32.7964 88.3965 32.7134C88.2358 32.6304 88.0537 32.5974 87.8739 32.6187H87.1709V38.2537H83.804V20.1849H87.1709Z" fill="white"/>
<path d="M101.983 41.5979C101.897 41.8121 101.744 41.9931 101.546 42.1144C101.349 42.2357 101.117 42.2908 100.886 42.2716H98.419L100.762 37.2001L95.718 25.7096H98.6657C98.8653 25.7006 99.0629 25.7535 99.2309 25.8611C99.3988 25.9687 99.5289 26.1255 99.603 26.3099L101.996 32.3001C102.168 32.7738 102.316 33.2475 102.44 33.7211C102.588 33.2434 102.76 32.7656 102.945 32.2879L105.165 26.3221C105.239 26.1428 105.366 25.9897 105.529 25.8827C105.692 25.7757 105.883 25.7196 106.078 25.7219H108.767L101.983 41.5979Z" fill="white"/>
</svg>
