<svg width="144" height="36" viewBox="0 0 144 36" fill="none" xmlns="http://www.w3.org/2000/svg">
<g clip-path="url(#clip0_139_2164)">
<path d="M36.5019 18C36.5019 13.9452 35.1137 10.0091 32.5623 6.82952C30.0108 3.64994 26.4456 1.41315 22.4442 0.481534C18.4428 -0.45008 14.2397 -0.0219327 10.5158 1.69661C6.79193 3.41515 3.76549 6.3234 1.92683 9.95017C0.0881594 13.5769 -0.455017 17.7097 0.385301 21.679C1.22562 25.6483 3.4002 29.2214 6.55672 31.8195C9.71324 34.4177 13.6668 35.8886 17.7768 35.9939C21.8868 36.0993 25.9124 34.8329 29.2015 32.4H17.7886C14.9377 32.3237 12.1718 31.4256 9.83247 29.8166C7.49318 28.2075 5.68291 25.958 4.62519 23.3458C3.56747 20.7336 3.30861 17.8731 3.88057 15.1174C4.45254 12.3618 5.83028 9.83166 7.84369 7.83949C9.85709 5.84732 12.418 4.48033 15.2102 3.9073C18.0024 3.33427 20.9036 3.5803 23.5557 4.615C26.2077 5.64971 28.4944 7.42778 30.1335 9.72968C31.7725 12.0316 32.6921 14.7565 32.7787 17.568V28.8C35.1934 25.7035 36.5024 21.9064 36.5019 18Z" fill="white"/>
<path d="M27.3642 26.988V19.428H21.6942C21.3473 20.2185 20.7432 20.8724 19.9775 21.2866C19.2118 21.7007 18.3279 21.8516 17.4656 21.7152C16.6033 21.5789 15.8116 21.1632 15.2155 20.5337C14.6194 19.9042 14.2529 19.0968 14.1738 18.239C14.0947 17.3812 14.3076 16.5219 14.7788 15.7967C15.2501 15.0715 15.9528 14.5218 16.7761 14.2343C17.5993 13.9469 18.4962 13.9381 19.3251 14.2093C20.154 14.4805 20.8678 15.0162 21.3536 15.732H27.0844C26.6805 14.0948 25.8234 12.6003 24.6087 11.4154C23.394 10.2305 21.8695 9.40156 20.2051 9.02115C18.5407 8.64074 16.8019 8.72377 15.1826 9.26098C13.5632 9.7982 12.127 10.7685 11.0341 12.0636C9.94115 13.3587 9.23448 14.9278 8.99285 16.5959C8.75123 18.264 8.98415 19.9655 9.66565 21.5106C10.3472 23.0558 11.4504 24.3838 12.8525 25.3468C14.2545 26.3097 15.9002 26.8696 17.606 26.964L27.3642 26.988Z" fill="white"/>
<path d="M49.1558 12.9241C47.9146 12.9265 46.7019 13.2917 45.6711 13.9735C44.6402 14.6553 43.8374 15.6232 43.3641 16.7548C42.8908 17.8865 42.7682 19.1311 43.0118 20.3315C43.2554 21.5318 43.8543 22.634 44.7328 23.4987C45.6114 24.3635 46.7301 24.9521 47.9476 25.19C49.1651 25.4279 50.4269 25.3046 51.5734 24.8356C52.7199 24.3666 53.6997 23.573 54.3891 22.555C55.0784 21.5369 55.4463 20.3403 55.4463 19.1161C55.4545 18.2997 55.2972 17.4899 54.9838 16.7343C54.6705 15.9786 54.2072 15.2923 53.6213 14.7155C53.0354 14.1388 52.3386 13.6832 51.5718 13.3756C50.8049 13.068 49.9836 12.9145 49.1558 12.9241ZM49.1558 22.3561C48.7259 22.363 48.299 22.2833 47.9013 22.1219C47.5036 21.9606 47.1435 21.721 46.8429 21.4178C46.5422 21.1145 46.3074 20.754 46.1528 20.3583C45.9982 19.9626 45.927 19.5399 45.9436 19.1161C45.9166 18.6829 45.9798 18.2488 46.1293 17.8405C46.2788 17.4323 46.5115 17.0586 46.813 16.7424C47.1145 16.4262 47.4784 16.1742 47.8824 16.002C48.2864 15.8297 48.7218 15.7409 49.1619 15.7409C49.602 15.7409 50.0374 15.8297 50.4414 16.002C50.8454 16.1742 51.2093 16.4262 51.5108 16.7424C51.8123 17.0586 52.045 17.4323 52.1945 17.8405C52.344 18.2488 52.4072 18.6829 52.3801 19.1161C52.3968 19.5409 52.3253 19.9646 52.1699 20.3612C52.0146 20.7577 51.7787 21.1188 51.4767 21.4222C51.1748 21.7256 50.8132 21.965 50.4141 22.1256C50.015 22.2861 49.5868 22.3646 49.1558 22.3561ZM60.5201 15.2761V13.2001H57.4539V24.9361H60.5201V19.3801C60.4982 18.927 60.5835 18.475 60.7691 18.0599C60.9546 17.6448 61.2355 17.2779 61.5894 16.9881C61.9434 16.6984 62.3608 16.4937 62.8087 16.3903C63.2565 16.2869 63.7227 16.2875 64.1703 16.3921V13.0201C63.3979 12.9657 62.6279 13.1549 61.9718 13.5604C61.3156 13.966 60.8072 14.5668 60.5201 15.2761ZM74.7315 14.6401C74.2676 14.0755 73.6759 13.626 73.0039 13.328C72.3319 13.03 71.5984 12.8916 70.8623 12.9241C70.0706 12.9549 69.2929 13.1398 68.5739 13.4682C67.855 13.7965 67.2089 14.2617 66.6729 14.8372C66.137 15.4127 65.7216 16.0869 65.4508 16.8213C65.18 17.5556 65.0591 18.3355 65.095 19.1161C65.0591 19.8967 65.18 20.6766 65.4508 21.4109C65.7216 22.1453 66.137 22.8196 66.6729 23.395C67.2089 23.9705 67.855 24.4357 68.5739 24.7641C69.2929 25.0924 70.0706 25.2773 70.8623 25.3081C71.5984 25.3406 72.3319 25.2023 73.0039 24.9042C73.6759 24.6062 74.2676 24.1568 74.7315 23.5921V24.9841H77.7976V13.2001H74.7315V14.6401ZM71.4341 22.4281C70.9916 22.4438 70.5507 22.3683 70.1394 22.2066C69.7281 22.0449 69.3555 21.8005 69.0453 21.4889C68.7351 21.1773 68.4941 20.8054 68.3377 20.3969C68.1813 19.9883 68.1129 19.5522 68.1368 19.1161C68.1368 18.2568 68.4829 17.4327 69.099 16.8251C69.7151 16.2175 70.5507 15.8761 71.422 15.8761C72.2932 15.8761 73.1288 16.2175 73.7449 16.8251C74.361 17.4327 74.7071 18.2568 74.7071 19.1161C74.729 19.5496 74.66 19.9829 74.5044 20.389C74.3488 20.795 74.1099 21.165 73.8027 21.4758C73.4955 21.7867 73.1266 22.0317 72.7191 22.1955C72.3115 22.3594 71.8741 22.4386 71.4341 22.4281ZM87.0813 12.9241C86.3982 12.8798 85.7149 13.0074 85.0956 13.295C84.4763 13.5826 83.9412 14.0207 83.5406 14.5681V13.2001H80.4866V24.9361H83.5406V18.6481C83.5406 16.6081 84.66 15.7441 86.1566 15.7441C86.4783 15.7212 86.8012 15.7682 87.1025 15.8819C87.4038 15.9957 87.6761 16.1733 87.9001 16.4022C88.1241 16.6312 88.2944 16.9058 88.3989 17.2068C88.5034 17.5078 88.5396 17.8278 88.5048 18.1441V24.9721H91.571V17.7721C91.571 14.6641 89.5999 12.9241 87.0813 12.9241ZM103.179 14.7121C102.741 14.1325 102.166 13.6668 101.505 13.3553C100.843 13.0438 100.115 12.8958 99.3824 12.9241C98.5932 12.9303 97.8132 13.091 97.0874 13.3968C96.3617 13.7026 95.7047 14.1475 95.1547 14.7056C94.6046 15.2637 94.1723 15.924 93.883 16.6482C93.5937 17.3723 93.453 18.1459 93.4691 18.9241C93.4513 19.7027 93.5909 20.477 93.8796 21.2019C94.1684 21.9268 94.6006 22.5877 95.151 23.1462C95.7013 23.7047 96.359 24.1495 97.0854 24.4547C97.8119 24.76 98.5928 24.9195 99.3824 24.9241C100.115 24.9524 100.843 24.8045 101.505 24.4929C102.166 24.1814 102.741 23.7157 103.179 23.1361V24.4081C103.205 24.8088 103.142 25.2104 102.992 25.584C102.843 25.9576 102.612 26.294 102.315 26.5693C102.019 26.8445 101.664 27.0516 101.277 27.1759C100.89 27.3002 100.48 27.3385 100.076 27.2881C99.4482 27.3644 98.812 27.2473 98.2543 26.953C97.6967 26.6587 97.245 26.2015 96.9611 25.6441L94.3452 27.1321C94.9261 28.0747 95.7593 28.8411 96.7532 29.347C97.747 29.853 98.863 30.079 99.9786 30.0001C103.106 30.0001 106.172 28.2601 106.172 24.4201V13.2001H103.179V14.7121ZM99.8569 22.1401C99.2182 22.126 98.5979 21.9264 98.0737 21.5663C97.5494 21.2063 97.1443 20.7018 96.9093 20.1159C96.6742 19.5301 96.6194 18.8888 96.7519 18.2725C96.8844 17.6561 97.1982 17.0919 97.6541 16.6505C98.11 16.2091 98.6878 15.9101 99.3151 15.7908C99.9424 15.6716 100.591 15.7374 101.181 15.98C101.771 16.2227 102.275 16.6314 102.63 17.155C102.985 17.6787 103.176 18.294 103.179 18.9241C103.191 19.3548 103.113 19.7834 102.949 20.183C102.786 20.5826 102.541 20.9447 102.229 21.2465C101.917 21.5484 101.546 21.7835 101.137 21.9373C100.729 22.091 100.293 22.1601 99.8569 22.1401ZM114.519 12.9241C113.691 12.9041 112.868 13.0509 112.099 13.3556C111.331 13.6604 110.634 14.1165 110.051 14.6962C109.468 15.2759 109.011 15.9669 108.708 16.7269C108.405 17.4869 108.262 18.2999 108.289 19.1161C108.259 19.9567 108.41 20.7939 108.729 21.5736C109.049 22.3532 109.532 23.0578 110.146 23.6417C110.759 24.2256 111.491 24.6757 112.292 24.9627C113.094 25.2498 113.948 25.3675 114.798 25.3081C115.798 25.3446 116.792 25.1343 117.688 24.6964C118.585 24.2584 119.356 23.6066 119.933 22.8001L117.5 21.3961C117.179 21.7844 116.771 22.0946 116.309 22.3027C115.847 22.5108 115.343 22.6112 114.835 22.5961C114.098 22.6903 113.351 22.5204 112.73 22.1174C112.11 21.7144 111.656 21.105 111.452 20.4001H120.456C120.532 20.0043 120.572 19.6028 120.578 19.2001C120.626 18.3888 120.505 17.5763 120.222 16.8132C119.938 16.0501 119.499 15.3525 118.931 14.764C118.362 14.1754 117.677 13.7083 116.918 13.3918C116.159 13.0753 115.343 12.9161 114.519 12.9241ZM111.404 18.0001C111.531 17.2915 111.92 16.6544 112.495 16.2113C113.07 15.7683 113.791 15.5506 114.519 15.6001C115.222 15.5744 115.911 15.8047 116.454 16.2472C116.997 16.6897 117.356 17.3136 117.463 18.0001H111.404ZM131.577 14.6281C131.117 14.0723 130.533 13.6292 129.87 13.3336C129.207 13.0379 128.484 12.8978 127.757 12.9241C126.965 12.9549 126.187 13.1398 125.468 13.4682C124.749 13.7965 124.103 14.2617 123.567 14.8372C123.031 15.4127 122.616 16.0869 122.345 16.8213C122.074 17.5556 121.953 18.3355 121.989 19.1161C121.953 19.8967 122.074 20.6766 122.345 21.4109C122.616 22.1453 123.031 22.8196 123.567 23.395C124.103 23.9705 124.749 24.4357 125.468 24.7641C126.187 25.0924 126.965 25.2773 127.757 25.3081C128.493 25.3406 129.226 25.2023 129.898 24.9042C130.57 24.6062 131.162 24.1568 131.626 23.5921V24.9841H134.692V13.2001H131.626L131.577 14.6281ZM128.28 22.4161C127.839 22.4284 127.401 22.3504 126.993 22.1872C126.584 22.0239 126.215 21.779 125.907 21.4678C125.599 21.1565 125.361 20.7858 125.206 20.379C125.051 19.9722 124.983 19.5381 125.007 19.1041C125.007 18.2448 125.353 17.4207 125.969 16.8131C126.585 16.2055 127.421 15.8641 128.292 15.8641C129.163 15.8641 129.999 16.2055 130.615 16.8131C131.231 17.4207 131.577 18.2448 131.577 19.1041C131.601 19.5407 131.532 19.9774 131.376 20.3865C131.22 20.7956 130.979 21.1683 130.669 21.4808C130.359 21.7933 129.987 22.0389 129.575 22.202C129.164 22.365 128.723 22.442 128.28 22.4281V22.4161ZM140.386 15.2161V13.2001H137.32V24.9361H140.386V19.3801C140.364 18.927 140.45 18.475 140.635 18.0599C140.821 17.6448 141.102 17.2779 141.456 16.9881C141.81 16.6984 142.227 16.4937 142.675 16.3903C143.123 16.2869 143.589 16.2875 144.036 16.3921V13.0201C143.264 12.9657 142.494 13.1549 141.838 13.5604C141.182 13.966 140.673 14.5668 140.386 15.2761V15.2161Z" fill="white"/>
</g>
<defs>
<clipPath id="clip0_139_2164">
<rect width="144" height="36" fill="white"/>
</clipPath>
</defs>
</svg>
