<?xml version="1.0" encoding="UTF-8"?>
<!DOCTYPE svg PUBLIC "-//W3C//DTD SVG 1.1//EN" "http://www.w3.org/Graphics/SVG/1.1/DTD/svg11.dtd">
<!-- Creator: CorelDRAW 2020 (64-Bit) -->
<svg xmlns="http://www.w3.org/2000/svg" xml:space="preserve" width="7.1528mm" height="7.1528mm" version="1.1" style="shape-rendering:geometricPrecision; text-rendering:geometricPrecision; image-rendering:optimizeQuality; fill-rule:evenodd; clip-rule:evenodd"
viewBox="0 0 28.58 28.58"
 xmlns:xlink="http://www.w3.org/1999/xlink"
 xmlns:xodm="http://www.corel.com/coreldraw/odm/2003">
 <defs>
  <style type="text/css">
   <![CDATA[
    .str0 {stroke:white;stroke-width:1.2;stroke-linejoin:bevel;stroke-miterlimit:22.9256}
    .fil1 {fill:none}
    .fil0 {fill:white}
   ]]>
  </style>
 </defs>
 <g id="_0">
  <metadata id="CorelCorpID_0Corel-Layer"/>
  <path class="fil0 str0" d="M18.08 14.29c0,-2.1 -1.7,-3.8 -3.8,-3.8 -2.1,0 -3.8,1.7 -3.8,3.8 0,2.1 1.7,3.8 3.8,3.8 2.1,0 3.8,-1.7 3.8,-3.8z"/>
  <path class="fil1 str0" d="M0.69 12.74c-0.12,1.03 -0.12,2.07 0,3.1"/>
  <path class="fil1 str0" d="M3.58 22.81c0.65,0.81 1.38,1.55 2.19,2.19"/>
  <path class="fil1 str0" d="M12.74 27.89c1.03,0.12 2.07,0.12 3.1,0"/>
  <path class="fil1 str0" d="M22.81 25c0.81,-0.65 1.55,-1.38 2.19,-2.19"/>
  <path class="fil1 str0" d="M27.89 15.84c0.12,-1.03 0.12,-2.07 0,-3.1"/>
  <path class="fil1 str0" d="M25 5.77c-0.65,-0.81 -1.38,-1.55 -2.19,-2.19"/>
  <path class="fil1 str0" d="M15.84 0.69c-1.03,-0.12 -2.07,-0.12 -3.1,0"/>
  <path class="fil1 str0" d="M5.77 3.58c-0.81,0.65 -1.55,1.38 -2.19,2.19"/>
  <path class="fil1 str0" d="M5.64 9.96c-0.2,0.41 -0.38,0.83 -0.53,1.27"/>
  <path class="fil1 str0" d="M5.11 17.35c0.15,0.44 0.32,0.86 0.53,1.27"/>
  <path class="fil1 str0" d="M9.96 22.94c0.41,0.2 0.83,0.38 1.27,0.53"/>
  <path class="fil1 str0" d="M17.35 23.47c0.44,-0.15 0.86,-0.32 1.27,-0.53"/>
  <path class="fil1 str0" d="M22.94 18.62c0.21,-0.41 0.38,-0.83 0.53,-1.27"/>
  <path class="fil1 str0" d="M23.47 11.23c-0.14,-0.44 -0.32,-0.86 -0.53,-1.27"/>
  <path class="fil1 str0" d="M18.62 5.64c-0.41,-0.2 -0.83,-0.38 -1.27,-0.53"/>
  <path class="fil1 str0" d="M11.23 5.11c-0.44,0.15 -0.86,0.32 -1.27,0.53"/>
  <path class="fil1 str0" d="M12.74 0.69c-0.78,1.36 -1.29,2.87 -1.51,4.42"/>
  <path class="fil1 str0" d="M3.58 5.77c0.41,1.52 1.11,2.94 2.06,4.19"/>
  <path class="fil1 str0" d="M0.69 15.84c1.36,0.78 2.87,1.29 4.42,1.51"/>
  <path class="fil1 str0" d="M5.77 25c1.52,-0.41 2.94,-1.11 4.19,-2.06"/>
  <path class="fil1 str0" d="M15.84 27.89c0.78,-1.36 1.29,-2.87 1.51,-4.42"/>
  <path class="fil1 str0" d="M25 22.81c-0.41,-1.52 -1.11,-2.94 -2.06,-4.19"/>
  <path class="fil1 str0" d="M27.89 12.74c-1.36,-0.78 -2.87,-1.29 -4.42,-1.51"/>
  <path class="fil1 str0" d="M22.81 3.58c-1.52,0.41 -2.94,1.11 -4.19,2.06"/>
  <path class="fil1 str0" d="M17.35 5.11c-0.22,-1.56 -0.73,-3.06 -1.51,-4.42"/>
  <path class="fil1 str0" d="M22.94 9.96c0.95,-1.25 1.65,-2.68 2.06,-4.19"/>
  <path class="fil1 str0" d="M23.47 17.35c1.56,-0.22 3.06,-0.73 4.42,-1.51"/>
  <path class="fil1 str0" d="M18.62 22.94c1.25,0.95 2.68,1.65 4.19,2.06"/>
  <path class="fil1 str0" d="M11.23 23.47c0.22,1.56 0.73,3.06 1.51,4.42"/>
  <path class="fil1 str0" d="M5.64 18.62c-0.95,1.25 -1.65,2.68 -2.06,4.19"/>
  <path class="fil1 str0" d="M5.11 11.23c-1.56,0.22 -3.06,0.73 -4.42,1.51"/>
  <path class="fil1 str0" d="M9.96 5.64c-1.25,-0.95 -2.68,-1.65 -4.19,-2.06"/>
 </g>
</svg>
