<svg width="111" height="49" viewBox="0 0 111 49" fill="none" xmlns="http://www.w3.org/2000/svg">
<path fill-rule="evenodd" clip-rule="evenodd" d="M21.349 3.74863L21.5217 4.97363C16.0087 16.1089 23.0387 15.2024 23.0387 15.2024L23.9267 15.0431L24.0623 15.3126C37.1233 13.8426 44.2643 20.5924 44.2643 20.5924C45.214 4.61838 21.349 3.74863 21.349 3.74863Z" fill="#F8B829"/>
<path d="M13.1474 41.3684C12.5924 45.0434 15.6141 47.1749 16.0951 45.9989C17.4271 44.2716 17.8957 44.7739 18.5617 42.1769C18.8049 41.8543 19.0865 41.5623 19.4004 41.3071C20.0746 40.6129 20.7242 39.9024 21.3491 39.1756C23.1922 37.1046 24.7667 34.8124 26.0357 32.3524C27.4437 29.8685 27.9571 26.982 27.4911 24.1694C26.9866 22.7465 26.2672 21.4082 25.3574 20.2004C25.0797 19.568 24.953 18.8804 24.9874 18.1914C24.9568 17.1606 24.6457 16.1573 24.0871 15.2881C23.7987 14.9792 23.5793 14.6133 23.4432 14.2143C23.3072 13.8153 23.2576 13.3922 23.2977 12.9729C23.4581 12.0419 23.4581 11.1231 23.5937 10.1921C23.6792 8.45244 23.3584 6.71671 22.6564 5.12061C22.6564 5.12061 21.7931 3.60161 21.0284 3.98136C19.6669 3.12519 18.0846 2.67987 16.4733 2.69944C14.862 2.71901 13.2911 3.20263 11.9511 4.09161C11.9511 4.09161 -5.71025 15.3004 10.2121 36.8359C9.73108 39.6289 11.4454 42.5076 12.7774 44.4186" fill="#005D86"/>
<path d="M21.2751 16.7826L18.8824 5.95359C18.8824 5.95359 17.4764 1.78859 13.7764 7.04384L13.1598 6.23534C9.75577 11.0251 5.1431 16.7703 6.16677 22.9933C6.31566 24.142 6.71503 25.2445 7.33702 26.2241C7.95902 27.2037 8.78866 28.0367 9.7681 28.6651C11.2114 29.6606 12.9588 30.1257 14.7099 29.9804C16.461 29.835 18.1064 29.0884 19.3634 27.8688C21.2874 26.2763 22.8538 23.0423 21.2751 16.7826Z" fill="white"/>
<path fill-rule="evenodd" clip-rule="evenodd" d="M24.0625 15.3494C24.0625 15.3494 35.4832 13.5854 44.2645 20.6292C44.2645 20.6292 36.0012 9.86141 22.8292 11.8582C22.8415 11.8582 21.8918 14.5042 24.0625 15.3494Z" fill="#F19320"/>
<path d="M44.2644 20.6291C44.4965 17.8505 43.7891 15.0744 42.254 12.7401C42.1307 12.5809 41.181 14.6389 41.1687 14.8226C41.1183 15.681 41.3288 16.5346 41.773 17.2726C42.402 18.4241 43.9314 19.3674 44.2397 20.6046" fill="#E95253"/>
<path d="M1.2334 36.1866C2.84769 36.7968 4.60915 36.912 6.29006 36.5174C8.64573 36.8359 9.87906 37.5709 12.6911 37.8894C16.1321 37.8894 19.5484 37.5219 22.9647 37.2034C24.0747 37.1054 26.5414 36.9706 27.4787 37.8404C28.0214 38.3426 27.8611 39.7024 27.8734 40.4129C25.8346 39.6408 23.688 39.1862 21.5094 39.0654C19.0427 39.0654 16.4897 39.1756 13.9861 39.1511C12.2783 39.1561 10.5735 39.0085 8.8924 38.7101C7.32606 38.4161 5.7844 38.0119 4.21806 37.6934C3.0834 37.4484 1.70207 37.2524 1.2334 36.1866Z" fill="#9B5F48"/>
<path d="M23.2238 38.3916C23.2238 38.7836 22.8785 39.6166 22.5578 39.6166C22.2372 39.6166 21.8918 38.7959 21.8918 38.3916V37.0074C21.8918 36.6154 22.1385 36.2234 22.4592 36.2234C22.6531 36.2528 22.8315 36.3461 22.9657 36.4883C23.0999 36.6305 23.1821 36.8133 23.1992 37.0074L23.2238 38.3916Z" fill="#969595"/>
<path d="M21.8917 38.5875C21.8917 38.8938 21.645 39.5308 21.386 39.5308C21.127 39.5308 20.8804 38.8938 20.8804 38.5875V37.4973C20.8804 37.191 21.0654 36.8848 21.3244 36.8848C21.4727 36.9076 21.6082 36.9815 21.7074 37.0934C21.8065 37.2053 21.863 37.3482 21.867 37.4973L21.8917 38.5875Z" fill="#838383"/>
<path d="M9.65698 38.3916C9.65698 38.7836 10.0023 39.6166 10.323 39.6166C10.6436 39.6166 10.989 38.7959 10.989 38.3916V37.0074C10.989 36.6154 10.7423 36.2234 10.4216 36.2234C10.2277 36.2528 10.0493 36.3461 9.91516 36.4883C9.78097 36.6305 9.69874 36.8133 9.68165 37.0074L9.65698 38.3916Z" fill="#969595"/>
<path d="M10.989 38.5875C10.989 38.8938 11.2357 39.5308 11.4947 39.5308C11.7537 39.5308 12.0003 38.8938 12.0003 38.5875V37.4973C12.0003 37.191 11.8153 36.8848 11.5563 36.8848C11.408 36.9076 11.2725 36.9815 11.1733 37.0934C11.0742 37.2053 11.0177 37.3482 11.0137 37.4973L10.989 38.5875Z" fill="#838383"/>
<path d="M23.7911 11.6131C24.0871 10.9149 24.6297 8.74661 23.1251 5.01036C22.8537 4.43461 22.1754 3.09935 20.7324 3.78535C20.5227 4.10385 23.3347 5.8556 22.7551 12.0296C22.7551 12.0296 22.0274 14.6144 24.0624 15.3371C23.7596 14.7015 23.6036 14.0068 23.6061 13.3036C23.563 12.7336 23.6257 12.1606 23.7911 11.6131V11.6131ZM23.6554 11.8581C23.6554 11.8581 23.6554 11.8581 23.6677 11.8581H23.6554Z" fill="#003B55"/>
<path d="M21.3491 9.33457C21.8918 12.2256 20.4365 13.8671 17.5505 13.9038C15.3305 13.9038 12.0991 13.4383 11.7908 10.7433C11.5318 8.40357 13.0241 5.23082 15.4168 4.52032C18.7345 3.51582 20.8311 6.49257 21.3615 9.33457H21.3491Z" fill="#F8B829"/>
<path d="M19.5854 9.12638C19.6993 9.46662 19.7233 9.8302 19.6552 10.1823C19.5871 10.5344 19.4292 10.8633 19.1965 11.1374C18.9638 11.4116 18.6642 11.6218 18.3263 11.748C17.9884 11.8742 17.6236 11.9121 17.2667 11.8581C15.8607 11.8581 13.8997 11.5274 13.7764 9.82463C13.7104 9.05016 13.8933 8.27484 14.2988 7.61012C14.7044 6.94539 15.3116 6.42549 16.0334 6.12513C18.019 5.57388 19.2524 7.35013 19.5484 9.07738L19.5854 9.12638Z" fill="#005D86"/>
<path fill-rule="evenodd" clip-rule="evenodd" d="M18.5001 8.75891C18.5001 9.21538 18.3175 9.65315 17.9926 9.97593C17.6676 10.2987 17.2268 10.48 16.7673 10.48C16.3077 10.48 15.8669 10.2987 15.542 9.97593C15.217 9.65315 15.0344 9.21538 15.0344 8.75891C15.0344 8.30244 15.217 7.86466 15.542 7.54189C15.8669 7.21911 16.3077 7.03778 16.7673 7.03778C17.2268 7.03778 17.6676 7.21911 17.9926 7.54189C18.3175 7.86466 18.5001 8.30244 18.5001 8.75891V8.75891Z" fill="#151410"/>
<path fill-rule="evenodd" clip-rule="evenodd" d="M17.0077 7.66859C17.0077 7.97484 16.7363 7.66859 16.7363 7.66859C16.7363 7.66859 17.0077 7.35009 17.0077 7.66859Z" fill="white"/>
<path fill-rule="evenodd" clip-rule="evenodd" d="M16.0333 7.65631C15.8607 7.65631 15.8237 7.84006 15.799 8.03606C15.7525 8.05365 15.7106 8.08136 15.6763 8.11716C15.642 8.15296 15.6162 8.19595 15.6008 8.24295C15.5854 8.28996 15.5808 8.33979 15.5874 8.38878C15.5939 8.43777 15.6115 8.48469 15.6387 8.52606C15.6387 8.52606 16.4773 7.74206 16.539 7.79106C16.469 7.73454 16.3878 7.69332 16.3007 7.6701C16.2135 7.64688 16.1224 7.64219 16.0333 7.65631V7.65631Z" fill="white"/>
<path d="M43.5983 35.9172C43.6955 35.9149 43.7921 35.9334 43.8815 35.9715C43.9709 36.0095 44.0509 36.0662 44.1163 36.1377L45.5717 37.6812C43.364 40.4742 39.1337 41.0989 35.9023 39.9107C34.296 39.2583 32.925 38.1403 31.9679 36.7025C31.0109 35.2646 30.5124 33.5737 30.5373 31.8502C30.4045 30.1041 30.7951 28.3579 31.6599 26.832C32.5247 25.306 33.8249 24.0684 35.3967 23.2752C37.0187 22.5254 38.8276 22.2684 40.5963 22.5364C42.3649 22.8045 44.0143 23.5857 45.3373 24.7819L44.104 26.4479C43.438 27.4034 42.4143 26.3499 41.7237 26.0192C40.699 25.5501 39.5564 25.3965 38.443 25.5782C37.3002 25.813 36.2711 26.425 35.5231 27.3148C34.7751 28.2045 34.3524 29.3194 34.3237 30.4782C34.1421 31.5762 34.2487 32.7021 34.6333 33.7472C35.0178 34.7922 35.6673 35.7211 36.519 36.4439C37.4922 37.0915 38.6505 37.4081 39.8202 37.3462C40.9899 37.2844 42.1079 36.8474 43.0063 36.1009C43.1774 35.9756 43.3859 35.9109 43.5983 35.9172V35.9172Z" fill="white"/>
<path d="M50.5667 22.1849V40.2414H47.175V22.1849H50.5667Z" fill="white"/>
<path d="M56.8073 27.7586V40.2536H53.4526V27.7586H56.8073Z" fill="white"/>
<path d="M57.2143 24.1327C57.2143 26.7419 53.0457 26.7542 53.0457 24.1327C53.0457 21.5112 57.2143 21.5112 57.2143 24.1327Z" fill="white"/>
<path d="M68.8077 30.5394C68.2774 31.2499 67.7101 30.8089 67.1181 30.5394C66.3883 30.1302 65.5346 29.9954 64.7131 30.1597C63.0111 30.5394 62.5177 32.2667 62.4684 33.8347C62.4191 35.4027 62.7521 37.1912 64.3061 37.8159C64.7021 37.9662 65.1245 38.0361 65.5482 38.0213C65.9718 38.0066 66.3883 37.9076 66.7727 37.7302C67.3771 37.4484 68.2404 36.3827 68.8694 37.2034L69.8314 38.4284C68.9623 39.3428 67.8467 39.9896 66.6177 40.2915C65.3886 40.5934 64.0981 40.5378 62.9001 40.1312C61.7193 39.6594 60.7143 38.8363 60.0232 37.7748C59.332 36.7133 58.9885 35.4653 59.0397 34.2022C58.9246 32.9126 59.2197 31.6196 59.8835 30.5054C60.5473 29.3912 61.5463 28.5119 62.7397 27.9914C63.9136 27.5418 65.1925 27.4356 66.4252 27.6852C67.6579 27.9349 68.7928 28.53 69.6957 29.4002L68.8077 30.5394Z" fill="white"/>
<path d="M74.8634 22.1849V32.4382H75.4184C75.5873 32.4461 75.7553 32.4109 75.9065 32.3358C76.0577 32.2608 76.1869 32.1484 76.2818 32.0094L79.0568 28.3344C79.1846 28.155 79.355 28.0097 79.553 27.9114C79.7509 27.8131 79.9702 27.7648 80.1914 27.7709H83.2624L79.6734 32.3034C79.4085 32.6644 79.0729 32.9686 78.6868 33.1977C79.0501 33.4723 79.3524 33.8184 79.5748 34.2144L83.4598 40.2292H80.4381C80.2141 40.2449 79.9901 40.1996 79.7901 40.0981C79.5902 39.9967 79.4219 39.8429 79.3035 39.6534L76.4668 35.0719C76.3812 34.9134 76.2496 34.7842 76.089 34.7012C75.9283 34.6181 75.7462 34.5851 75.5664 34.6064H74.8634V40.2414H71.5334V22.1849H74.8634Z" fill="white"/>
<path d="M88.1709 22.1849V32.4382H88.726C88.8948 32.4461 89.0628 32.4109 89.214 32.3358C89.3652 32.2607 89.4944 32.1484 89.5893 32.0094L92.3643 28.3344C92.4921 28.155 92.6626 28.0097 92.8605 27.9114C93.0584 27.8131 93.2777 27.7648 93.4989 27.7709H96.57L92.9563 32.3279C92.6913 32.6889 92.3557 32.9931 91.9696 33.2222C92.3329 33.4968 92.6352 33.8429 92.8576 34.2389L96.7426 40.2537H93.7333C93.5093 40.2694 93.2853 40.2241 93.0853 40.1226C92.8853 40.0212 92.7171 39.8674 92.5986 39.6779L89.7743 35.0842C89.6887 34.9257 89.5571 34.7964 89.3965 34.7134C89.2358 34.6304 89.0537 34.5974 88.8739 34.6187H88.1709V40.2537H84.804V22.1849H88.1709Z" fill="white"/>
<path d="M102.983 43.5979C102.897 43.8121 102.744 43.9931 102.546 44.1144C102.349 44.2357 102.117 44.2908 101.886 44.2716H99.419L101.762 39.2001L96.718 27.7096H99.6657C99.8653 27.7006 100.063 27.7535 100.231 27.8611C100.399 27.9687 100.529 28.1255 100.603 28.3099L102.996 34.3001C103.168 34.7738 103.316 35.2475 103.44 35.7211C103.588 35.2434 103.76 34.7656 103.945 34.2879L106.165 28.3221C106.239 28.1428 106.366 27.9897 106.529 27.8827C106.692 27.7757 106.883 27.7196 107.078 27.7219H109.767L102.983 43.5979Z" fill="white"/>
</svg>
