<svg width="161" height="40" viewBox="0 0 161 40" fill="none" xmlns="http://www.w3.org/2000/svg">
<g clip-path="url(#clip0_139_2205)">
<path d="M57.649 24.4367C56.062 24.4367 55.4201 23.31 55.4201 21.3557V15.9508H60.0206V13.891H55.4201V10.4403H53.1912V21.567C53.1912 24.736 54.3145 26.4966 57.1319 26.4966C58.5228 26.4966 59.664 26.0036 60.3416 25.4579L59.6461 23.7501C59.1825 24.067 58.5228 24.4367 57.649 24.4367ZM67.2602 13.6093C65.691 13.6093 64.1932 14.0494 63.0698 14.736L63.6582 16.4966C64.6568 15.9684 65.584 15.5811 67.1175 15.5811C69.5961 15.5811 69.9705 17.1832 69.9705 19.4896C69.1325 18.891 67.8308 18.6973 66.85 18.6973C64.1397 18.6973 62.1069 20.1058 62.1069 22.641C62.1069 25.0353 63.676 26.4614 65.9585 26.4614C68.0269 26.4614 69.2216 25.6163 69.9705 24.6656V26.2677H72.0747V18.6621C72.0747 15.4579 70.8265 13.6093 67.2602 13.6093ZM69.9527 22.8874C69.3108 23.6269 68.3657 24.4896 66.7252 24.4896C65.2809 24.4896 64.4606 23.7149 64.4606 22.5353C64.4606 21.1093 65.798 20.4931 67.1353 20.4931C68.2231 20.4931 69.1681 20.7748 69.9527 21.3205V22.8874ZM82.1137 13.6093C80.3841 13.6093 78.7079 14.3487 77.852 15.3522V13.891H75.6231V31.7959H77.852V25.7043C78.7436 26.2853 80.0631 26.5494 81.4005 26.5494C85.3412 26.5494 87.9268 23.6621 87.9268 19.8769C87.909 16.2325 85.68 13.6093 82.1137 13.6093ZM81.1865 24.4896C79.9918 24.4896 78.9576 24.2607 77.8342 23.5212V17.3769C78.6188 16.4086 79.974 15.6691 81.454 15.6691C84.0395 15.6691 85.5196 17.4649 85.5196 19.9649C85.5374 22.5881 83.8612 24.4896 81.1865 24.4896ZM102.228 13.6269L98.5543 14.5072C97.6984 13.9262 96.6107 13.5917 95.3803 13.5917C92.2242 13.5917 90.2449 15.6515 90.2449 18.1339C90.2449 19.9473 91.2791 21.4966 93.0623 22.2008C92.8304 22.4825 92.7234 22.8698 92.7234 23.2396C92.7234 23.5917 92.8126 23.979 93.0266 24.2607C90.6193 24.7536 89.0145 26.0212 89.0145 28.0283C89.0145 30.7219 91.7427 31.9719 95.3982 31.9719C99.0536 31.9719 101.782 30.6691 101.782 28.0283C101.782 25.3346 99.0536 24.0318 95.3982 24.0318C95.1485 24.0318 94.8989 24.067 94.6492 24.067C94.4888 23.8381 94.3996 23.5388 94.3996 23.2396C94.3996 23.0107 94.4353 22.7642 94.5423 22.5529C94.8276 22.5881 95.095 22.5881 95.3803 22.5881C98.483 22.5881 100.516 20.5987 100.516 18.1339C100.516 17.3593 100.32 16.6198 99.9274 15.986L102.299 15.405L102.228 13.6269ZM95.3982 25.8628C98.0729 25.8628 99.6955 26.6903 99.6955 28.0635C99.6955 29.4719 98.0016 30.2114 95.3982 30.2114C92.8126 30.2114 91.1008 29.4367 91.1008 28.0635C91.1008 26.6903 92.7234 25.8628 95.3982 25.8628ZM95.3803 20.8276C93.5437 20.8276 92.349 19.7008 92.349 18.1515C92.349 16.6022 93.5437 15.405 95.3803 15.405C97.2526 15.405 98.4117 16.6198 98.4117 18.1515C98.4117 19.7536 97.1278 20.8276 95.3803 20.8276ZM109.806 13.6093C105.687 13.6093 103.333 16.479 103.333 20.0881C103.333 23.9966 105.99 26.567 110.056 26.567C111.732 26.567 113.551 26.0388 114.763 24.9473L114.068 23.2043C113.265 23.9438 111.839 24.5072 110.216 24.5072C107.755 24.5072 106.026 23.1339 105.83 20.7924H115.476C115.566 20.405 115.619 19.9121 115.619 19.3135C115.619 15.8628 113.033 13.6093 109.806 13.6093ZM105.705 18.979C105.954 17.0776 107.399 15.6691 109.699 15.6691C111.874 15.6691 113.212 16.9367 113.319 18.979H105.705ZM120.719 15.3346V13.8734H118.49V26.2677H120.719V17.4825C121.2 16.567 121.896 15.7219 123.34 15.7219C124.089 15.7219 124.428 15.8276 125.034 16.1973L125.819 14.1374C125.408 13.8381 124.891 13.6621 123.875 13.6621C122.27 13.6621 121.361 14.4015 120.719 15.3346ZM128.19 26.2677H130.419V13.8734H128.19V26.2677ZM129.367 7.90504C128.582 7.90504 127.923 8.43321 127.923 9.22547C127.923 10.141 128.6 10.6515 129.367 10.6515C130.062 10.6515 130.74 10.1234 130.74 9.22547C130.722 8.43321 130.062 7.90504 129.367 7.90504ZM140.726 13.6621C139.085 13.6621 137.498 14.4543 136.624 15.405V13.891H134.396V26.2853H136.624V17.3417C137.427 16.4262 138.746 15.7396 140.173 15.7396C142.509 15.7396 143.721 16.9543 143.721 19.5424V26.2853H145.95V19.1198C145.95 15.229 143.989 13.6621 140.726 13.6621ZM161 19.2783C161 15.8628 158.414 13.6093 155.169 13.6093C151.05 13.6093 148.696 16.479 148.696 20.0881C148.696 23.9966 151.353 26.567 155.419 26.567C157.095 26.567 158.914 26.0388 160.126 24.9473L159.431 23.2043C158.628 23.9438 157.202 24.5072 155.579 24.5072C153.119 24.5072 151.389 23.1339 151.193 20.7924H160.84C160.947 20.3874 161 19.8945 161 19.2783ZM151.068 18.979C151.318 17.0776 152.762 15.6691 155.062 15.6691C157.238 15.6691 158.575 16.9367 158.682 18.979H151.068Z" fill="white"/>
<path d="M40.4239 18.9261C40.4239 18.8908 40.4239 18.838 40.406 18.8028C40.2634 16.4261 39.7106 14.1725 38.8012 12.0775C36.7862 23.4331 26.7293 32.0423 14.6396 32.0423C9.91428 32.0423 5.49208 30.7218 1.74748 28.4331C1.94363 28.8556 2.1576 29.2782 2.38941 29.6831C2.38941 29.6831 2.38941 29.6831 2.38941 29.7007C2.62122 30.088 2.85303 30.4754 3.10267 30.8627C3.1205 30.8803 3.1205 30.8979 3.13833 30.9155C3.63761 31.6725 4.19039 32.3768 4.77882 33.0634C4.81449 33.0986 4.83232 33.1338 4.86798 33.169C5.45642 33.838 6.09835 34.4542 6.75811 35.0352C6.81161 35.0704 6.84727 35.1056 6.90076 35.1585C7.56053 35.7218 8.27378 36.25 9.00487 36.7254C9.05837 36.7606 9.12969 36.7958 9.20102 36.8486C9.53982 37.0599 9.87861 37.2711 10.2352 37.4648C10.2709 37.4824 10.3066 37.5 10.3422 37.5352C10.7167 37.7465 11.109 37.9401 11.5013 38.1162C11.5726 38.1514 11.6439 38.1866 11.7153 38.2218C12.054 38.3803 12.3928 38.5211 12.7495 38.6444C12.8208 38.6796 12.91 38.6972 12.9813 38.7324C13.3914 38.8732 13.8015 39.0141 14.2117 39.1373C14.283 39.1549 14.3543 39.1725 14.4435 39.2077C14.8001 39.3134 15.1567 39.4014 15.5133 39.4894C15.6203 39.507 15.7095 39.5423 15.8165 39.5599C16.2444 39.6479 16.6724 39.7359 17.1003 39.7887C17.1538 39.7887 17.2073 39.8063 17.2787 39.8063C17.6709 39.8592 18.0454 39.8944 18.4377 39.9296C18.5625 39.9472 18.6695 39.9472 18.7943 39.9472C19.2401 39.9824 19.6859 40 20.1495 40C31.3655 40 40.4595 31.0563 40.4595 20.0176C40.4417 19.6127 40.4417 19.2782 40.4239 18.9261ZM35.4489 6.84859C34.2185 5.45775 32.7742 4.22535 31.1872 3.20423C27.7814 7.32394 22.5746 9.96479 16.7437 9.96479C12.482 9.96479 8.55909 8.55634 5.42076 6.17958C2.53206 9.20775 0.570606 13.081 0 17.412C3.79809 19.8239 8.30945 21.2148 13.1596 21.2148C23.1274 21.2148 31.7043 15.3169 35.4489 6.84859ZM27.6031 1.39085C25.285 0.492958 22.7707 0 20.1317 0C17.136 0 14.283 0.651408 11.7331 1.79577C14.0512 2.51761 16.5119 2.92254 19.0796 2.92254C22.0753 2.90493 24.9462 2.35915 27.6031 1.39085Z" fill="white"/>
</g>
<defs>
<clipPath id="clip0_139_2205">
<rect width="161" height="40" fill="white"/>
</clipPath>
</defs>
</svg>
