<svg width="76" height="5" viewBox="0 0 76 5" fill="none" xmlns="http://www.w3.org/2000/svg">
<path d="M5.17563 2.54555C5.17563 1.98985 4.98495 1.52132 4.60903 1.13451C4.23312 0.747703 3.77549 0.557022 3.24158 0.557022C2.7567 0.557022 2.33721 0.709567 1.98308 1.0201C1.63441 1.32519 1.41649 1.69566 1.33477 2.13695H0.817205V0.638742H0V4.45236H0.817205V2.89967H1.33477C1.41649 3.36276 1.63441 3.75501 1.98308 4.06555C2.33176 4.37609 2.75126 4.53408 3.24158 4.53408C3.77549 4.53408 4.23312 4.3434 4.60903 3.95659C4.98495 3.57523 5.17563 3.10125 5.17563 2.54555ZM4.35842 2.54555C4.35842 2.90512 4.24946 3.20476 4.03154 3.43903C3.80817 3.67874 3.54667 3.7986 3.24158 3.7986C2.93649 3.7986 2.67498 3.67874 2.45706 3.43903C2.23369 3.20476 2.12473 2.90512 2.12473 2.54555C2.12473 2.18598 2.23369 1.88634 2.45706 1.64663C2.67498 1.41236 2.93649 1.29251 3.24158 1.29251C3.54667 1.29251 3.80817 1.41236 4.03154 1.64663C4.24946 1.88634 4.35842 2.18598 4.35842 2.54555Z" fill="#46466E"/>
<path d="M6.47998 0.638962V4.45258H7.29718V3.19953H8.08715C8.47941 3.19953 8.80629 3.07423 9.06235 2.82907C9.3184 2.58391 9.44916 2.27882 9.44916 1.91925C9.44916 1.55423 9.3184 1.25459 9.06235 1.00398C8.80084 0.758818 8.47941 0.638962 8.08715 0.638962H6.47998ZM8.05991 1.37445C8.22335 1.37445 8.35955 1.42893 8.46851 1.53244C8.57747 1.63595 8.63195 1.7667 8.63195 1.91925C8.63195 2.07179 8.57747 2.20255 8.46851 2.30606C8.35955 2.40957 8.22335 2.46405 8.05991 2.46405H7.29718V1.37445H8.05991Z" fill="#46466E"/>
<path d="M14.1311 4.45258V0.638962H13.4229L11.5433 3.06333V0.638962H10.7261V4.45258H11.4343L13.3139 2.02821V4.45258H14.1311Z" fill="#46466E"/>
<path d="M15.1621 3.7171V5.24254H15.9793V4.45258H18.2675V5.24254H19.0847V3.7171H18.6216V0.638962H15.9793V1.81029C15.9793 2.06634 15.9575 2.30606 15.9139 2.52943C15.8704 2.75824 15.8213 2.93803 15.7723 3.07423C15.7178 3.20498 15.6579 3.32484 15.5871 3.43925C15.5162 3.54821 15.4726 3.61903 15.4454 3.65172C15.4127 3.67896 15.3964 3.7062 15.38 3.7171H15.1621ZM16.7965 1.81029V1.37445H17.8044V3.7171H16.1972L16.2626 3.65172C16.3007 3.60814 16.3498 3.53731 16.4097 3.4338C16.4696 3.33029 16.5241 3.21043 16.584 3.07423C16.644 2.93803 16.693 2.7528 16.7311 2.52943C16.7747 2.30606 16.7965 2.06634 16.7965 1.81029Z" fill="#46466E"/>
<path d="M23.6555 4.45258V0.638962H22.9473L21.0677 3.06333V0.638962H20.2505V4.45258H20.9587L22.8383 2.02821V4.45258H23.6555Z" fill="#46466E"/>
<path d="M25.9407 0.638962H25.1235V1.81029C25.1235 2.26792 25.2434 2.62204 25.4831 2.87265C25.7283 3.12871 26.0606 3.25402 26.4855 3.25402C26.8506 3.25402 27.1502 3.18319 27.3845 3.03609V4.45258H28.2017V0.638962H27.3845V2.24613L27.2919 2.31695C27.2319 2.36054 27.1393 2.40412 27.014 2.45316C26.8887 2.49674 26.7579 2.51853 26.6217 2.51853C26.4038 2.51853 26.2349 2.4586 26.1151 2.33875C26.0007 2.21344 25.9407 2.0391 25.9407 1.81029V0.638962Z" fill="#46466E"/>
<path d="M32.9929 0.638962H32.1757V2.16441H30.5413V0.638962H29.7241V4.45258H30.5413V2.89989H32.1757V4.45258H32.9929V0.638962Z" fill="#46466E"/>
<path d="M36.4772 2.84541H35.551L36.0141 1.59237L36.4772 2.84541ZM36.7496 3.55366L37.0765 4.45258H37.9482L36.45 0.638962H35.5783L34.0801 4.45258H34.9518L35.2786 3.55366H36.7496Z" fill="#46466E"/>
<path d="M41.5111 0.638962H40.6938V4.45258H41.5111V3.36298L42.0014 2.81817L43.1182 4.45258H44.0716L42.5462 2.21889L43.9627 0.638962H43.0093L41.5111 2.30061V0.638962Z" fill="#46466E"/>
<path d="M45.7307 2.54556C45.7307 2.19689 45.8505 1.89725 46.0902 1.65753C46.3245 1.41237 46.6133 1.29251 46.9565 1.29251C47.2997 1.29251 47.5885 1.41237 47.8227 1.65753C48.0624 1.89725 48.1823 2.19689 48.1823 2.54556C48.1823 2.89968 48.0624 3.19388 47.8227 3.43359C47.5885 3.67875 47.2997 3.79861 46.9565 3.79861C46.6133 3.79861 46.3245 3.67875 46.0902 3.43359C45.8505 3.19388 45.7307 2.89968 45.7307 2.54556ZM44.8862 2.54556C44.8862 3.09036 45.0878 3.56434 45.4855 3.95115C45.8832 4.33796 46.3735 4.53409 46.9565 4.53409C47.5394 4.53409 48.0297 4.33796 48.4275 3.95115C48.8252 3.56434 49.0267 3.09036 49.0267 2.54556C49.0267 1.99531 48.8252 1.52678 48.4275 1.13997C48.0297 0.753159 47.5394 0.55703 46.9565 0.55703C46.3735 0.55703 45.8832 0.753159 45.4855 1.13997C45.0878 1.52678 44.8862 1.99531 44.8862 2.54556Z" fill="#46466E"/>
<path d="M52.3741 2.30061L51.0665 0.638962H50.3311V4.45258H51.1483V1.91925L52.3741 3.47194L53.5999 1.90835V4.45258H54.4171V0.638962H53.6925L52.3741 2.30061Z" fill="#46466E"/>
<path d="M59.1796 0.638962H55.938V4.45258H56.7552V1.37445H58.3624V4.45258H59.1796V0.638962Z" fill="#46466E"/>
<path d="M62.6647 2.84541H61.7385L62.2016 1.59237L62.6647 2.84541ZM62.9371 3.55366L63.264 4.45258H64.1357L62.6375 0.638962H61.7658L60.2676 4.45258H61.1393L61.4661 3.55366H62.9371Z" fill="#46466E"/>
<path d="M68.4915 0.638962H67.6743V2.16441H66.0399V0.638962H65.2227V4.45258H66.0399V2.89989H67.6743V4.45258H68.4915V0.638962Z" fill="#46466E"/>
<path d="M70.8309 0.638962H70.0137V4.45258H70.8309V0.638962Z" fill="#46466E"/>
<path d="M75.1863 0.638962H73.4974C73.1161 0.638962 72.8055 0.758818 72.5604 0.998532C72.3152 1.23824 72.1899 1.53789 72.1899 1.89201C72.1899 2.04455 72.2172 2.1862 72.2607 2.3224C72.3098 2.4586 72.3642 2.56212 72.4296 2.63839C72.4896 2.71466 72.5549 2.78548 72.6367 2.85086C72.7129 2.91624 72.7674 2.95982 72.8001 2.97617C72.8273 2.98706 72.8546 3.00341 72.8709 3.00885L72.0537 4.45258H72.9254L73.6609 3.11781H74.3691V4.45258H75.1863V0.638962ZM73.0071 1.89201C73.0071 1.73946 73.0561 1.61961 73.1542 1.52154C73.2523 1.42348 73.3776 1.37445 73.5247 1.37445H74.3691V2.38233H73.5247C73.3776 2.38233 73.2523 2.3333 73.1542 2.24068C73.0561 2.14807 73.0071 2.02821 73.0071 1.89201Z" fill="#46466E"/>
</svg>
