<svg width="444" height="63" viewBox="0 0 444 63" fill="none" xmlns="http://www.w3.org/2000/svg">
<g clip-path="url(#clip0_90_6811)">
<path d="M10.3513 58.0912C10.3513 56.9798 9.9699 56.0428 9.21807 55.2691C8.46624 54.4955 7.55097 54.1142 6.48316 54.1142C5.51341 54.1142 4.67441 54.4192 3.96617 55.0403C3.26882 55.6505 2.83298 56.3914 2.66953 57.274H1.63441V54.2776H0V61.9048H1.63441V58.7995H2.66953C2.83298 59.7256 3.26882 60.5101 3.96617 61.1312C4.66351 61.7523 5.50251 62.0683 6.48316 62.0683C7.55097 62.0683 8.46624 61.6869 9.21807 60.9133C9.9699 60.1506 10.3513 59.2026 10.3513 58.0912ZM8.71685 58.0912C8.71685 58.8104 8.49893 59.4096 8.06309 59.8782C7.61635 60.3576 7.09334 60.5973 6.48316 60.5973C5.87298 60.5973 5.34997 60.3576 4.91412 59.8782C4.46739 59.4096 4.24946 58.8104 4.24946 58.0912C4.24946 57.3721 4.46739 56.7728 4.91412 56.2934C5.34997 55.8248 5.87298 55.5851 6.48316 55.5851C7.09334 55.5851 7.61635 55.8248 8.06309 56.2934C8.49893 56.7728 8.71685 57.3721 8.71685 58.0912Z" fill="#46466E"/>
<path d="M12.9604 54.2781V61.9054H14.5949V59.3993H16.1748C16.9593 59.3993 17.6131 59.1487 18.1252 58.6583C18.6373 58.168 18.8988 57.5578 18.8988 56.8387C18.8988 56.1087 18.6373 55.5094 18.1252 55.0082C17.6022 54.5178 16.9593 54.2781 16.1748 54.2781H12.9604ZM16.1203 55.7491C16.4472 55.7491 16.7196 55.858 16.9375 56.0651C17.1554 56.2721 17.2644 56.5336 17.2644 56.8387C17.2644 57.1438 17.1554 57.4053 16.9375 57.6123C16.7196 57.8193 16.4472 57.9283 16.1203 57.9283H14.5949V55.7491H16.1203Z" fill="#46466E"/>
<path d="M28.2617 61.9054V54.2781H26.8452L23.0861 59.1269V54.2781H21.4517V61.9054H22.8681L26.6273 57.0566V61.9054H28.2617Z" fill="#46466E"/>
<path d="M30.3247 60.4344V63.4853H31.9591V61.9054H36.5355V63.4853H38.1699V60.4344H37.2437V54.2781H31.9591V56.6208C31.9591 57.1329 31.9155 57.6123 31.8284 58.0591C31.7412 58.5167 31.6431 58.8763 31.5451 59.1487C31.4361 59.4102 31.3162 59.6499 31.1746 59.8787C31.033 60.0966 30.9458 60.2383 30.8913 60.3036C30.8259 60.3581 30.7932 60.4126 30.7605 60.4344H30.3247ZM33.5935 56.6208V55.7491H35.6093V60.4344H32.395L32.5257 60.3036C32.602 60.2165 32.7 60.0748 32.8199 59.8678C32.9398 59.6608 33.0487 59.4211 33.1686 59.1487C33.2884 58.8763 33.3865 58.5058 33.4628 58.0591C33.5499 57.6123 33.5935 57.1329 33.5935 56.6208Z" fill="#46466E"/>
<path d="M47.3115 61.9054V54.2781H45.895L42.1359 59.1269V54.2781H40.5015V61.9054H41.918L45.6771 57.0566V61.9054H47.3115Z" fill="#46466E"/>
<path d="M51.8815 54.2781H50.2471V56.6208C50.2471 57.536 50.4868 58.2443 50.9662 58.7455C51.4565 59.2576 52.1212 59.5082 52.9711 59.5082C53.7011 59.5082 54.3004 59.3666 54.7689 59.0724V61.9054H56.4033V54.2781H54.7689V57.4925L54.5837 57.6341C54.4638 57.7213 54.2786 57.8084 54.028 57.9065C53.7774 57.9937 53.5159 58.0373 53.2435 58.0373C52.8076 58.0373 52.4699 57.9174 52.2302 57.6777C52.0013 57.4271 51.8815 57.0784 51.8815 56.6208V54.2781Z" fill="#46466E"/>
<path d="M65.9859 54.2781H64.3515V57.329H61.0827V54.2781H59.4482V61.9054H61.0827V58.8H64.3515V61.9054H65.9859V54.2781Z" fill="#46466E"/>
<path d="M72.9549 58.691H71.1026L72.0288 56.1849L72.9549 58.691ZM73.4997 60.1075L74.1535 61.9054H75.8969L72.9004 54.2781H71.1571L68.1606 61.9054H69.904L70.5578 60.1075H73.4997Z" fill="#46466E"/>
<path d="M83.0221 54.2781H81.3877V61.9054H83.0221V59.7262L84.0027 58.6365L86.2364 61.9054H88.1432L85.0924 57.438L87.9253 54.2781H86.0185L83.0221 57.6014V54.2781Z" fill="#46466E"/>
<path d="M91.4614 58.0912C91.4614 57.3939 91.7011 56.7946 92.1805 56.3152C92.649 55.8248 93.2265 55.5851 93.913 55.5851C94.5994 55.5851 95.1769 55.8248 95.6454 56.3152C96.1249 56.7946 96.3646 57.3939 96.3646 58.0912C96.3646 58.7995 96.1249 59.3879 95.6454 59.8673C95.1769 60.3576 94.5994 60.5973 93.913 60.5973C93.2265 60.5973 92.649 60.3576 92.1805 59.8673C91.7011 59.3879 91.4614 58.7995 91.4614 58.0912ZM89.7725 58.0912C89.7725 59.1808 90.1756 60.1288 90.971 60.9024C91.7664 61.676 92.7471 62.0683 93.913 62.0683C95.0788 62.0683 96.0595 61.676 96.8549 60.9024C97.6503 60.1288 98.0535 59.1808 98.0535 58.0912C98.0535 56.9907 97.6503 56.0537 96.8549 55.28C96.0595 54.5064 95.0788 54.1142 93.913 54.1142C92.7471 54.1142 91.7664 54.5064 90.971 55.28C90.1756 56.0537 89.7725 56.9907 89.7725 58.0912Z" fill="#46466E"/>
<path d="M104.749 57.6014L102.134 54.2781H100.663V61.9054H102.297V56.8387L104.749 59.9441L107.2 56.8169V61.9054H108.835V54.2781H107.385L104.749 57.6014Z" fill="#46466E"/>
<path d="M118.36 54.2781H111.876V61.9054H113.511V55.7491H116.725V61.9054H118.36V54.2781Z" fill="#46466E"/>
<path d="M125.33 58.691H123.478L124.404 56.1849L125.33 58.691ZM125.875 60.1075L126.528 61.9054H128.272L125.275 54.2781H123.532L120.536 61.9054H122.279L122.933 60.1075H125.875Z" fill="#46466E"/>
<path d="M136.983 54.2781H135.349V57.329H132.08V54.2781H130.445V61.9054H132.08V58.8H135.349V61.9054H136.983V54.2781Z" fill="#46466E"/>
<path d="M141.662 54.2781H140.027V61.9054H141.662V54.2781Z" fill="#46466E"/>
<path d="M150.373 54.2781H146.995C146.232 54.2781 145.611 54.5178 145.121 54.9973C144.63 55.4767 144.38 56.076 144.38 56.7842C144.38 57.0893 144.434 57.3726 144.521 57.645C144.62 57.9174 144.728 58.1244 144.859 58.277C144.979 58.4295 145.11 58.5712 145.273 58.7019C145.426 58.8327 145.535 58.9198 145.6 58.9525C145.655 58.9743 145.709 59.007 145.742 59.0179L144.107 61.9054H145.851L147.322 59.2358H148.738V61.9054H150.373V54.2781ZM146.014 56.7842C146.014 56.4791 146.112 56.2394 146.308 56.0433C146.505 55.8472 146.755 55.7491 147.049 55.7491H148.738V57.7649H147.049C146.755 57.7649 146.505 57.6668 146.308 57.4816C146.112 57.2963 146.014 57.0566 146.014 56.7842Z" fill="#46466E"/>
<path d="M4.98113 1.00008H0V36.975H4.98113V23.6286C4.98113 21.3708 5.54273 19.5896 6.66593 18.3353C7.78912 17.0809 9.32741 16.4286 11.232 16.4286C12.8679 16.4286 14.2353 17.0307 15.3341 18.1847C16.4329 19.3638 16.9945 20.844 16.9945 22.6252V37.0001H22V22.6252C22 19.3137 21.0966 16.7046 19.2897 14.7478C17.4828 12.791 15.1143 11.8126 12.2331 11.8126C11.4029 11.8126 10.5727 11.913 9.76693 12.1388C8.93674 12.3645 8.27747 12.6154 7.74029 12.8914C7.20311 13.1673 6.69034 13.4684 6.22641 13.8196C5.76249 14.1708 5.44506 14.4217 5.29856 14.5722C5.15205 14.7227 5.02997 14.8231 4.98113 14.8983V1.00008Z" fill="#F0145A"/>
<path d="M33.135 1H28V36.945H33.135V1Z" fill="#323264"/>
<path d="M63.422 26.4178L63.6788 23.8503C63.6788 20.4098 62.5491 17.5342 60.2383 15.2235C57.9276 12.9127 55.052 11.783 51.6115 11.783C48.1711 11.783 45.1928 13.0154 42.728 15.4802C40.2632 17.945 39.0308 20.872 39.0308 24.3638C39.0308 27.9583 40.3145 31.0393 42.8307 33.6068C45.3468 36.1743 48.3765 37.4581 51.8683 37.4581C53.2034 37.4581 54.4358 37.2527 55.6682 36.8932C56.9006 36.4824 57.9276 36.0716 58.6465 35.6608C59.4167 35.1987 60.187 34.6852 60.8545 34.1203C61.5221 33.5555 61.9842 33.1447 62.1896 32.8879C62.395 32.6312 62.5491 32.4771 62.6518 32.3231L59.314 28.9853L58.5438 29.961C58.0303 30.5772 57.1573 31.1934 55.9249 31.8609C54.6412 32.5285 53.3061 32.8366 51.8683 32.8366C49.8656 32.8366 48.1711 32.2204 46.7333 30.9366C45.2955 29.6529 44.4225 28.1637 44.1658 26.4178H63.422ZM51.6115 16.1478C53.5115 16.1478 55.052 16.7126 56.3357 17.791C57.5681 18.9207 58.3384 20.3071 58.6465 22.053H44.3712C44.8333 20.3071 45.6549 18.9207 46.9387 17.791C48.1711 16.7126 49.7629 16.1478 51.6115 16.1478Z" fill="#323264"/>
<path d="M87.3711 35.4554C87.3711 37.7148 86.7035 39.5634 85.3171 41.0012C83.982 42.3877 82.2874 43.1066 80.1821 43.1066C79.2578 43.1066 78.3335 42.9525 77.4605 42.6958C76.5876 42.439 75.92 42.1309 75.3552 41.7715C74.7903 41.412 74.2768 41.0526 73.7633 40.5904C73.3012 40.1283 72.9931 39.8202 72.839 39.6661C72.685 39.5121 72.5823 39.358 72.4796 39.2553L69.1418 42.5931L69.5526 43.1066C69.8094 43.466 70.2715 43.9282 70.8877 44.4417C71.5039 44.9038 72.2228 45.4173 73.0444 45.9308C73.866 46.393 74.893 46.8038 76.1768 47.1632C77.4605 47.5227 78.7956 47.7281 80.1821 47.7281C83.6739 47.7281 86.5495 46.547 88.9629 44.1849C91.325 41.7715 92.5061 38.8959 92.5061 35.404V12.2965H87.3711V14.864L86.4981 14.0938C85.9333 13.5803 85.0603 13.0668 83.8279 12.5533C82.5955 12.0398 81.2604 11.783 79.9253 11.783C76.793 11.783 74.1228 12.9641 71.812 15.3775C69.5013 17.791 68.3716 20.6666 68.3716 24.107C68.3716 27.5475 69.5013 30.4231 71.812 32.8365C74.1228 35.25 76.793 36.4311 79.9253 36.4311C80.7983 36.4311 81.6199 36.3283 82.4928 36.1229C83.3144 35.8662 83.982 35.6094 84.5468 35.3527C85.1117 35.0959 85.6252 34.7878 86.0873 34.4284C86.5495 34.0689 86.9089 33.8122 87.0116 33.7095L87.3711 33.35V35.4554ZM73.5066 24.107C73.5066 21.9503 74.1741 20.1531 75.5606 18.6639C76.947 17.1748 78.5902 16.4045 80.4388 16.4045C82.2874 16.4045 83.9306 17.1748 85.3171 18.6639C86.6522 20.1531 87.3711 21.9503 87.3711 24.107C87.3711 26.2637 86.6522 28.061 85.3171 29.5501C83.9306 31.0393 82.2874 31.8095 80.4388 31.8095C78.5902 31.8095 76.947 31.0393 75.5606 29.5501C74.1741 28.061 73.5066 26.2637 73.5066 24.107Z" fill="#323264"/>
<path d="M119.309 36.9446V21.026C119.309 18.4072 118.333 16.1991 116.433 14.4532C114.533 12.656 112.068 11.783 109.039 11.783C107.858 11.783 106.677 11.9371 105.547 12.2452C104.417 12.6046 103.493 12.9641 102.825 13.3749C102.158 13.7857 101.49 14.2478 100.874 14.8127C100.258 15.3262 99.8985 15.6856 99.6931 15.891C99.539 16.0964 99.385 16.2505 99.2823 16.4045L102.62 19.7423L103.288 18.8693C103.698 18.3045 104.417 17.791 105.496 17.2261C106.574 16.6613 107.755 16.4045 109.039 16.4045C110.528 16.4045 111.76 16.8667 112.736 17.7396C113.712 18.6126 114.174 19.7423 114.174 21.026L105.188 22.5665C102.979 22.926 101.182 23.7989 99.9498 25.1854C98.6661 26.5719 97.9985 28.2664 97.9985 30.2691C97.9985 32.169 98.8201 33.8122 100.463 35.25C102.158 36.7392 104.212 37.4581 106.728 37.4581C107.601 37.4581 108.423 37.3554 109.244 37.0986C110.117 36.8932 110.785 36.6365 111.35 36.3797C111.914 36.123 112.428 35.8149 112.89 35.4554C113.352 35.096 113.66 34.8392 113.866 34.7365C114.02 34.5825 114.122 34.4284 114.174 34.3771V36.9446H119.309ZM107.498 32.8366C106.163 32.8366 105.085 32.5285 104.315 31.9123C103.493 31.2961 103.134 30.5772 103.134 29.7556C103.134 28.8826 103.39 28.1124 103.955 27.5475C104.52 26.9827 105.29 26.5719 106.215 26.4178L114.174 25.134V25.6475C114.174 27.9583 113.609 29.7042 112.428 30.988C111.247 32.2204 109.604 32.8366 107.498 32.8366Z" fill="#323264"/>
<path d="M130.64 0.999992H125.505V36.945H130.64V0.999992Z" fill="#323264"/>
<path d="M153.989 15.1208L153.681 14.7613C153.475 14.5559 153.167 14.2992 152.705 13.9397C152.243 13.5803 151.729 13.2722 151.164 12.9127C150.6 12.6046 149.829 12.3479 148.905 12.0911C147.981 11.8857 147.005 11.783 146.029 11.783C143.513 11.783 141.459 12.5019 139.816 13.9397C138.122 15.4289 137.3 17.0721 137.3 18.972C137.3 20.3585 137.608 21.4882 138.224 22.5152C138.84 23.4908 139.611 24.2097 140.586 24.6205C141.511 25.0827 142.538 25.5448 143.616 25.9043C144.694 26.2638 145.67 26.5719 146.646 26.8286C147.57 27.1367 148.34 27.4962 148.956 27.9583C149.573 28.4205 149.881 29.0367 149.881 29.7556C149.881 30.6799 149.521 31.4501 148.854 32.015C148.186 32.5285 147.159 32.8366 145.773 32.8366C144.643 32.8366 143.513 32.5285 142.435 32.015C141.357 31.4501 140.689 30.988 140.33 30.6285C140.022 30.2691 139.765 29.961 139.611 29.7556L136.273 33.0933L136.632 33.5555C136.889 33.8636 137.249 34.223 137.762 34.6338C138.327 35.096 138.943 35.5068 139.611 35.9176C140.33 36.3284 141.254 36.6878 142.332 36.9959C143.411 37.304 144.592 37.4581 145.773 37.4581C148.494 37.4581 150.754 36.6878 152.448 35.1987C154.143 33.7095 155.016 31.8609 155.016 29.7556C155.016 28.3691 154.708 27.1881 154.091 26.2638C153.475 25.2881 152.705 24.5692 151.729 24.107C150.805 23.5935 149.778 23.1827 148.7 22.8233C147.621 22.4638 146.646 22.1044 145.67 21.899C144.746 21.6422 143.975 21.2314 143.359 20.7693C142.743 20.3071 142.435 19.6909 142.435 18.972C142.435 18.3045 142.743 17.6883 143.411 17.1748C144.027 16.6613 144.9 16.4045 146.029 16.4045C146.851 16.4045 147.673 16.6099 148.443 16.9694C149.265 17.3288 149.829 17.6369 150.086 17.8937C150.343 18.1504 150.548 18.3558 150.651 18.4585L153.989 15.1208Z" fill="#323264"/>
<path d="M196.957 37H199.629V18.7607H183.857V37H186.511V21.2656H196.957V37ZM209.704 39.6533C209.018 41.5645 207.867 42.5107 206.253 42.5107C205.622 42.5107 204.991 42.3809 204.36 42.1211V44.6074L204.62 44.6816C204.806 44.7559 205.103 44.8301 205.474 44.8857C205.845 44.96 206.234 44.9785 206.643 44.9785C207.96 44.9785 209.055 44.5889 209.927 43.7725C210.78 42.9561 211.597 41.583 212.357 39.6533L220.726 18.7607H217.868L211.986 33.5859L206.086 18.7607H203.229L210.65 37L209.704 39.6533ZM241.618 28.2607C241.618 25.7373 240.765 23.585 239.058 21.8037C237.351 20.0225 235.291 19.1318 232.879 19.1318C232.062 19.1318 231.283 19.2803 230.541 19.54C229.799 19.7998 229.187 20.0967 228.723 20.4121C228.24 20.7461 227.813 21.0986 227.424 21.5068C227.034 21.915 226.774 22.1934 226.663 22.3604C226.552 22.5273 226.459 22.6572 226.422 22.75C226.515 20.1895 227.183 18.167 228.407 16.6826C229.632 15.1982 231.265 14.2334 233.269 13.8252C237.054 13.083 239.466 12.248 240.486 11.3574L239.15 9.26074L238.594 9.59473C238.223 9.83594 237.518 10.1328 236.479 10.4854C235.421 10.8564 234.215 11.1348 232.879 11.3574C226.682 12.4707 223.583 17.2207 223.583 25.6074C223.583 29.3555 224.418 32.2686 226.125 34.3096C227.813 36.3506 230.003 37.3711 232.693 37.3711C235.18 37.3711 237.276 36.499 239.021 34.7363C240.746 32.9922 241.618 30.8213 241.618 28.2607ZM226.422 28.2607C226.422 26.3867 227.034 24.8096 228.259 23.5293C229.483 22.2676 230.968 21.6182 232.693 21.6182C234.4 21.6182 235.885 22.2676 237.109 23.5293C238.334 24.8096 238.965 26.3867 238.965 28.2607C238.965 30.1533 238.334 31.7305 237.109 32.9922C235.885 34.2725 234.4 34.9033 232.693 34.9033C230.968 34.9033 229.483 34.2725 228.259 32.9922C227.034 31.7305 226.422 30.1533 226.422 28.2607ZM248.465 18.7607V24.0859C248.465 27.0732 248.298 29.374 248.001 30.9883C247.704 32.584 247.333 33.623 246.888 34.0684C246.442 34.5137 245.83 34.7363 245.051 34.7363C244.531 34.7363 244.03 34.6064 243.529 34.3652V37.0186L243.789 37.0928C243.938 37.167 244.16 37.2227 244.476 37.2969C244.791 37.3525 245.106 37.3896 245.422 37.3896C246.331 37.3896 247.11 37.2041 247.76 36.833C248.391 36.4619 248.984 35.8125 249.522 34.8848C250.042 33.957 250.45 32.584 250.71 30.8027C250.97 29.0215 251.118 26.7764 251.118 24.1045V21.2471H259.097V37.0186H261.769V18.7793L248.465 18.7607ZM267.836 37H270.489V18.7607H267.836V37ZM267.446 12.6748C267.446 13.1572 267.595 13.5654 267.929 13.8994C268.263 14.2334 268.671 14.3818 269.153 14.3818C269.636 14.3818 270.025 14.2334 270.359 13.8994C270.693 13.5654 270.86 13.1572 270.86 12.6748C270.86 12.1924 270.693 11.8027 270.359 11.4688C270.025 11.1348 269.636 10.9678 269.153 10.9678C268.671 10.9678 268.263 11.1348 267.929 11.4688C267.595 11.8027 267.446 12.1924 267.446 12.6748ZM279.247 31.8789L282.865 28.0752L289.322 37H292.365L284.572 26.1641L291.604 18.7607H288.357L279.247 28.4463V18.7607H276.594V37H279.247V31.8789ZM299.769 26.5537C298.043 26.8506 296.726 27.4629 295.816 28.3906C294.889 29.3184 294.443 30.543 294.443 32.0645C294.443 33.4561 295.056 34.6807 296.299 35.7568C297.542 36.833 299.082 37.3711 300.9 37.3711C301.624 37.3711 302.329 37.2783 303.016 37.0742C303.702 36.8887 304.259 36.666 304.686 36.4062C305.094 36.1465 305.483 35.8682 305.854 35.5342C306.226 35.2002 306.448 34.9775 306.56 34.8477C306.671 34.7178 306.745 34.6064 306.801 34.5322V37H309.454V25.4033C309.454 23.418 308.768 21.748 307.395 20.3936C306.021 19.0576 304.314 18.3711 302.236 18.3711C301.42 18.3711 300.604 18.501 299.824 18.7422C299.045 18.9834 298.414 19.2617 297.932 19.5586C297.449 19.874 296.985 20.2266 296.54 20.6162C296.095 21.0059 295.816 21.2842 295.687 21.4326C295.557 21.5811 295.464 21.7109 295.39 21.8037L297.097 23.5107L297.672 22.8613C298.043 22.416 298.655 21.9707 299.509 21.5254C300.362 21.0801 301.271 20.8574 302.236 20.8574C303.572 20.8574 304.667 21.2842 305.521 22.1191C306.374 22.9727 306.801 24.0674 306.801 25.4033L299.769 26.5537ZM300.9 34.9033C299.713 34.9033 298.767 34.6436 298.099 34.1055C297.431 33.5674 297.097 32.8809 297.097 32.0645C297.097 30.3574 298.247 29.2812 300.529 28.8359L306.801 27.6855V28.8359C306.801 30.6357 306.244 32.1016 305.131 33.2148C304.018 34.3467 302.607 34.9033 300.9 34.9033ZM315.521 37H331.089V41.5645H333.761V34.5322H330.903V18.7607H328.25V34.5322H318.175V18.7607H315.521V37ZM337.936 37H340.589V18.7607H337.936V37ZM337.546 12.6748C337.546 13.1572 337.694 13.5654 338.028 13.8994C338.362 14.2334 338.771 14.3818 339.253 14.3818C339.735 14.3818 340.125 14.2334 340.459 13.8994C340.793 13.5654 340.96 13.1572 340.96 12.6748C340.96 12.1924 340.793 11.8027 340.459 11.4688C340.125 11.1348 339.735 10.9678 339.253 10.9678C338.771 10.9678 338.362 11.1348 338.028 11.4688C337.694 11.8027 337.546 12.1924 337.546 12.6748ZM342.704 12.9902C342.704 13.4727 342.853 13.8809 343.187 14.2148C343.521 14.5488 343.929 14.6973 344.411 14.6973C344.894 14.6973 345.283 14.5488 345.617 14.2148C345.951 13.8809 346.118 13.4727 346.118 12.9902C346.118 12.5078 345.951 12.1182 345.617 11.7842C345.283 11.4502 344.894 11.2832 344.411 11.2832C343.929 11.2832 343.521 11.4502 343.187 11.7842C342.853 12.1182 342.704 12.5078 342.704 12.9902ZM349.922 12.9902C349.922 13.4727 350.07 13.8809 350.404 14.2148C350.738 14.5488 351.146 14.6973 351.629 14.6973C352.111 14.6973 352.501 14.5488 352.835 14.2148C353.169 13.8809 353.336 13.4727 353.336 12.9902C353.336 12.5078 353.169 12.1182 352.835 11.7842C352.501 11.4502 352.111 11.2832 351.629 11.2832C351.146 11.2832 350.738 11.4502 350.404 11.7842C350.07 12.1182 349.922 12.5078 349.922 12.9902ZM346.693 37H349.347V18.7607H346.693V37Z" fill="#323264"/>
<path fill-rule="evenodd" clip-rule="evenodd" d="M384.258 27.1452H372.329L377.585 11.1537L383.532 11.1888L380.079 21.7351L386.008 21.7386L384.258 27.1452Z" fill="url(#paint0_linear_90_6811)"/>
<path fill-rule="evenodd" clip-rule="evenodd" d="M359.904 47.9044H354C354 47.9044 364.754 14.794 367.266 7.06476C368.441 3.44844 371.809 1 375.609 1H386.165C389.348 1 392.005 2.34505 393.657 4.61793C395.307 6.89094 395.776 9.79933 394.813 12.7664C393.849 15.7334 392.939 18.5342 392.105 21.1004C390.98 24.5654 387.863 26.953 384.259 27.1471C384.259 27.1471 384.24 27.1411 389.29 11.5924C389.736 10.2203 389.573 8.8772 388.873 7.91395C388.173 6.95083 386.993 6.3808 385.432 6.3808H376.374C374.596 6.3808 373.02 7.52656 372.47 9.21887L359.904 47.9044Z" fill="#F0145A"/>
<path fill-rule="evenodd" clip-rule="evenodd" d="M175.227 1H181.071L165.845 47.8434H160L175.227 1Z" fill="#F0145A"/>
</g>
<defs>
<linearGradient id="paint0_linear_90_6811" x1="372.328" y1="24.0823" x2="385.6" y2="31.0167" gradientUnits="userSpaceOnUse">
<stop stop-color="#F0145A"/>
<stop offset="1" stop-color="#693264"/>
</linearGradient>
<clipPath id="clip0_90_6811">
<rect width="444" height="63" fill="white"/>
</clipPath>
</defs>
</svg>
