<svg width="179" height="44" viewBox="0 0 179 44" fill="none" xmlns="http://www.w3.org/2000/svg">
<path d="M64.0942 26.8803C62.3298 26.8803 61.6161 25.6409 61.6161 23.4913V17.5458H66.7309V15.28H61.6161V11.4842H59.1379V23.7236C59.1379 27.2096 60.3869 29.1462 63.5193 29.1462C65.0656 29.1462 66.3344 28.6039 67.0878 28.0036L66.3146 26.1251C65.7991 26.4736 65.0656 26.8803 64.0942 26.8803ZM74.7799 14.9701C73.0353 14.9701 71.37 15.4543 70.121 16.2096L70.7752 18.1462C71.8854 17.5652 72.9163 17.1391 74.6213 17.1391C77.3769 17.1391 77.7933 18.9015 77.7933 21.4384C76.8615 20.78 75.4143 20.567 74.3239 20.567C71.3105 20.567 69.0504 22.1163 69.0504 24.905C69.0504 27.5388 70.795 29.1075 73.3326 29.1075C75.6323 29.1075 76.9606 28.1779 77.7933 27.1321V28.8944H80.1326V20.5282C80.1326 17.0036 78.7449 14.9701 74.7799 14.9701ZM77.7734 25.1761C77.0597 25.9895 76.009 26.9384 74.1851 26.9384C72.5793 26.9384 71.6673 26.0863 71.6673 24.7888C71.6673 23.2201 73.1542 22.5423 74.6411 22.5423C75.8504 22.5423 76.9011 22.8522 77.7734 23.4525V25.1761ZM91.2941 14.9701C89.3711 14.9701 87.5075 15.7835 86.5559 16.8874V15.28H84.0778V34.9754H86.5559V28.2747C87.5472 28.9138 89.0142 29.2043 90.5011 29.2043C94.8824 29.2043 97.7571 26.0282 97.7571 21.8645C97.7372 17.8557 95.2591 14.9701 91.2941 14.9701ZM90.2632 26.9384C88.9349 26.9384 87.7851 26.6867 86.5361 25.8733V19.1145C87.4084 18.0494 88.9151 17.236 90.5606 17.236C93.4352 17.236 95.0807 19.2113 95.0807 21.9613C95.1005 24.8469 93.2369 26.9384 90.2632 26.9384ZM113.657 14.9895L109.573 15.9578C108.621 15.3187 107.412 14.9508 106.044 14.9508C102.535 14.9508 100.334 17.2166 100.334 19.9472C100.334 21.942 101.484 23.6462 103.467 24.4208C103.209 24.7307 103.09 25.1567 103.09 25.5634C103.09 25.9508 103.189 26.3768 103.427 26.6867C100.751 27.2289 98.9664 28.6233 98.9664 30.831C98.9664 33.7941 102 35.1691 106.064 35.1691C110.128 35.1691 113.161 33.736 113.161 30.831C113.161 27.868 110.128 26.4349 106.064 26.4349C105.786 26.4349 105.509 26.4736 105.231 26.4736C105.053 26.2219 104.954 25.8927 104.954 25.5634C104.954 25.3117 104.993 25.0406 105.112 24.8082C105.429 24.8469 105.727 24.8469 106.044 24.8469C109.493 24.8469 111.754 22.6585 111.754 19.9472C111.754 19.0951 111.535 18.2817 111.099 17.5846L113.736 16.9455L113.657 14.9895ZM106.064 28.449C109.037 28.449 110.842 29.3592 110.842 30.8698C110.842 32.4191 108.958 33.2325 106.064 33.2325C103.189 33.2325 101.286 32.3803 101.286 30.8698C101.286 29.3592 103.09 28.449 106.064 28.449ZM106.044 22.9103C104.002 22.9103 102.674 21.6708 102.674 19.9666C102.674 18.2624 104.002 16.9455 106.044 16.9455C108.126 16.9455 109.414 18.2817 109.414 19.9666C109.414 21.7289 107.987 22.9103 106.044 22.9103ZM122.082 14.9701C117.503 14.9701 114.886 18.1268 114.886 22.0969C114.886 26.3962 117.84 29.2236 122.36 29.2236C124.223 29.2236 126.246 28.6427 127.594 27.442L126.821 25.5247C125.928 26.3381 124.342 26.9578 122.538 26.9578C119.802 26.9578 117.879 25.4472 117.661 22.8715H128.387C128.486 22.4455 128.545 21.9032 128.545 21.2448C128.545 17.449 125.671 14.9701 122.082 14.9701ZM117.523 20.8768C117.8 18.7853 119.406 17.236 121.963 17.236C124.382 17.236 125.869 18.6303 125.988 20.8768H117.523ZM134.215 16.868V15.2606H131.737V28.8944H134.215V19.2307C134.751 18.2236 135.524 17.2941 137.13 17.2941C137.962 17.2941 138.339 17.4103 139.013 17.817L139.885 15.5511C139.429 15.2219 138.854 15.0282 137.724 15.0282C135.94 15.0282 134.929 15.8416 134.215 16.868ZM142.522 28.8944H145V15.2606H142.522V28.8944ZM143.83 8.69548C142.958 8.69548 142.225 9.27647 142.225 10.1479C142.225 11.155 142.978 11.7166 143.83 11.7166C144.604 11.7166 145.357 11.1356 145.357 10.1479C145.337 9.27647 144.604 8.69548 143.83 8.69548ZM156.459 15.0282C154.635 15.0282 152.871 15.8997 151.899 16.9455V15.28H149.421V28.9138H151.899V19.0758C152.791 18.0687 154.258 17.3134 155.844 17.3134C158.441 17.3134 159.79 18.6497 159.79 21.4965V28.9138H162.268V21.0317C162.268 16.7518 160.087 15.0282 156.459 15.0282ZM179 21.206C179 17.449 176.125 14.9701 172.517 14.9701C167.938 14.9701 165.321 18.1268 165.321 22.0969C165.321 26.3962 168.275 29.2236 172.795 29.2236C174.658 29.2236 176.68 28.6427 178.029 27.442L177.255 25.5247C176.363 26.3381 174.777 26.9578 172.973 26.9578C170.237 26.9578 168.314 25.4472 168.096 22.8715H178.822C178.94 22.4261 179 21.8839 179 21.206ZM167.957 20.8768C168.235 18.7853 169.841 17.236 172.398 17.236C174.817 17.236 176.304 18.6303 176.423 20.8768H167.957Z" fill="white"/>
<path d="M44.9433 20.8187C44.9433 20.7799 44.9433 20.7218 44.9235 20.6831C44.7649 18.0687 44.1503 15.5898 43.1392 13.2852C40.899 25.7764 29.7177 35.2465 16.2763 35.2465C11.0227 35.2465 6.1061 33.794 1.94285 31.2764C2.16093 31.7412 2.39883 32.206 2.65655 32.6514C2.65655 32.6514 2.65655 32.6514 2.65655 32.6708C2.91428 33.0968 3.172 33.5229 3.44955 33.9489C3.46938 33.9683 3.46938 33.9877 3.4892 34.007C4.0443 34.8398 4.65888 35.6144 5.3131 36.3697C5.35275 36.4085 5.37258 36.4472 5.41223 36.4859C6.06645 37.2218 6.78015 37.8996 7.51368 38.5387C7.57315 38.5775 7.6128 38.6162 7.67228 38.6743C8.4058 39.294 9.1988 39.875 10.0116 40.3979C10.0711 40.4366 10.1504 40.4754 10.2297 40.5335C10.6064 40.7658 10.9831 40.9982 11.3796 41.2113C11.4192 41.2306 11.4589 41.25 11.4985 41.2887C11.9148 41.5211 12.351 41.7342 12.7871 41.9278C12.8664 41.9665 12.9457 42.0053 13.025 42.044C13.4017 42.2183 13.7784 42.3732 14.1749 42.5088C14.2542 42.5475 14.3533 42.5669 14.4326 42.6056C14.8886 42.7606 15.3446 42.9155 15.8005 43.0511C15.8798 43.0704 15.9591 43.0898 16.0583 43.1285C16.4548 43.2447 16.8513 43.3415 17.2478 43.4384C17.3667 43.4577 17.4658 43.4965 17.5848 43.5158C18.0606 43.6127 18.5364 43.7095 19.0122 43.7676C19.0717 43.7676 19.1311 43.787 19.2104 43.787C19.6466 43.8451 20.0629 43.8838 20.4991 43.9225C20.6378 43.9419 20.7568 43.9419 20.8956 43.9419C21.3912 43.9806 21.8868 44 22.4023 44C34.8722 44 44.9829 34.162 44.9829 22.0194C44.9631 21.5739 44.9631 21.206 44.9433 20.8187ZM39.4121 7.53345C38.0442 6.00352 36.4384 4.64789 34.6739 3.52465C30.8874 8.05634 25.0985 10.9613 18.6157 10.9613C13.8775 10.9613 9.516 9.41197 6.0268 6.79753C2.81515 10.1285 0.6344 14.3891 0 19.1532C4.22273 21.8063 9.23845 23.3363 14.6309 23.3363C25.713 23.3363 35.2489 16.8486 39.4121 7.53345ZM30.6891 1.52993C28.1119 0.542254 25.3165 0 22.3824 0C19.0518 0 15.8798 0.716549 13.0449 1.97535C15.6221 2.76937 18.358 3.21479 21.2128 3.21479C24.5434 3.19542 27.7352 2.59507 30.6891 1.52993Z" fill="white"/>
</svg>
