<?xml version="1.0" encoding="UTF-8"?> <svg xmlns="http://www.w3.org/2000/svg" viewBox="0 0 2400 2400"><g fill="#fff"><path d="m1582.23 1595.46c-1.3-1.74-4.88-1.56-6.18.14-.8 1-1.43 2.22-2.15 3.32-4.55 6.89-8.88 13.93-13.69 20.63-11 15.33-23.44 29.45-35.72 43.72-2.57 3-5.06 6.18-8.12 8.62-6.56 5.22-10.82 12.45-16.69 18.25a2.39 2.39 0 0 0 -.26 3.38l.17.18a166 166 0 0 0 21.6 17.25c4.7 3 9.67 5.71 14.62 8.34 10.71 5.69 18.26 13.88 21.4 25.86.75 2.84 9 35.36 11.39 40.47.12.28.48.44.74.65.19-.24.52-.47.56-.74.68-4.19 1.61-8.37 1.89-12.59.33-5 .08-9.93.08-14.9 0-6-.08-11.92 0-17.87.11-6.41 5.58-10.1 11.6-7.93 2.86 1 5.37 2.51 6.73 5.46 1.24 2.68 3 5.18 3.84 8a154 154 0 0 1 6.08 29.9 144.13 144.13 0 0 0 3.56 21.35c1.42 5.71 3.28 11.4 2.68 17.49-.11 1.1.93 2.33 1.51 3.47.12.22.59.33.9.34a.7.7 0 0 0 .65-.4c.49-4.55 2.28-8.86 2.2-13.53-.14-8.28 0-16.56 0-24.83 0-1.65.22-3.43-.3-4.93-1.91-5.45-1.88-29.82-4.62-36-.57-1.29-.17-3.21.26-4.71 1.68-5.88 6.8-7.78 11.8-9.55 5.5-2 11.32 1.2 13.29 6.91a183.35 183.35 0 0 1 6.2 23.83c3.07 15.22 5.51 30.42 5.39 46a36 36 0 0 0 1 6.77c.18 1 2.82 1.56 3.43.81a12.4 12.4 0 0 0 1.68-2.39c3.2-6.86 5.56-13.64 4.29-21.68-1.17-7.45-.53-15.18-.72-22.79a61.86 61.86 0 0 0 -.87-8.8c-1.48-8.76-3.7-17.33-6-25.89-1.64-6.17-.31-11.77 2.94-17 2-3.25 5.63-4.1 9.31-2.82a23.19 23.19 0 0 1 11 8.09c4.16 5.5 8 11.26 11.89 17a35 35 0 0 1 3.61 5.83c3.5 8.17 6.77 16.4 8.13 25.31.48 3.17 2.11 6.16 3.26 9.22.07.18.62.34.86.26.52-.18 1.39-.5 1.4-.8.38-6.56.6-13-1.67-19.47a209.64 209.64 0 0 1 -5.84-21.9c-2.18-9.37-6.61-17.85-10.14-26.69-.72-1.79-2.17-3.28-3.27-4.92a35.29 35.29 0 0 1 -3.19-5c-2.4-5.45-6.47-8.07-12.4-8.06-3.64 0-7.27-.29-10.91-.35q-6-.11-11.91 0a6.16 6.16 0 0 1 -5.09-2.6c-4.11-5.18-3.19-10.08 2.66-13.06a19.75 19.75 0 0 1 6.56-1.87 29.85 29.85 0 0 1 7.9 0c7.79 1.14 15.61 2.26 23.3 3.93 12.63 2.74 24.69 7.07 35.55 14.28 3.29 2.18 6.51 4.49 9.82 6.64.38.24 1.19-.18 1.79-.29a2.68 2.68 0 0 0 -.26-.83c-5.2-7.61-10.51-15.08-16.92-21.81a54.68 54.68 0 0 0 -22.43-14 84.19 84.19 0 0 0 -16.21-4.28c-5.51-.73-10.9-2.38-16.31-3.8q-11-2.86-21.91-6c-10.44-3-19.39-8.19-25.85-17.17a43.3 43.3 0 0 0 -3.74-4.59 70.35 70.35 0 0 1 -12.77-18.75 33.8 33.8 0 0 0 -3.38-6.11z"></path><path d="m1909.92 988.58c-2-8-2.68-16.26-6.81-23.62-4-7.2-8.07-14.39-13.37-20.79a38.21 38.21 0 0 0 -16.91-11.61c-6.08-2.19-12.32-2.06-18.59-2.06-2 0-4 .12-6 0a34.12 34.12 0 0 0 -18.13 4.18c-13 6.73-25 14.78-33.6 27.05-4.21 6-8 12.14-9.79 19.32-1.1 4.46-2.16 8.94-3 13.46a80.49 80.49 0 0 0 -.36 29.6 100.48 100.48 0 0 0 19.32 42.92c5.19 6.76 12.23 10.94 18.87 15.77a3.41 3.41 0 0 0 2.76-.1c2.13-.91 4.11-1.91 4.3-4.81.47-7.29 2.68-14.14 5.43-20.88a15 15 0 0 1 5.2-7.06c4.61-3.11 9.23-6.46 15.29-6.37 1.58 0 3.17-.73 4.77-1 7.23-1.41 15.87 3.26 18.31 10.29 1.71 5 2.9 10.09 4.17 15.19 1.51 6 1.39 5.92 6.45 2.93 10.5-6.2 16.72-15.71 20.62-26.88 2.61-7.48 3.27-15.42 4.64-23.18a22.41 22.41 0 0 0 -.1-8.9c-1.83-7.77-1.56-15.76-3.47-23.45z"></path><path d="m308.68 738.85a53.12 53.12 0 0 0 -14.29-6.58 110 110 0 0 1 -22.68-9.63 336 336 0 0 0 -51.49-22.72c-10.9-3.67-21.84-7.24-32.86-10.53-4.67-1.4-9.59-2-14.41-2.92-.23 0-.8.38-.78.51a3.18 3.18 0 0 0 .57 1.57 3.32 3.32 0 0 0 1.62 1.05 78.29 78.29 0 0 1 22.07 8.28 17.26 17.26 0 0 0 5.58 1.91c4 .64 7.52 2.4 11.06 4.16 2.07 1 4.07 2.23 6.21 3.07 11.34 4.47 22.4 9.58 33.45 14.72 9 4.17 18 8.26 27.22 11.72a311.71 311.71 0 0 1 32.55 14.29 33.07 33.07 0 0 0 3.58 1.51c.23.09.59-.18.88-.29.06-.25.25-.6.15-.74-2.48-3.4-4.58-6.94-8.43-9.38z"></path><path d="m198.18 553.54q32.06 25.83 66.42 48.46a159.41 159.41 0 0 1 26.74 22c10.58 10.93 21.55 21.5 31 33.47 2.66 3.37 5.44 6.66 7.9 10.18a32.38 32.38 0 0 1 3.59 7c.89 2.37-1.5 5.64-4.12 5.66a13.94 13.94 0 0 1 -5.71-1 73.26 73.26 0 0 1 -22.15-14.78c-8.52-8.42-18.16-15.31-28.28-21.64-7.27-4.56-14.45-9.3-21.53-14.15a159.63 159.63 0 0 0 -23.43-12.87c-6.59-3-13.28-5.91-19.71-9.27-20.86-10.9-43.2-18-65.35-25.51-5.14.13-9.18-3.54-14.11-4.07-.43 0-1 .59-1.36 1-.08.08.18.64.4.85a14.67 14.67 0 0 0 2.25 1.91c2.51 1.55 5 3.13 7.66 4.47 2.32 1.18 4.94 1.81 7.17 3.13 5.68 3.37 11.19 7 16.81 10.48 4.23 2.6 8.39 5.35 12.81 7.56 12.75 6.39 24.57 14.24 36.33 22.23 15.57 10.59 31.35 20.89 46.88 31.55 17.76 12.19 34.4 25.76 49 41.62a34.07 34.07 0 0 1 4.65 6.35c.84 1.5.27 3.2-1.14 4.43a3.27 3.27 0 0 1 -3.62.82 21.94 21.94 0 0 1 -8-5.7c-7.27-8.39-16.22-14.48-26.11-19.37a65.39 65.39 0 0 1 -9.27-5.71c-13.14-9.54-27.38-17.26-41.42-25.31-1.72-1-3.56-1.8-5.18-2.93-7.65-5.38-16.37-8.42-25-11.69a42.34 42.34 0 0 1 -6.41-2.59c-9.8-5.74-20.6-8.7-31.43-11.65-4.12-1.12-8.15-2.56-12.28-3.63a7.92 7.92 0 0 0 -3.73.49c-.24.07-.45 1.2-.26 1.66a2.56 2.56 0 0 0 1.41 1.24 71.83 71.83 0 0 1 15.84 8 68.15 68.15 0 0 0 13.37 6.4 267.49 267.49 0 0 1 46.85 23.55 51.78 51.78 0 0 0 5.14 3c12.27 5.85 23.31 13.74 34.77 20.94 8.09 5.09 16.22 10.12 24.19 15.43 9.06 6.05 17.37 13.07 26.28 19.29 4.6 3.21 9 6.67 13.65 9.87a200.66 200.66 0 0 1 20.31 15.86c3.11 2.81 5.38 5.79 5.89 9.88a6 6 0 0 0 3 4.78 22.73 22.73 0 0 1 3.36 2c5.73 5 11.35 10 17.11 14.92a30.7 30.7 0 0 0 5.7 3.79c4.67 2.45 9.36 4.9 14.2 7 3.62 1.56 7.42 2.79 11.53 2.27 1.31-.16 2.66.07 4 0 10.82-.9 18.49 4.75 26 11.56 7.2 6.49 12.12 14.73 18.35 21.93 6.72 7.78 13.7 15.26 20.91 22.54a85.58 85.58 0 0 1 15.95 21.33c2.85 5.56 6.57 10.69 10.15 15.84 16 23.05 33.12 45.33 48.65 68.75 12.41 18.72 25.79 36.79 38.61 55.24 3 4.33 5.55 9 8.21 13.54 3.84 6.56 7.59 13.16 11.38 19.75.17.28.41.52.56.82 9.28 18.24 18.94 36.29 27.15 55.08 5.69 13 24.36 68.55 25.18 72.42 1.58 7.38 2.59 14.89 4.07 22.29 1.73 8.72 3.76 17.37 4.6 26.24a3 3 0 0 0 1.85 1.94 3.14 3.14 0 0 0 2.73-.32c3.79-4.11 8.23-7.59 11.13-12.55a253.17 253.17 0 0 1 23.06-33.3 5.92 5.92 0 0 0 1.15-6.27c-1-3.48-13.11-31.73-17.13-38.63-5.31-9.12-10.66-18.23-14.84-28-5.09-11.87-11.89-22.86-18.19-34.09a38.19 38.19 0 0 1 -2-3.4c-7.25-16-16.88-30.66-25.92-45.65a7.36 7.36 0 0 1 -.42-.9c-7-14.62-15.54-28.39-23.51-42.48-7-12.35-13.58-25-22.41-36.19-2.45-3.11-4.4-6.6-6.57-9.92q-14.67-22.41-31-43.63c-10.1-13-19.55-26.6-29.5-39.78-10.17-13.46-20.59-26.73-32.93-38.33-5.33-5-9.64-10.88-14.29-16.47-2.95-3.56-5.83-7.2-9.08-10.47-7.68-7.74-15.55-15.23-22.48-23.74-4.12-5.06-9-9.55-12.58-15.09-.68-1-2-1.94-1.11-3.46 1.13-1.93.57-4.76 3.1-6 1.2-.56 2.42-1.06 3.64-1.58 4.19-1.77 5.16-3.23 4.06-7.44-1.58-6-3.41-12-5.23-18-2.6-8.51-5.49-16.94-7.85-25.51a105.72 105.72 0 0 0 -8.79-20.94c-4.3-8.19-8.64-16.36-12.94-24.56-8.74-16.67-17.32-33.44-26.28-50-2.83-5.22-5.1-10.7-8-15.83a25.15 25.15 0 0 0 -3.68-4.49 1.77 1.77 0 0 0 -1.71.14c-.37.32-.39 1.11-.45 1.71a1.77 1.77 0 0 0 .3.92c6.91 12.79 12.59 26.14 18.18 39.54 2.13 5.11 4.87 10 6.91 15.15s5 10 7.13 15.16c4.21 10 8.65 19.93 11.93 30.3 1.78 5.65 3.46 11.34 5.56 16.87a23 23 0 0 1 1.44 9.68 4.68 4.68 0 0 1 -2.14 2.94 3.44 3.44 0 0 1 -4.4-1.1 51.75 51.75 0 0 1 -7.29-14c-3-9.56-7.75-18.15-13-26.63-5.36-8.71-10.36-17.67-15.25-26.67a96.44 96.44 0 0 0 -9.76-14.78c-11.06-13.61-22.42-27-35.82-38.39-11.31-9.64-22.74-19.14-34-28.78s-22.41-19.52-33.84-29.07c-8.1-6.74-16.59-13-24.92-19.5a14.23 14.23 0 0 0 -1.59-1.18c-2.08-1.2-2.85-4.64-6.22-3.63 1.36 2.12 2.65 4.29 4.12 6.32a9.66 9.66 0 0 0 2.84 2.71c4.67 2.69 8.12 6.75 11.94 10.4 9.08 8.68 18.44 17.09 27.24 26 9.27 9.42 18.13 19.26 27 29.1 6.4 7.12 12.52 14.5 18.66 21.85 15.46 18.52 30.52 37.36 44.55 57 2.49 3.49 4.69 7.2 7 10.84 3.32 5.32 6.54 10.7 9.88 16 3 4.8 4.91 10.07 6.76 15.36a4.8 4.8 0 0 1 -1.63 5.36c-1.22 1.12-3.54 1.55-4.57.6-1.91-1.78-4.12-3.5-5.35-5.71-4.32-7.86-9.78-14.86-15.3-21.86a82 82 0 0 1 -5.75-8.11 165.52 165.52 0 0 0 -19.84-26c-4.92-5.33-9.26-11.2-14.8-16-7.51-6.45-14.95-13-22.61-19.27-11.26-9.2-22.56-18.34-34.07-27.22a316.77 316.77 0 0 0 -38-25c-8.63-4.87-17-10.24-25.81-14.73-2.54-1.29-5.17-2.39-7.76-3.58a10 10 0 0 0 -3.45 7.75c.12 3 1.78 6 3.55 8.62a32.69 32.69 0 0 1 4.55 1.38 40 40 0 0 1 9.42 5.59z"></path><path d="m2226 625.57c-4 2.95-29.94 19.39-39.45 26.22s-11.12 7.54-16.11 12c-3.36 3-22.8 17.66-27 22.19s0 12.37 3.32 12.21a7.25 7.25 0 0 0 2.65-.82c5-3.22 23.86-18.68 29-22.22a408 408 0 0 0 32.71-25.6c6.78-5.75 12.8-12.4 19-18.78 1.35-1.37 3.44-4.55 2-6.12s-2.12-2.03-6.12.92z"></path><path d="m2085.08 1091.36c.13 1.05.71 1.67 1.93 1.12 2.08-.93 4.41-1.5 6.26-2.76 9.9-6.77 18.65-14.6 23.35-26.08 5.22-12.74 6.18-17.33 4.3-39.38s-10.15-34.55-14.94-39.64c-2.72-2.88-5.72-5.48-8.51-8.3-5.37-5.43-11.63-8.61-19.46-8.07-1.32.09-2.65 0-4 0-2 0-4-.1-6 0-13.92.83-25.55 6.56-34.3 17.28a109.63 109.63 0 0 0 -15.4 26.47 54.87 54.87 0 0 0 -4.69 18c-.72 11.92.46 23.69 5 34.89 2 4.88 4.35 9.63 6 14.62 1.29 3.92 4 6.76 6.17 10 .28.41 1 .5 1.57.73a6.46 6.46 0 0 0 .64-1.82 25.94 25.94 0 0 0 -.2-3.94c-.84-7 2.09-17.09 7.93-21.62s8.17-6.06 22.22-3.6 17.81 8.92 20.22 14c2.18 4.61 4.19 9.63 2 15a6.26 6.26 0 0 0 -.09 3.1z"></path><path d="m2268.32 563.31c-9.65-.9-19.11 1.17-28.53 2.37-12.68 1.62-25.17 4.81-37.68 7.62a185.48 185.48 0 0 0 -32 10c-6.07 2.59-12.14 5.21-18.1 8q-14.31 6.83-28.46 14c-2.63 1.33-18 8.57-20.28 9-7.66 1.52-14.24-.15-20-5.78a196.52 196.52 0 0 0 -35.36-27 166.73 166.73 0 0 0 -21.81-11.69c-6.92-2.91-14.38-4.58-21.69-6.46-6.18-1.59-9.32.08-11.8 5.85-1.82 4.24-3.42 8.57-5 12.89a12.35 12.35 0 0 1 -5.43 6.81c-3.54 2-6 1.73-8.82-1.12a6.76 6.76 0 0 1 -1.6-7.32c2.26-7.22 21.07-58.51 22.78-66.25 1.64-7.42 3.72-14.66 6-21.89 1.39-4.37 1.91-9 2.8-13.52.39-1.94.7-3.88 1.09-5.81 1.56-7.74 3.28-15.44 4.67-23.21 1.73-9.71 2.86-19.54 4.91-29.18 1.12-5.26.92-10.5 1.37-15.73a20.86 20.86 0 0 0 -2.3-10.57c-3.74-8-8.93-9.22-15.21-7.4a54.73 54.73 0 0 0 -10.75 4.94c-3.77 2.07-7.31 4.53-11 6.78a106.82 106.82 0 0 0 -19.58 15.14c-2.33 2.32-5 4.3-7.46 6.49-15.08 13.42-29.87 27.1-42.06 43.33-5.16 6.86-10.91 13.29-15.86 20.29-6.49 9.16-12.47 18.69-18.66 28.06a204.62 204.62 0 0 0 -17.81 32 180.77 180.77 0 0 0 -10.46 34.9c-1.69 8-3.71 16-5.33 24a10.76 10.76 0 0 1 -7.36 8.51c-2.8 1.06-6.5-.47-7-3.27-.31-2-.24-4-.41-5.92-.23-2.67-3.94-5.59-6.27-4.81-5.3 1.75-10.74 3.24-15.78 5.56-12.3 5.65-24.5 11.52-35.88 19-6.63 4.34-13.5 8.33-20.29 12.42-12.45 7.5-25 14.81-37.35 22.51-6.73 4.21-13.35 8.54-20.31 12.37a171.71 171.71 0 0 0 -17.52 11.21c-9.93 7.13-19.63 14.56-30.31 20.62-4.87 2.76-9.35 6.22-13.94 9.46q-26.73 18.86-53.4 37.79c-12.12 8.62-24.4 17-36.2 26.08-12 9.23-57.28 45.19-65.25 51.62-13.11 10.57-64.49 52.89-67.12 53.55-4.09 1-7.52-.62-9.29-4.75-.48-1.12-3.14-4.06-9.5-2.68-15.7 3.4-44.42 15.46-49 17.19-5.52 2.07-33.22 13.15-57.92 18.93s-38.5-4.53-42.34-11.45a90.43 90.43 0 0 1 -5.69-11.56c-3.62-9.55-6.9-19.23-10.33-28.85-3.09-8.7-6.28-17.36-9.26-26.1-1.8-5.29-3.47-10.65-4.86-16.07-3.92-15.29-8.11-30.54-11.36-46s-9.5-30.13-11.51-45.92c-.83-6.5-2.86-12.83-2.73-19.5 0-3 .22-6.08-.54-8.89-1.76-6.49-1.47-13.08-1.87-19.65-.63-10.29 2.78-19.54 6.84-28.59 1.46-3.24 3.93-6.08 6.23-8.87 4-4.85 8.37-9.37 12.25-14.29 4.28-5.44 8.9-10.53 13.66-15.53 3.87-4 7.38-8.45 11.16-12.6 1.76-1.94 3.77-3.65 5.66-5.48 4.93-4.78 10-9.48 13.7-15.31a20.38 20.38 0 0 0 2-5.5c.4-1.49-1.93-3.41-3.23-2.63-2 1.18-21.29 14.23-35.84 24.46-8.31 5.85-25.39 17.93-27.19 20s-4.52 3.84-6.93 5.56a6.3 6.3 0 0 1 -7.44.1c-2.18-1.36-2.79-3.51-2.76-6a8.82 8.82 0 0 1 2.37-6.29c3.07-3.34 3.85-7.54 3.86-11.94 0-3.3.1-6.61.07-9.91-.13-15.83.64-31.63-1.62-47.47q-2.3-16.1-4.63-32.21a94.73 94.73 0 0 0 -6-21.86 18.88 18.88 0 0 0 -4.06-5.45c-.52-.55-1.83-.56-2.74-.46-.35 0-.89 1.08-.84 1.62.21 2.62 1.94 21.32 1.85 26.16-.2 11.25-.07 22.5-.07 33.75 0 4.63.26 9.29-.07 13.9s-1.36 9.1-1.87 13.66a16.39 16.39 0 0 1 -4.68 9.62c-3.1 3.27-9.59 2.86-12.39-.77a3.55 3.55 0 0 1 -.78-1.77c-.42-6.79-3.78-12.54-6.52-18.51-2.06-4.49-4-9.06-6.09-13.52-2.69-5.66-5.24-11.38-9.28-16.34-2.9-3.57-15-22.56-18.92-27.85s-12.51-18.93-15.37-20.93-4.6.52-5.11 1.94c-.3.84 1.24 6.92 2.82 9.92 5.09 9.61 15.87 33.68 16.44 35.22 5 13.61 10.27 27.15 15 40.85 1.7 4.89 3.61 9.85 3.14 15.33-.68 7.78-5.67 12.76-13.35 12.83h-2a5 5 0 0 1 -4.77-2.83c-4.88-9.38-10-18.64-14.84-28a211.54 211.54 0 0 0 -19.92-31.85c-6-7.84-23.63-29.17-27.65-30.24-1.19-.32-2.83 1-2.44 2.27 1.17 3.69 8.17 17.65 10 21.17 5.08 10 8.85 20.64 14.73 30.28 2.74 4.5 5 9.31 7.32 14.06a40.69 40.69 0 0 1 3.28 8.24c1.82 7.7 3.69 15.29 7 22.58 2.65 5.8 2.12 11.66-3.66 15.94-1.06.78-1.93 1.82-3 2.61a16.55 16.55 0 0 1 -21.79-.85c-1.23-1.1-2.31-2.37-3.44-3.58q-3.75-4-7.48-7.94c-7.22-7.74-14.8-15.19-21.5-23.35-4.51-5.51-15.71-20.61-17.83-21.45-.38-.15-1.06.27-1.5.56a1 1 0 0 0 -.21.91 17.16 17.16 0 0 0 1.4 3.58c2.1 3.33 19.08 31.6 25.84 42.16 7.74 12.1 12.86 25.23 17.19 38.79a114.83 114.83 0 0 1 4.83 21.12 64 64 0 0 1 -4 31.11 218.09 218.09 0 0 0 -8.38 27.36c-2.28 9.26-5.31 18.33-7.91 27.51-2.24 7.92-4.45 15.85-6.47 23.83-1.7 6.7-3 13.5-4.67 20.2-2.29 9-1.64 18.34-3.73 27.33-1.71 7.37-2 15-3.53 22.38a118.49 118.49 0 0 0 -2.26 20.57c-.42 13.19.41 26.43-2 39.51a16.7 16.7 0 0 0 0 3c-.2 15.89-.4 31.78-.62 49.06.18 8.21.46 17.8.59 27.4.1 7 .11 13.91 0 20.86-.08 5.07-2.34 7.09-7.47 7a25.21 25.21 0 0 1 -3-.21c-3.19-.39-4.77-1.78-5.36-4.86-.31-1.62-.29-3.31-.66-4.92-1-4.51-4.67-6.25-8.81-4.31-3 1.4-6 2.87-9 4.17-16.72 7.18-32.5 16.14-48.21 25.24-8.86 5.13-17.72 10.26-26.53 15.48-4.26 2.52-8.54 5.06-12.57 7.94-16.38 11.72-32.66 23.58-49 35.39-.27.19-.51.42-.77.62-15.65 12.21-30.21 25.69-44.73 39.17-10.67 9.91-20.94 20.25-31.22 30.57a194.72 194.72 0 0 0 -15.46 16.77q-18.36 23.38-36 47.32c-7 9.56-33.29 48.67-36.83 53.87-8 11.72-15 24.13-24.31 35-1.67 2-19.73 32.29-21.28 35.51-5 10.47-11.82 19.86-17.86 29.72a30.29 30.29 0 0 1 -9.74 9.54 9.51 9.51 0 0 1 -6.61 1.45c-4.7-.53-7.42-3.95-5.79-8.28a57.9 57.9 0 0 1 5.58-10.41c2.63-4.19 5.89-8 8.29-12.3 2.74-4.9 4.24-9.91 2.26-16-1.72-5.26-3.26-10.68-4.64-16.08-5.59-21.94-15-42.26-26.25-61.72-5.78-10-12.92-19.16-19.19-28.87-5.08-7.87-13.11-12.92-18.74-20.24a7.9 7.9 0 0 0 -2.49-1.53 9.57 9.57 0 0 0 -11.18.69c-6.86 5.16-13.79 10.26-20.22 15.93a222.92 222.92 0 0 0 -25.49 26.38c-5.46 6.7-18.46 23.92-21.19 27.64-4.32 5.87-28.63 48.11-32.06 53.36-6.89 10.53-11.78 22.13-17.41 33.33-3.12 6.18-5.8 12.58-8.75 18.85-2.26 4.78-5.31 9.29-6.83 14.29-4.32 14.25-10.62 27.7-16 41.53a91.23 91.23 0 0 0 -6.24 37.73 26.66 26.66 0 0 0 1.77 7.63 4.87 4.87 0 0 0 6.4 2.51 5.39 5.39 0 0 0 1.1-.67c6.7-5.89 13.44-11.74 20-17.83 5.32-5 10.28-10.33 15.5-15.4 7.84-7.61 15.65-15.25 23.7-22.63 4.35-4 7.4-8.11 6.64-14.48a57.54 57.54 0 0 1 .27-11.88 23.27 23.27 0 0 1 1.88-6.58 5.4 5.4 0 0 1 5.47-3.51c2.81 0 5.29 1.43 6.08 4.18.89 3.13 2.25 6.12 2.18 9.59-.12 5.61 4.51 60.34 6.08 67.8 2.64 12.54 5.07 25.12 7.55 37.69 1.6 8.07 2.26 31.65 28.3 77.43s39.08 48.28 64.78 52.24 76-2.78 84.47-4.35c3.56-.66 7.1-1.4 10.64-2.14 10.94-2.29 22-4.24 32.79-7 11.82-3 46.52-17.16 53.23-16.92a8.4 8.4 0 0 1 7.77 5.17 9 9 0 0 1 -.84 9.43c-4.34 5.82-27.89 10.91-33 12.28-.27.07-.66.42-.66.64 0 .6 0 1.43.34 1.76.71.64 7.15 11.52 19.83 29.15s23 32.86 28.2 38c7.8 7.65 15.45 15.44 23.21 23.12 2.12 2.09 18.06 16 23.42 21.38a98.67 98.67 0 0 0 14.3 12.24c5.74 3.9 11.25 8.12 17 11.92 4.41 2.88 9 5.48 13.7 7.93 6.44 3.37 48.45 28.14 55.9 31.79 11.9 5.83 24.4 10 36.9 14.23 19.64 6.66 39.82 11.76 58.92 20a18.76 18.76 0 0 0 3.67 1.47c12.9 2.49 70.84 16 85.15 21.1 4 1.42 8.23 2.37 12.38 3.41 7.66 1.91 15.43 3.42 23 5.65 9.16 2.71 18.2 5.84 27.19 9.06a185.94 185.94 0 0 1 40.56 20.56c10.81 7.22 20 16.47 26 28.13a108.22 108.22 0 0 1 10.14 29.88c1.41 7.42 2.9 14.85 3.68 22.35.93 8.83 2.41 17.6 2.19 26.58-.28 11.24.08 22.5.37 33.76.28 10.94-3.63 42.37-4.7 47.11a67.83 67.83 0 0 0 -1.28 14.71v10.93a57.78 57.78 0 0 0 1.35 11.72c1.53 8.07 2.47 13.07 9.81 14.7 2.56.57 9.34-.05 11.93 0 2.24 0 64.55-8.29 77.18-9.27 18.15-1.4 69.54-8.07 73.44-8.67 5.84-.91 11.61-2.27 17.42-3.41 12.91-2.54 24.73-2.34 37.28-6.54 6.14-2 23.49-9.21 24.51-10.89 2.56-4.24 1.38-7.77-3.13-9.41-4-1.46-8.11-2.7-12.09-4.25-6.49-2.54-25.34-5.22-27.94-5.58-10.1-1.38-20-4.12-30.15-5a56.48 56.48 0 0 1 -10.61-2.19 8.27 8.27 0 0 1 -3.89-2.8c-2.62-3.36-2.9-7.38-2-11.34a43.67 43.67 0 0 1 3.28-9.29q9.93-20 20.17-39.79c7.26-14.1 14.75-28.08 21.94-42.21a190.19 190.19 0 0 1 13.35-23.16c4.55-6.49 8.76-13.22 12.85-20a140.92 140.92 0 0 0 13.82-31.67c2.15-7 3.14-14.1 4.34-21.24a57.66 57.66 0 0 0 -2.55-30.1c-3.66-10-9.55-18.83-13.63-28.57a20.61 20.61 0 0 0 -3.12-5.06q-9.06-11.14-18.31-22.13a17.83 17.83 0 0 0 -3-2.55c-8.67-6.6-17.32-13.22-26-19.76-2.38-1.77-4.92-3.34-7.46-4.86a5.39 5.39 0 0 0 -5.67-.09q-4.73 2.68-9.36 5.53c-9 5.56-18.85 9.47-28.34 14.08-12.76 6.2-25.77 11.88-38.77 17.57-6.64 2.9-13.71 4.88-20.19 8.09-11 5.49-22.71 8.81-34.6 11.57-6.73 1.56-13.7 2.23-20.23 4.33-6.3 2-12.65 4.09-19.11 4.68-8.31.76-16.15 3.2-24.14 5.08-3.88.91-7.8 1.23-11.65 2-5.77 1.14-11.73.82-17.41 3-4.65 1.76-9.79 1.43-14.61-.07-2.61-.81-4.53-2.39-4.74-5.63-.34-5.49 2-8.55 7.59-9.59 5.81-1.07 11.56-2.58 17.41-3.38 10.42-1.42 20.52-4.62 31.15-5.14 5.18-.26 10.45-1.14 15.64-1.92 8.42-1.26 16.9-2.38 25-5.52 7.36-2.86 14.91-5.28 22.46-7.61 14.85-4.59 29.12-10.64 43.32-16.84 9.39-4.09 18.42-9 27.91-12.82a167.73 167.73 0 0 0 28.29-14.18c4.72-3 9.65-5.74 14.6-8.4a228.73 228.73 0 0 0 30-19.32c9.74-7.38 19.63-14.56 29.4-21.9 6.61-5 34.91-32.67 39.36-37.53 6.68-7.31 12.6-15.33 19.4-22.51 9.12-9.63 17.08-20.19 25.47-30.39 3.36-4.09 7-8 10-12.31 9.76-13.72 19.52-27.45 28.88-41.45 5.5-8.23 10.37-16.89 15.28-25.5 3.28-5.73 6.35-11.6 9.13-17.58 4.44-9.58 8.46-19.35 12.9-28.93a23.8 23.8 0 0 0 2.13-9.58c.08-2.8-.93-5.31-3.52-6.66-9-4.68-36.21-34.47-41.41-43.44-2-3.4-4.76-6.33-7.13-9.51-5.32-7.15-10.8-14.19-15.85-21.53-4.87-7.07-9-14.61-14-21.65a92.85 92.85 0 0 1 -9.09-16.45c-5.89-13.64-11.76-27.29-17.42-41-3.65-8.84-7.17-17.74-10.29-26.78-2.68-7.77-4.67-15.79-7-23.67-2.76-9.16-5.16-18.36-5.43-28a48.63 48.63 0 0 0 -1.34-7.76c-1.8-9.07-3.62-18.11-3-27.46.28-4.29-1.37-25.64-1.48-29.58-.28-10.2-.81-50.93 0-56.13.19-1.3 3.5-26.75 3.48-31.31 0-13.29 2.52-26.21 5.44-39 2.56-11.22 5.88-22.27 8.65-33.45 1.76-7.1 19.75-57.17 21.84-62 2.73-6.37 5.87-12.62 7.9-19.21 3.66-11.86 10-22.24 16.39-32.67a10.87 10.87 0 0 1 3.36-3.52c1.6-1 3.31-2 5.52-.84a5.19 5.19 0 0 1 3 4.68c.41 5.16-1.78 9.67-3.6 14.26-1.94 4.91-4.45 9.62-6 14.63a225.9 225.9 0 0 1 -13.62 32.9 194.94 194.94 0 0 0 -12.24 31.3q-2.82 9.45-5.67 18.91c-2.76 9.15-5.62 18.24-6.94 27.77-.76 5.52-2.4 10.91-3.21 16.42-1.52 10.41-4.72 20.57-4.66 31.22a13.1 13.1 0 0 1 -.14 3c-2.19 10.32-2.63 20.85-3.8 31.29-.58 5.22-1.14 10.44-1.55 15.67-.28 3.62-.39 7.27-.37 10.9 0 7.61-.69 15.38.58 22.79 1.54 8.89 1.66 17.72 1.75 26.62a52.47 52.47 0 0 0 .23 7.93c1.84 11.35 4.3 22.6 5.92 34a134.36 134.36 0 0 0 3.84 18.34c2.83 9.81 6.25 19.45 9.27 29.2 1.06 3.45 1.68 7 2.48 10.57a78.87 78.87 0 0 0 5.43 16.89c3.14 6.53 5.64 13.36 8.51 20 6.54 15.24 53.68 88.35 68.24 101.47s39.43 30.39 45.66 34.4c14.72 9.47 70.39 38 79.74 41.23 3.43 1.17 63.27 19.74 77.42 22.91 4.81 1.07 58 11.85 104.9 10.53s106.57-13.8 111.71-14.85c13.93-2.83 27.22-7.72 40.52-12.63 16.7-6.16 33.72-11.42 49.68-19.55 12.38-6.31 24.73-12.63 36.31-20.32 13.75-9.13 27.84-17.83 39-30.42a93.16 93.16 0 0 0 10.77-14.15c4.37-7.39 8.72-14.82 13.59-21.89 7.18-10.43 11.25-16.3 17-33.52s5.13-48.22 4.83-51.49c-.66-7.2-.43-14.43-1.78-21.64s-2.69-14.23-5.22-21c-4-10.82-8.35-21.51-12.21-32.38-2.68-7.56-7.3-14-10.75-21.17-6.79-14-15.6-26.85-24.53-39.53-6.92-9.81-12.93-20.1-17-31.25-6.51-17.94-13.51-35.77-17.21-54.62-1.84-9.35-4.76-18.49-5.19-28.13-.11-2.57-1.11-5.12-1.82-7.64a2.07 2.07 0 0 0 -3.83-.49c-6.25 9.64-31.42 31.84-67.85 31.84s-51.85-33.26-54.55-40.72c-3.71-10.26-7.07-16.23-5-41.56s13.52-40.26 20.83-50.54c6.65-9.33 20.92-27.28 43.16-29.35s35.26-.64 42.45 5.8c3.93 3.52 10.34 9.77 14.12 13.46 1.1 1.08 2.64 2.68 4.23 1.49 1.16-.87 1.73-2.66 2.29-4.14a11.21 11.21 0 0 0 .15-2.95c1.05-14.14 2.4-66.81 3.72-78 1.55-13.05 4.49-72 4.68-78.94.13-4.6.06-22.83.06-24.42.05-11.24-1.51-22.37-2-33.55-.48-10.54-1.47-21-2.29-31.52a41.77 41.77 0 0 0 -.66-5.9c-2-8.69-3.62-17.35-3.77-26.36-.07-4.18.83-6.41 4.25-8.77a190 190 0 0 0 19.56-15.17c11.84-10.65 24.75-19.79 38-28.46 7.19-4.69 14.75-8.92 21.52-14.15 9.5-7.33 18.88-14.34 30.37-18.68s20-2.76 27.57-13 8.54-11.63 10.95-18.55c1.12-3.21.47-4.58-2.31-6.53-1.82-1.39-3.71-1.36-5.68-1.55zm-443 268.83a27.18 27.18 0 0 1 8-7.32c11.94-8 25.11-13.12 38.78-17.05 6.63-1.91 13.42-3.29 20.16-4.8 5.11-1.15 10.23-2.36 15.41-3.09a9.29 9.29 0 0 1 8.74 3.69 4.4 4.4 0 0 1 .75 3.55c-1.08 3.25-3.09 5.68-6.72 6.61-6.69 1.73-13.3 3.73-20 5.59-4.43 1.25-8.85 2.56-13.31 3.67-10.05 2.5-19.07 7.25-27.91 12.45-3.69 2.17-7.46 4.24-11.31 6.11a34.06 34.06 0 0 1 -5.31 1.76c-3.72 0-6-.54-7.34-2.72a7.62 7.62 0 0 1 .1-8.45zm97.73 217.78a61.38 61.38 0 0 1 -6.94 17.3c-1.53 2.5-3.17 5.24-5.45 6.93-9.82 7.24-19.59 14.63-30 21-14.47 9-30.67 12.15-47.49 10.2-10.22-1.19-20-4.88-27.64-12.16-10.33-9.78-19.93-20.22-27.07-32.71a84 84 0 0 1 -11.55-41.36c-.19-16.31 2.11-32.26 7.79-47.45 6.23-16.64 15.82-31.17 30.7-41.61 3.52-2.47 6.83-5.23 10.45-7.53 10.22-6.51 21.31-10.26 33.59-10.13 8.58.09 17.11.29 25.55 2.23a43.5 43.5 0 0 1 24.61 15.56 119.7 119.7 0 0 1 24 50.46c2.54 11.59 4.91 23.19 4.45 36 .67 10.9-2.11 22.06-5 33.27zm15.36-295.52a13.23 13.23 0 0 1 -4.86 3.21 83.24 83.24 0 0 1 -9.61 2.13c-6.76 1.35-13.53 2.63-20.3 4a25.13 25.13 0 0 0 -3.81 1c-18.53 6.84-37.37 13-54.12 23.92a25.18 25.18 0 0 1 -5.32 2.59c-3.46 1.25-6.29.11-8.49-3.15a3.91 3.91 0 0 1 -.61-3.7 18.58 18.58 0 0 1 5.39-8.19c6.81-5.8 14.06-11 22.38-14.39s16.43-6.87 24.88-9.61c8.11-2.64 16.47-4.55 24.8-6.43 5.42-1.23 11-1.83 14.59-2.4 5.88.48 9.88-.53 13.58 1.8 3.35 2.08 4.32 6.49 1.54 9.22zm9.1-262c-1.34 3-2.4 6.14-3.47 9.25-6.66 19.34-32.74 92.69-42.69 92.67s-5.47-10.19-4.1-13.47c4.7-11.26 9.81-22.35 14.59-33.58 3-7 5.67-14.06 8.39-21.14 4-10.46 8.79-20.61 11.92-31.42 1.73-6 3.29-12.09 6.7-17.51 1-1.61 1.22-3.75 1.66-5.67.07-.32-.5-.86-.88-1.17a1 1 0 0 0 -.91.16c-1.75 1.94-3.8 3.72-5.11 5.94-5.37 9.1-11.5 17.68-17.59 26.3a138.33 138.33 0 0 0 -7.51 11.65c-6.18 10.92-12.31 21.87-18.18 33-3.08 5.83-5.55 12-8.35 18-1.13 2.39-2.57 4.63-3.6 7.06-1.12 2.66-3.14 4.1-5.64 5.23-1.84.83-3.77 1.91-5.52.44s-3.19-3.68-2.7-6.07a36.77 36.77 0 0 1 3-9.32c3.14-6.15 6.21-12.33 9.32-18.49a532.46 532.46 0 0 1 30.57-52.1 447.88 447.88 0 0 1 32.16-42.69c3-3.53 6.37-6.72 9.68-10a17.19 17.19 0 0 1 3.28-2.12c2.09-1.26 4.31-1.86 6.52-.44 2.82 1.82 3.9 5 3.06 8.49-3.75 16-7.77 31.94-14.56 47zm114 272.8c1.23-2.1 5.41-3.79 7.83-3.08.94.27 1.79.82 2.72 1.16 6.37 2.31 11.44 6.65 15.89 11.42 7.86 8.4 15.25 17.25 22.62 26.09a24.69 24.69 0 0 1 6.17 18.69 5.49 5.49 0 0 1 -.08 2.42 6.05 6.05 0 0 1 -2 3.14 4.72 4.72 0 0 1 -5.51-.57 23.32 23.32 0 0 1 -2.83-4 150.52 150.52 0 0 0 -38.3-43.36 51.13 51.13 0 0 1 -5.09-4.67c-1.82-2-2.42-5.44-1.36-7.26zm51 111.89a11 11 0 0 1 -6.24-4.51c-2.27-3.63-5-7-7.13-10.68a86.93 86.93 0 0 0 -14.14-17.69c-9.18-9-18.25-18.16-27.29-27.31a55.66 55.66 0 0 1 -5.05-6 12.35 12.35 0 0 1 -1.65-3.55 4.54 4.54 0 0 1 2.55-5.89 4.59 4.59 0 0 1 1.71-.32 13.57 13.57 0 0 1 9.18 2.86 168.54 168.54 0 0 1 31.32 29.93c7.33 8.89 14.29 18.09 19.59 28.41a43.41 43.41 0 0 1 3 6.22 11.6 11.6 0 0 1 .23 4.87c-.24 2.45-3.57 4.43-6 3.64z"></path></g><path d="m2242.06 548.79c-35.55 3.86-62.5 14.27-67.94 16.51-14.34 5.91-28.89 11.34-42.52 18.87-5.78 3.2-11.8 6-17.71 8.93-1.77.89-3.53 1.79-5.35 2.57-4.93 2.11-9.71 1.52-14.25-1.13a40.91 40.91 0 0 1 -3.94-3c-8.1-6.24-15.39-13.52-24.28-18.75-4.84-2.84-9.66-5.73-14.38-8.76-13.47-8.67-27.78-15.12-43.86-17.07a7.34 7.34 0 0 1 -1.88-.59 5 5 0 0 1 -3-6.25c1.45-5.73 3-11.46 4.58-17.15 2.61-9.18 5.63-18.26 7.92-27.52 4.67-18.85 7.47-38.05 10.08-57.27.75-5.54.88-11.24 2.27-16.61 2.28-8.83 1.61-17.71 1.66-26.6 0-5.48-2.15-10.41-5.18-14.76-5.56-8-13.17-11.94-23.09-9.9a31.6 31.6 0 0 0 -7.44 2.6c-6.84 3.32-13.53 6.94-20.37 10.26a71.78 71.78 0 0 0 -15.65 10.38c-13 11.29-25.66 22.88-38.43 34.39-1.47 1.32-21.78 21.2-23.74 23.82-10.28 13.73-22.2 26.32-29.59 42.07a15.72 15.72 0 0 1 -1.62 2.5c-9.2 12.62-16.12 26.52-22.84 40.54-3 6.25-10.75 27.89-11.53 32.51a10.92 10.92 0 0 1 -8.89 9.47c-3.8.88-7.33 2.89-11 4.29-3.08 1.17-41.78 16.42-52.66 22.75-14 8.14-97.3 58.9-110.61 69.23-12 9.32-24.1 18.41-36.87 26.74-15.47 10.1-30.9 20.34-45.47 31.81-11.4 9-23.49 17.1-35.23 25.66-3.73 2.73-7.33 5.62-10.94 8.51-12.14 9.69-24.3 19.35-36.34 29.15-5.39 4.38-10.27 9.39-15.82 13.53-13.48 10.07-25.93 21.46-39.87 31a36.1 36.1 0 0 1 -12.45 5.48c-11.18 2.65-22.37 5.33-33.21 9.26-14.55 5.28-29 10.7-43.86 15.3a315.34 315.34 0 0 0 -31.47 11.85 154.85 154.85 0 0 1 -21.51 7.23 65 65 0 0 1 -19.55 2.6 15.47 15.47 0 0 1 -12.06-5.87 42.51 42.51 0 0 1 -5.61-9.27c-2.38-5.42-4.31-11.05-6.31-16.63-5.13-14.28-9.94-28.67-15.38-42.82a157.94 157.94 0 0 1 -7.59-24.51c-.6-2.89-7.93-38.32-12.4-52.81-2.82-9.12-9.13-39.77-10.25-60.17-.73-13.42 8.44-33.59 12.13-37.93 2.77-3.28 24.15-30.13 33.18-39.33 2.32-2.36 20.58-27.85 21.92-30.1 1.87-3.11 4-6.1 5.78-9.23a27.38 27.38 0 0 0 2.43-5.41c1.12-3.42-.41-6.5-3.67-8.21-2.72-1.42-5.54-2.27-8.58-1.6-7.73 1.72-15.39 3.93-22 8.25-13 8.47-26.18 16.71-38.15 26.69a24.9 24.9 0 0 1 -6.78 3.86c-.73.29-2.64-.81-3.08-1.73a11.6 11.6 0 0 1 -.69-4.81c-.06-11.59 0-23.18-.07-34.77 0-5.29-5.81-39.63-8.14-51.56a117.56 117.56 0 0 0 -5-18.91c-1.17-3.1-12.94-35-23.61-34.54s-10.9 7.06-11 12.52c-.17 13.9 1.71 85.47 3.26 88.95a8.91 8.91 0 0 1 .3 3.91 1.86 1.86 0 0 1 -1 1.39c-.5.14-1.55-.17-1.7-.55-1.13-2.72-2.06-5.52-3.1-8.28-1.39-3.68-2.46-7.55-4.3-11-5-9.31-10.19-18.49-15.46-27.64a96.35 96.35 0 0 0 -7.56-11.62 267.07 267.07 0 0 0 -26.52-29.43c-4.1-3.86-9.32-5.19-14.41-5.78s-10.08 4.29-10.79 9.72c-.47 3.54-.55 7.1 1.2 10.64 6.1 12.37 11.37 25.12 16.58 37.88 4.73 11.6 20 45.52 20.94 48a13.51 13.51 0 0 1 .47 4.86c0 .39-.79 1.06-1.27 1.11a1.93 1.93 0 0 1 -1.65-.7c-1.25-2.66-2.19-5.48-3.55-8.08-2.59-5-5.36-9.83-8.13-14.7-5.71-10-11.16-20.24-18.85-29-3.14-3.61-17.67-23.06-29.58-31.09-9.45-6.38-16.49-2.69-20.23 1.33-8.47 9.06 12 46.29 17.19 58.08 4.5 10.3 9.42 20.37 14.54 30.37 2 3.82 8 21.23 11.12 25.23a2.57 2.57 0 0 1 .1 1.85c-.23 1.07-4.1 2.6-5.09 2-2-1.19-4.19-2.18-5.8-3.77-6.35-6.28-12.93-12.4-18.63-19.24-9.14-11-19.81-20.39-29.29-31a48 48 0 0 0 -5-4.77 49.52 49.52 0 0 0 -5.56-4c-3.74-2.32-7.11-2-11 .51-3.54 2.33-5.13 4.9-4.59 8.94a17.53 17.53 0 0 0 .67 3.87c3.44 9.28 7.06 18.4 12.58 26.8 7.44 11.3 14.09 23.13 21.06 34.74a23.5 23.5 0 0 1 1.79 3.54c4.32 11 8.92 22 12.79 33.21 4.31 12.51 4.55 25-.42 37.73-4.19 10.71-7.28 21.86-10.68 32.87-6.22 20.15-11.26 40.61-16.76 60.94a180.17 180.17 0 0 0 -4.61 22.19c-1 7.49-2.35 14.92-3.6 22.38-1.08 6.48-2 13-2.56 19.55-.42 4.6-1.77 23-1.89 27.57-.36 14.5-.34 29-1.76 43.49-1.18 12.15-.51 24.47-.62 36.72-.06 7.61.41 19-16.77 27-9.56 4.48-19.23 8.72-28.7 13.37-6.22 3.06-12.2 6.58-18.28 9.93-2.31 1.28-4.59 2.61-6.86 4-11 6.65-22.13 13.19-33 20-9 5.61-17.91 11.26-26.43 17.49-15.46 11.3-30.86 22.7-45.79 34.72-11.34 9.14-22.17 18.83-32.91 28.63a407.26 407.26 0 0 0 -35.61 37.06 21.79 21.79 0 0 1 -3 2.59c-2.26 1.9-4.59 3.71-6.8 5.67-2 1.74-3.81 3.67-5.79 5.42a1.78 1.78 0 0 1 -1.53 0c-.48-1.26-6-16.54-11.42-27.14-7.79-15.21-21.51-38.78-22.79-40.7-6.25-9.37-10.92-19.59-15.86-29.66-.73-1.48-1.4-3-2.22-4.43-7.68-13.49-15.44-26.94-23.08-40.45-3.09-5.46-5.88-11.08-8.93-16.56s-6.23-10.89-9.39-16.31c-7-12-13.68-24.15-21.08-35.88-9.69-15.37-19.41-30.77-30.11-45.44-12.06-16.52-25.77-31.84-36.64-49.27-.52-.84-1.25-1.53-1.85-2.33-6.36-8.43-13.67-16.13-19.34-25.1-3.55-5.64-8.27-10.28-12.83-15.09-7.05-7.44-13.87-15.1-20.7-22.74-3.75-4.19-7-8.85-11-12.73a387.7 387.7 0 0 1 -28-29.47c-1-1.2-1.29-2.16-.12-3.34 4.09-4.12 5.63-8.75 3.33-14.44a18.09 18.09 0 0 1 -.9-5.84c-.29-6.28-1.82-12.31-3.21-18.4-1.93-8.4-5.44-16.26-7.75-24.51-1.16-4.12-2.14-8.39-4-12.18-6-12.14-12.06-24.29-18.72-36.07-9.59-17-20.05-33.45-29.55-50.46-6.5-11.66-13.72-22.56-23.81-31.44-6-5.28-10.72-11.65-15-18.37-2.49-3.89-5.18-7.66-7.83-11.45a28.17 28.17 0 0 0 -3.07-3.9c-3.54-3.56-6.74-7.8-12.83-4.16s-1.6 12.89-1 14.35c2.27 5.46 3.87 11.28 7.69 16 7.72 9.53 13.72 20.23 20.26 30.53 7.26 11.43 14.08 23.15 20.69 35 2 3.56 5.3 7 4.29 11.69-.37 1.76-3.76-1.44-8.7-9.25a165.45 165.45 0 0 0 -24.64-30.86 219.39 219.39 0 0 1 -18.53-19.55 101.1 101.1 0 0 0 -14.06-14c-12.47-10.32-25.29-20.22-37.9-30.37-6.94-5.59-13.74-11.37-20.64-17-2.8-2.29-5.86-4.31-8.52-6.75-5.36-4.92-10.47-10.12-15.82-15.05a26.58 26.58 0 0 0 -6.43-4.5c-3.9-1.85-9.28 1.14-9.51 5.5-.16 3.13-1.44 5.7-2.46 8.45-2.42 6.48-1.28 10.5 3.9 14.9 4 3.4 8 6.9 11.76 10.59 15.1 14.82 29.13 30.71 45.09 44.66 3 2.6 5.76 5.65 9.19 7.45 5 2.61 7.93 6.82 10.95 11.14a1.25 1.25 0 0 1 -.43 1.7 1.28 1.28 0 0 1 -.81.16c-1.58-.2-3.74-.1-4.59-1.07-4.48-5-10.36-8.16-15.54-12.2-9.12-7.1-18.43-14-27.81-20.7-12.64-9.09-26.43-16.29-39.88-24a116 116 0 0 0 -16.84-8.31c-8.32-3.16-16.76-6-25.58-7.25-6.32-.93-8.33 1-8.71 7.52v2a4.73 4.73 0 0 0 2.49 4c.81.53 1.81.76 2.68 1.22 4.44 2.35 9.33 3.06 14.12 4.29a128.3 128.3 0 0 1 21.64 8c2.59 1.19 5.22 2.29 7.76 3.58 8.82 4.49 17.18 9.86 25.81 14.73a316.77 316.77 0 0 1 38 25c11.51 8.88 22.81 18 34.07 27.22 7.66 6.27 15.1 12.82 22.61 19.27 5.54 4.76 9.88 10.63 14.8 16a165.08 165.08 0 0 1 19.84 25.82 83.28 83.28 0 0 0 5.68 8.13c5.52 7 11 14 15.3 21.86 1.23 2.21 3.44 3.93 5.35 5.71 1 1 3.35.52 4.57-.6a4.8 4.8 0 0 0 1.63-5.36c-1.85-5.29-3.75-10.56-6.76-15.36-3.34-5.31-6.56-10.69-9.88-16-2.28-3.64-4.48-7.35-7-10.84-14-19.64-29.09-38.48-44.55-57-6.14-7.35-12.26-14.73-18.66-21.85-8.84-9.84-17.7-19.68-27-29.1-8.8-9-18.16-17.37-27.24-26-3.82-3.65-7.27-7.71-11.94-10.4a9.66 9.66 0 0 1 -2.84-2.71c-1.47-2-2.76-4.2-4.12-6.32 3.37-1 4.14 2.43 6.22 3.63a14.23 14.23 0 0 1 1.59 1.18c8.33 6.48 16.82 12.76 24.92 19.5 11.43 9.51 22.53 19.41 33.84 29.07s22.73 19.14 34 28.78c13.4 11.43 24.76 24.78 35.82 38.39a97 97 0 0 1 9.72 14.93c4.89 9 9.89 18 15.25 26.67 5.22 8.48 10 17.07 13 26.63 1.56 5 4.33 9.58 7.29 14a3.44 3.44 0 0 0 4.4 1.1 4.68 4.68 0 0 0 2.14-2.94 23 23 0 0 0 -1.44-9.68c-2.1-5.53-3.78-11.22-5.56-16.87-3.28-10.37-7.72-20.3-11.93-30.3-2.17-5.14-5.09-10-7.13-15.16s-4.78-10-6.91-15.15c-5.59-13.4-11.27-26.75-18.18-39.54a1.77 1.77 0 0 1 -.3-.92c.06-.6.08-1.39.45-1.71a1.77 1.77 0 0 1 1.71-.14 25.15 25.15 0 0 1 3.68 4.49c2.94 5.13 5.21 10.61 8 15.83 9 16.55 17.54 33.32 26.28 50 4.3 8.2 8.64 16.37 12.94 24.56a106 106 0 0 1 8.79 20.94c2.36 8.57 5.25 17 7.85 25.51 1.82 6 3.65 12 5.23 18 1.1 4.21.13 5.67-4.06 7.44-1.22.52-2.44 1-3.64 1.58-2.53 1.19-2 4-3.1 6-.9 1.52.43 2.41 1.11 3.46 3.59 5.54 8.46 10 12.58 15.09 6.93 8.51 14.8 16 22.48 23.74 3.25 3.27 6.13 6.91 9.08 10.47 4.65 5.59 9 11.45 14.29 16.47 12.34 11.6 22.76 24.87 32.93 38.33 10 13.18 19.4 26.73 29.5 39.78q16.41 21.2 31 43.63c2.17 3.32 4.12 6.81 6.57 9.92 8.83 11.23 15.42 23.84 22.41 36.19 8 14.09 16.51 27.86 23.51 42.48a7.36 7.36 0 0 0 .42.9c9 15 18.67 29.64 25.92 45.65.54 1.19 1.4 2.24 2 3.4 6.3 11.23 13.1 22.22 18.19 34.09 4.18 9.75 9.53 18.86 14.84 28 4 6.9 16.08 35.15 17.13 38.63a5.92 5.92 0 0 1 -1.15 6.27 253.17 253.17 0 0 0 -23.06 33.3c-2.9 5-7.34 8.44-11.13 12.55a3.14 3.14 0 0 1 -2.73.32 3 3 0 0 1 -1.85-1.94c-.84-8.87-2.87-17.52-4.6-26.24-1.48-7.4-2.49-14.91-4.07-22.29-.82-3.87-19.49-59.42-25.18-72.42-8.21-18.79-17.87-36.84-27.15-55.08-.15-.3-.39-.54-.56-.82-3.79-6.59-7.54-13.19-11.38-19.75-2.66-4.55-5.21-9.21-8.21-13.54-12.82-18.45-26.2-36.52-38.61-55.24-15.53-23.42-32.63-45.7-48.65-68.75-3.58-5.15-7.3-10.28-10.15-15.84a85.58 85.58 0 0 0 -15.95-21.33c-7.21-7.28-14.19-14.76-20.91-22.54-6.23-7.2-11.15-15.44-18.35-21.93-7.56-6.81-15.23-12.46-26.05-11.56-1.31.11-2.66-.12-4 0-4.11.52-7.91-.71-11.53-2.27-4.84-2.1-9.53-4.55-14.2-7a30.7 30.7 0 0 1 -5.7-3.79c-5.76-4.9-11.38-10-17.11-14.92a22.73 22.73 0 0 0 -3.36-2 6 6 0 0 1 -3-4.78c-.51-4.09-2.78-7.07-5.89-9.88a201.85 201.85 0 0 0 -20.29-15.86c-4.61-3.2-9.05-6.66-13.65-9.87-8.91-6.22-17.22-13.24-26.28-19.29-8-5.31-16.1-10.34-24.19-15.43-11.46-7.2-22.5-15.09-34.77-20.94a51.78 51.78 0 0 1 -5.14-3 267.49 267.49 0 0 0 -46.85-23.55 68.15 68.15 0 0 1 -13.37-6.4 71.83 71.83 0 0 0 -15.84-8 2.56 2.56 0 0 1 -1.41-1.24c-.19-.46 0-1.59.26-1.66a7.92 7.92 0 0 1 3.69-.5c4.13 1.07 8.16 2.51 12.28 3.63 10.83 3 21.63 5.91 31.43 11.65a42.34 42.34 0 0 0 6.41 2.59c8.63 3.27 17.35 6.31 25 11.69 1.62 1.13 3.46 1.94 5.18 2.93 14 8 28.28 15.77 41.42 25.31a65.39 65.39 0 0 0 9.27 5.71c9.89 4.89 18.84 11 26.11 19.37a21.94 21.94 0 0 0 8 5.7 3.27 3.27 0 0 0 3.62-.82c1.41-1.23 2-2.93 1.14-4.43a34.07 34.07 0 0 0 -4.65-6.35c-14.65-15.86-31.29-29.43-49-41.62-15.53-10.66-31.31-21-46.88-31.55-11.76-8-23.58-15.84-36.33-22.23-4.42-2.21-8.58-5-12.81-7.56-5.62-3.46-11.13-7.11-16.81-10.48-2.23-1.32-4.85-1.95-7.17-3.13-2.63-1.34-5.15-2.92-7.66-4.47a14.67 14.67 0 0 1 -2.25-1.91c-.22-.21-.48-.77-.4-.85.39-.41.93-1 1.36-1 4.93.53 9 4.2 14.11 4.07 22.15 7.55 44.49 14.61 65.35 25.51 6.43 3.36 13.12 6.22 19.71 9.27a159.63 159.63 0 0 1 23.43 12.87c7.08 4.85 14.26 9.59 21.53 14.15 10.12 6.33 19.76 13.22 28.28 21.64a73.44 73.44 0 0 0 22.33 14.66 13.94 13.94 0 0 0 5.71 1c2.62 0 5-3.29 4.12-5.66a32.38 32.38 0 0 0 -3.59-7c-2.46-3.52-5.24-6.81-7.9-10.18-9.47-12-20.44-22.54-31-33.47a159.41 159.41 0 0 0 -26.74-22q-34.35-22.68-66.42-48.48a40.12 40.12 0 0 0 -9.39-5.42 32.69 32.69 0 0 0 -4.55-1.38 33.56 33.56 0 0 1 -7.61-2.61c-2-1.07-5.44 1.72-5.62 4-.25 2.94.73 5.2 3.34 6.64a101.54 101.54 0 0 1 13 8.94 277.53 277.53 0 0 0 31.91 21.72c9.43 5.42 18.18 12 27.15 18.21 5.17 3.56 10.17 7.36 15.26 11s10.06 7.51 15.31 10.93 8.18 9.44 13.65 12.67c.39.23.45 1 .66 1.56-.61.21-1.38.77-1.8.57-4.77-2.2-10.2-3.68-14.08-7-9.42-8-20.19-13.81-30.89-19.62-15.68-8.51-31.75-16.3-47.7-24.31-3.53-1.77-7.21-3.29-10.89-4.74-11.33-4.46-22.84-8.47-33.88-13.67a12.43 12.43 0 0 0 -3.68-1.44c-8-1-15.06-4.61-22-8.27-5.66-3-11.55-2.17-17.43-1.83-1.21.08-2.4 1.07-3.54 1.73-1.86 1.08-2.16 3-1.21 5.15.72 1.68 3.35 2.48 2.36 4.94-2.18 5.4.76 8.82 4.64 11.78 1.82 1.39 3.93 2.4 5.82 3.7 6.25 4.29 13.15 7.46 19.69 11.25 8.23 4.79 16.23 10.17 25.39 13.37a34.77 34.77 0 0 1 10.23 6 43.29 43.29 0 0 0 13 7 59.8 59.8 0 0 1 13.18 6.67c3.82 2.56 7.55 5.28 11.32 7.92.78.54.72.94-.27 1.27a3.13 3.13 0 0 1 -1 .18c-2.22.09-3.75-1.35-5.14-2.67-3.2-3-7.09-4.87-11-6.49-18.28-7.52-36.91-14.06-55.79-19.86-7-2.14-14.09-3.48-21.45-3-3.37.24-6.28 3.55-5.64 6.82a67.4 67.4 0 0 0 3 11.36 10.78 10.78 0 0 0 4.23 5.26 120.64 120.64 0 0 0 14.24 6.79c6.71 2.75 13.51 5.28 20.34 7.72 7.78 2.78 15.49 5.75 22.42 10.28a305.19 305.19 0 0 0 34.62 19.22 85.78 85.78 0 0 1 15.21 9.25c2.73 2.09 5.41 5 9.36 5.19q7.37 4.92 14.71 9.87c.24.16.3.57.44.86-.6.16-1.36.63-1.78.42-4.67-2.42-9.22-5.1-14-7.37-2.64-1.26-6-1.24-8.31-2.87-5.78-4.11-12.57-5.8-18.81-8.77-11.06-5.25-22.53-9.24-34.86-10.55-5.85-.62-11.59-2.22-17.4-3.28a9.94 9.94 0 0 0 -7.56 1.62c-1.5 1-2.07 2.81-1 4.16 1.41 1.71 2.91 3.36 4.37 5-3.27 1.61-4.37-2.2-6.79-2.71-2.26-.47-4.51-1-6.79-1.34s-3.5 1.37-4.62 3-.49 3 .46 4.53c2 3.06 5.25 3.94 8.32 5 14.31 5 28.61 10.1 42.51 16.18 9.37 4.1 18.92 7.68 28.58 11.06 8.71 3 17.25 6.57 25.68 10.41 20.09 9.15 40.41 17.79 60.61 26.69 6 2.65 11.41 6.56 18 8 1.2.26 2.16 1.5 3.28 2.19 1.69 1 3.32 2.44 5.17 2.9 6.86 1.72 12.3 6.24 18.59 9a27.49 27.49 0 0 1 7.93 5.76c3.71 3.59 7.21 7.62 12.23 9.65.35.13.48.8.71 1.22-.61.17-1.4.68-1.8.46-7.51-4.06-15.19-7.87-22.41-12.4-11.49-7.21-23.76-12.83-36-18.49-2.37-1.09-5.07-1.52-7.38-2.71-15.63-8.1-32.54-12.69-49.24-17.72-13.57-4.1-27.23-7.8-40.2-13.67-6-2.72-12.19-5.26-18.72-6.15a120.56 120.56 0 0 1 -19.21-4.55c-11-3.41-22.44-5.13-33.69-7.48-3.51-.73-7.26-.49-10.88-.35-3.06.11-5.22 2.53-5.8 5.82-.3 1.74.68 3.65 2.22 3.91 8.42 1.47 16.55 4.15 24.86 6 9.36 2.06 18.5 4.63 27.62 7.52 10.36 3.28 20.87 6.09 31.32 9.06 15.82 4.51 31.71 8.8 47.46 13.53 12.94 3.88 25.77 8.1 38.56 12.45a110.18 110.18 0 0 1 29.77 15.48 81.61 81.61 0 0 0 10.12 6.17c9.06 4.78 18.43 9 26.74 15.08 3.57 2.61 7.17 2.91 11.23 2 2.55-.56 5.16-.84 7.75-1.24 11.07-1.74 21.61 1.15 32.14 3.86a13.34 13.34 0 0 1 6.12 3c5 5.21 11.18 9.22 15.1 15.65 3.06 5 7.24 9.44 11.22 13.84 8 8.83 16.26 17.4 24.24 26.24a50.88 50.88 0 0 1 7 9.57 109.43 109.43 0 0 0 11.32 17.42 67.65 67.65 0 0 1 6.48 8.76 191.68 191.68 0 0 0 18.74 26.78c13.31 16.19 23.81 34.19 35.7 51.19 8.72 12.43 17.26 25 26 37.48 3.58 5.15 6.83 10.53 10 15.93q7.34 12.35 14.39 24.87c4.06 7.19 8.1 14.39 11.84 21.75 3 5.87 5.55 12 8.24 18q2.82 6.32 5.51 12.71c5.61 13.38 20.45 52.22 23.15 66.91s4.49 25.26 6.37 32.91a50.89 50.89 0 0 1 1.69 10.69c.16 6 .06 11.92 0 17.88-.16 11.89-4.5 22.5-10.75 32.29-4.25 6.66-30.94 48.85-33.59 53.4-.75 1.29-2.13 1-3.06-.4a25.82 25.82 0 0 1 -3.92-11c-1.29-9.25-4.81-17.76-8-26.42-3-8.12-7.94-15.21-11.39-23.08a169.13 169.13 0 0 0 -19.18-32.29 285.38 285.38 0 0 0 -29-33.88 21.46 21.46 0 0 0 -11-6c-4.55-1-9.29-1.64-13.59.43-5.32 2.55-10.61 5.06-15.4 8.85-7.24 5.73-14.61 11.27-21.61 17.35-2.54 2.2-24.53 24.47-42.63 51.45-21.65 32.24-40.44 71.2-50.32 90.59-18.16 35.6-24.42 51.84-30.49 70.34s-8 43.27-8 48.52c0 5.09 1.71 9.74 3.94 14.17a17.71 17.71 0 0 0 9.13 8.77c7.41 3 17 .21 22.39-6.22.83-1 1.61-2 2.53-2.93 9.41-9.31 19.09-18.36 28.22-28a119.54 119.54 0 0 1 23.92-19c.79-.49 2.3 0 2.45.85a24.23 24.23 0 0 1 .76 4.86c-.1 4.63 3.73 28 4 35.21a45.49 45.49 0 0 0 1.13 8.78c1.8 7.67 3.21 15.46 4.39 23.25a181.11 181.11 0 0 0 8.8 34.38c2.24 6.2 4.93 12.24 7 18.49a77.37 77.37 0 0 0 6.31 13.41 122.1 122.1 0 0 1 7.62 15 69.43 69.43 0 0 0 7.72 13.8c2.42 3.54 5.21 6.84 7.58 10.41 5.37 8.09 12.27 14.75 19.58 21a46.75 46.75 0 0 0 18.15 9.82c4.45 1.21 8.81 2.73 13.26 3.89a80.94 80.94 0 0 0 17.5 2.65c14.58.58 29-1.67 43.47-2.13 6.76-2.16 57.91-7.4 66.3-9 2.91-.55 5.88-.85 8.72-1.62 4.4-1.2 8.77-2.43 13.37-2.53 2.75 3.65 5.69 7.18 8.19 11a104.6 104.6 0 0 1 6.27 11.24c2.2 4.51 20.14 25.61 24.61 33.37a94.92 94.92 0 0 0 21.87 25.41 50.19 50.19 0 0 1 6.24 6.3 156 156 0 0 0 18 18.44c3.5 3 7.12 5.89 10.61 8.92 5.74 5 11.31 10.17 17.17 15a111 111 0 0 0 10.57 7.31c5 3.24 10.14 6.23 15.06 9.55q9.89 6.67 20.36 12.34c8.42 4.55 16.84 9.19 24.82 14.46a219.81 219.81 0 0 0 55.08 26.67c15.09 4.74 29.87 10.4 45.18 14.44 4.45 1.18 8.67 3.16 13 4.67 3.73 1.29 7.48 2.55 11.27 3.64q11.39 3.27 22.84 6.34c3.49.94 65.26 18 77.25 20.15a181.17 181.17 0 0 1 30.44 8.35c9.3 3.37 18.64 6.59 27.93 10a135.92 135.92 0 0 1 29.21 14.42c13 8.65 21.06 20.67 26.11 35.11a33.53 33.53 0 0 1 2 9.65c.22 4.89 4.14 40.31 3.62 75.24s-4.12 61.4-4 73.65a192.32 192.32 0 0 0 1.72 22.62c1.47 11.62 5.7 23.24 15.59 24.48 7.59 1 15.2.28 22.74-.56 6.84-.75 54.25-4.4 72.49-7.31s108.48-13.27 125.8-17 49.38-15.55 51.71-29.32c1-5.71-.82-14.13-20.49-21.27-20.85-7.57-56.33-13.31-69.18-16.32-4.29-1-7.16-3.4-3.36-10.64 3-5.81 11.36-23.6 19.27-39.48 14.38-28.87 32.2-59 39-68.84a133.34 133.34 0 0 0 11.36-20.87c3.66-8.13 13.81-25.59 16-57.62s-26-76-32.18-82.56c-3.19-3.37-6.58-6.54-9.77-9.9a109 109 0 0 0 -23.34-18.28c-8-4.83-8.5-8.68-1-13.76 9.08-6.14 16.71-14 25.31-20.66 1.55-1.2 27.45-22.81 32-27.69 1.85-2 3.83-1.73 5.89.75a44.75 44.75 0 0 0 11.44 9.38c3.37 2 6.69 4.18 9.86 6.51a102.46 102.46 0 0 0 17.67 11 28.46 28.46 0 0 1 11.32 9.45 56 56 0 0 1 8.29 16.76c5.11 16.71 8 33.94 11.81 50.93-.84 4.43 2.58 6.57 5.09 9a8.11 8.11 0 0 0 12.2-1.12 32.61 32.61 0 0 0 6.59-21.25c-.24-6.93 0-13.89.25-20.83a6.45 6.45 0 0 1 1.67-3.32c.78-1 .88-.85 1.75 2.35a60.69 60.69 0 0 1 2.39 14.59 43.66 43.66 0 0 0 1.51 9.5 200.71 200.71 0 0 1 4.45 24.22c.54 4.19 1.41 8.41 3.93 12a8.56 8.56 0 0 0 11.82 2.57 9.67 9.67 0 0 0 1.08-.83c5.86-5.08 8.3-12 8.91-19.29.71-8.5.52-17.05 1.42-25.61.81-7.74-1.23-26.23-1.26-27.55-.1-4 .24-7.91-1.22-11.78-.37-1 .51-2.46 1-3.63a1.55 1.55 0 0 1 1.44-.44 10.69 10.69 0 0 1 4.14 8.58c.08 3.31 3.81 43.25 4 48.17.14 4.63.13 9.28.5 13.89.51 6.12 3.65 10.47 9.56 12.58.9.32 2.13.75 2.83.4 3.72-1.92 7.77-3 10.41-7 4.31-6.66 8.36-13 9.81-21.22 1.89-10.75 4-21.32 2.89-32.32-.86-8.51-2-17-2.08-25.57 0-1.93-.83-3.84-1-5.79-.24-2.27-.27-4.58-.29-6.87 0-1 .55-1.23 1.29-.73a13 13 0 0 1 2.37 1.74c5.9 6.11 8.39 14 11.41 21.68.71 1.81 5 12.1 5.76 15.55 1.39 6.47 4.44 12.32 6.26 18.61a7.47 7.47 0 0 0 .81 1.8c3.65 6 11.57 6.62 15.8 1.07a28 28 0 0 0 5.73-16.56c.17-6-3.56-34.53-4.81-40a66.84 66.84 0 0 0 -4.39-14.08c-2.67-5.62-4.3-11.74-6.25-17.68a18.56 18.56 0 0 1 -.74-4.85 3.2 3.2 0 0 1 3-3.35 3.24 3.24 0 0 1 1.61.35 42.15 42.15 0 0 1 12.87 9.09c2.84 3 6.37 4.77 10 6.31a11.59 11.59 0 0 0 6.71.69c7.87-1.79 12.41-9 11.52-17.14a19.78 19.78 0 0 0 -4.23-9.87c-6.35-8.45-12.55-17-19-25.34-3.24-4.15-15.79-17.62-41.19-24.09s-38.27-9.59-42-10.83c-6.3-2.1-12.4-4.69-17.3-9.34s-10.18-9.5-14.84-14.65c-4.39-4.87-9.55-15.18-10-21.94s-.83-9.93 1.35-14.55a171.94 171.94 0 0 1 9-17.63 177.38 177.38 0 0 0 18.7-40.32c.71-2.25 1.37-4.41 3-6.17 1.21-1.32 2.42-1.46 4.33-1 3.49.82 29 15.14 36.76 18.92 22.27 10.94 46.34 23.2 69.81 31 17.17 5.67 34.85 9.77 52.29 14.62 6 1.67 53.66 9.43 65.16 10.09 3.91.22 35.52 1.49 47.44 1.49 0 .15 40.31-2.17 65-5.32s61.41-9.93 108.17-28.13 75.49-33.12 103.65-58.63 55.34-66.61 60.54-107.55 2-59.17-12.61-100.28-32.05-67.72-37.67-74.67c-11.44-14.13-17.77-30.89-24.76-47.24-7.15-16.73-9.87-34.8-13.73-52.46-2.18-9.94-5.44-41.38-8-46.59-.67-1.35-.29-3.24-.31-4.89-.06-6.27-.7-19.57-2-31.46s-2-14.3-3.06-21.42c-.2-1.29-.8-2.71-.46-3.85 2.42-8.1 1.36-16.37 1.45-24.58.07-5.62 1.7-22.66 1.81-25.58.33-8.92 5.69-109 6.74-114.51 1.44-7.54 1.51-15.06 1.76-22.64.66-20.18-3.76-73.75-4.37-79-.59-4.94 1.25-8.64 5.49-11.83 13.44-10.14 26.52-20.74 39.79-31.11 7.81-6.09 15.8-12 23.54-18.14 7-5.56 13.76-11.34 20.51-17.16a83.64 83.64 0 0 0 7-7.09c5.12-5.62 9.82-11.67 15.31-16.89 14.84-14.11 25.65-31 35.09-48.93.93-1.76 1.6-3.65 2.57-5.37 2.58-4.6 4.56-14.13 0-19s-16.01-9.13-51.56-5.27zm-1925.06 200.21c-.29.11-.65.38-.88.29a33.07 33.07 0 0 1 -3.58-1.51 310.84 310.84 0 0 0 -32.54-14.32c-9.24-3.46-18.26-7.55-27.22-11.72-11-5.14-22.11-10.25-33.45-14.72a67.48 67.48 0 0 1 -6.21-3.07c-3.54-1.76-7.06-3.52-11.06-4.16a17.26 17.26 0 0 1 -5.58-1.91 78.29 78.29 0 0 0 -22.07-8.28 3.32 3.32 0 0 1 -1.62-1.05 3.18 3.18 0 0 1 -.57-1.57 1.12 1.12 0 0 1 .78-.51c4.82.92 9.74 1.52 14.41 2.92 11 3.29 22 6.86 32.86 10.53a336 336 0 0 1 51.49 22.72c7.28 3.91 14.66 7.42 22.68 9.63a53.12 53.12 0 0 1 14.29 6.58c3.85 2.44 5.95 6 8.43 9.38.05.14-.16.49-.16.77zm1281.51 871.15a44.33 44.33 0 0 1 3.74 4.59c6.46 9 15.41 14.22 25.85 17.17q10.94 3.1 21.91 6c5.41 1.42 10.8 3.07 16.31 3.8a84.19 84.19 0 0 1 16.21 4.28 54.68 54.68 0 0 1 22.43 14c6.41 6.73 11.72 14.2 16.92 21.81a2.68 2.68 0 0 1 .26.83c-.6.11-1.41.53-1.79.29-3.31-2.15-6.53-4.46-9.82-6.64-10.86-7.21-22.92-11.54-35.55-14.28-7.69-1.67-15.51-2.79-23.3-3.93a29.85 29.85 0 0 0 -7.9 0 19.75 19.75 0 0 0 -6.56 1.87c-5.85 3-6.77 7.88-2.66 13.06a6.16 6.16 0 0 0 5.09 2.6q6-.07 11.91 0c3.64.06 7.27.35 10.91.35 5.93 0 10 2.61 12.4 8.06a35.29 35.29 0 0 0 3.19 5c1.1 1.64 2.55 3.13 3.27 4.92 3.53 8.84 8 17.32 10.14 26.69a209.64 209.64 0 0 0 5.84 21.9c2.27 6.48 2 12.91 1.67 19.47 0 .3-.88.62-1.4.8-.24.08-.79-.08-.86-.26-1.15-3.06-2.78-6-3.26-9.22-1.36-8.91-4.63-17.14-8.13-25.31a35.37 35.37 0 0 0 -3.61-5.83c-3.92-5.69-7.73-11.45-11.89-17a23.19 23.19 0 0 0 -11-8.09c-3.68-1.28-7.31-.43-9.31 2.82-3.25 5.27-4.58 10.87-2.94 17 2.27 8.56 4.49 17.13 6 25.89a61.86 61.86 0 0 1 .87 8.8c.19 7.61-.45 15.34.72 22.79 1.27 8-1.09 14.82-4.29 21.68a12.4 12.4 0 0 1 -1.68 2.39c-.61.75-3.25.15-3.43-.81a36 36 0 0 1 -1-6.77c.12-15.57-2.32-30.77-5.39-46a183.35 183.35 0 0 0 -6.2-23.83c-2-5.71-7.79-8.86-13.29-6.91-5 1.77-10.12 3.67-11.8 9.55-.43 1.5-.83 3.42-.26 4.71 2.74 6.23 2.71 30.6 4.62 36 .52 1.5.29 3.28.3 4.93 0 8.27-.09 16.55 0 24.83.08 4.67-1.71 9-2.2 13.53 0 .16-.43.4-.65.4s-.78-.12-.9-.34c-.58-1.14-1.62-2.37-1.51-3.47.6-6.09-1.26-11.78-2.68-17.49a144.13 144.13 0 0 1 -3.56-21.35 154 154 0 0 0 -6.08-29.9c-.84-2.79-2.6-5.29-3.84-8-1.36-3-3.87-4.42-6.73-5.46-6-2.17-11.49 1.52-11.6 7.93-.11 6 0 11.91 0 17.87 0 5 .25 10-.08 14.9-.28 4.22-1.21 8.4-1.89 12.59 0 .27-.37.5-.56.74-.26-.21-.62-.37-.74-.65-2.43-5.11-10.64-37.63-11.39-40.47-3.14-12-10.69-20.17-21.4-25.86-5-2.63-9.92-5.29-14.62-8.34a166 166 0 0 1 -21.6-17.25 2.4 2.4 0 0 1 -.09-3.39l.18-.17c5.87-5.8 10.13-13 16.69-18.25 3.06-2.44 5.55-5.63 8.12-8.62 12.28-14.27 24.75-28.39 35.72-43.72 4.81-6.7 9.14-13.74 13.69-20.63.72-1.1 1.35-2.28 2.15-3.32 1.3-1.7 4.88-1.88 6.18-.14a34 34 0 0 1 3.47 5.91 70.05 70.05 0 0 0 12.59 18.92zm631.65-989.35c-6.23 6.38-12.25 13-19 18.78a408 408 0 0 1 -32.71 25.6c-5.15 3.54-24 19-29 22.22a7.25 7.25 0 0 1 -2.65.82c-3.29.16-7.52-7.67-3.32-12.21s23.64-19.17 27-22.19c5-4.49 6.6-5.2 16.11-12s35.41-23.3 39.41-26.25 4.73-2.47 6.16-.89-.65 4.75-2 6.12zm46.11-59.56c-2.41 6.92-3.38 8.34-10.95 18.55s-16.09 8.63-27.57 13-20.87 11.35-30.37 18.68c-6.77 5.23-14.33 9.46-21.52 14.15-13.29 8.67-26.2 17.81-38 28.46a190 190 0 0 1 -19.56 15.17c-3.42 2.36-4.32 4.59-4.25 8.77.15 9 1.82 17.67 3.77 26.36a41.77 41.77 0 0 1 .66 5.9c.82 10.5 1.81 21 2.29 31.52.51 11.18 2.07 22.31 2 33.55 0 1.59.07 19.82-.06 24.42-.19 7-3.13 65.89-4.68 78.94-1.32 11.2-2.67 63.87-3.72 78a11.21 11.21 0 0 1 -.15 2.95c-.56 1.48-1.13 3.27-2.29 4.14-1.59 1.19-3.13-.41-4.23-1.49-3.78-3.69-10.19-9.94-14.12-13.46-7.19-6.44-20.21-7.87-42.45-5.8s-36.51 20-43.16 29.35c-7.31 10.28-18.82 25.21-20.83 50.54s1.34 31.3 5 41.56c2.7 7.46 18.12 40.72 54.55 40.72s61.6-22.2 67.85-31.84a2.06 2.06 0 0 1 2.81-.83 2 2 0 0 1 1 1.32c.71 2.52 1.71 5.07 1.82 7.64.43 9.64 3.35 18.78 5.19 28.13 3.7 18.85 10.7 36.68 17.21 54.62 4 11.15 10.06 21.44 17 31.25 8.93 12.68 17.74 25.5 24.53 39.53 3.45 7.12 8.07 13.61 10.75 21.17 3.86 10.87 8.2 21.56 12.21 32.38 2.53 6.81 3.88 13.89 5.22 21s1.12 14.44 1.78 21.64c.3 3.27.91 34.28-4.83 51.49s-9.8 23.09-17 33.52c-4.87 7.07-9.22 14.5-13.59 21.89a93.16 93.16 0 0 1 -10.77 14.15c-11.13 12.59-25.22 21.29-39 30.42-11.58 7.69-23.93 14-36.31 20.32-16 8.13-33 13.39-49.68 19.55-13.3 4.91-26.59 9.8-40.52 12.63-5.14 1-64.83 13.53-111.71 14.85s-100.09-9.46-104.9-10.53c-14.15-3.17-74-21.74-77.42-22.91-9.35-3.18-65-31.76-79.74-41.23-6.23-4-31.18-21.35-45.66-34.4s-61.7-86.23-68.24-101.47c-2.87-6.67-5.37-13.5-8.51-20a78.87 78.87 0 0 1 -5.43-16.89c-.8-3.53-1.42-7.12-2.48-10.57-3-9.75-6.44-19.39-9.27-29.2a131.41 131.41 0 0 1 -3.86-18.3c-1.62-11.4-4.08-22.65-5.92-34a52.47 52.47 0 0 1 -.23-7.93c-.09-8.9-.21-17.73-1.75-26.62-1.27-7.41-.54-15.18-.58-22.79 0-3.63.09-7.28.37-10.9.41-5.23 1-10.45 1.55-15.67 1.17-10.44 1.61-21 3.8-31.29a13.1 13.1 0 0 0 .14-3c-.06-10.65 3.14-20.81 4.66-31.22.81-5.51 2.45-10.9 3.21-16.42 1.32-9.53 4.18-18.62 6.94-27.77q2.85-9.45 5.67-18.91a194 194 0 0 1 12.24-31.3 225.9 225.9 0 0 0 13.62-32.9c1.59-5 4.1-9.72 6-14.63 1.82-4.59 4-9.1 3.6-14.26a5.19 5.19 0 0 0 -3-4.68c-2.21-1.15-3.92-.15-5.52.84a10.87 10.87 0 0 0 -3.36 3.52c-6.36 10.43-12.73 20.81-16.39 32.67-2 6.59-5.17 12.84-7.9 19.21-2.09 4.88-20.08 55-21.84 62-2.77 11.18-6.09 22.23-8.65 33.45-2.92 12.83-5.48 25.75-5.44 39 0 4.56-3.29 30-3.48 31.31-.76 5.2-.23 45.93 0 56.13.11 3.94 1.76 25.29 1.48 29.58-.61 9.35 1.21 18.39 3 27.46a48.63 48.63 0 0 1 1.34 7.76c.27 9.65 2.67 18.85 5.43 28 2.38 7.88 4.37 15.9 7 23.67 3.12 9 6.64 17.94 10.29 26.78 5.66 13.73 11.53 27.38 17.42 41a92.85 92.85 0 0 0 9.09 16.45c4.91 7 9.08 14.58 14 21.65 5 7.34 10.53 14.38 15.85 21.53 2.37 3.18 5.15 6.11 7.13 9.51 5.2 9 32.39 38.76 41.41 43.44 2.59 1.35 3.6 3.86 3.52 6.66a23.8 23.8 0 0 1 -2.13 9.58c-4.44 9.58-8.46 19.35-12.9 28.93-2.78 6-5.85 11.85-9.13 17.58-4.91 8.61-9.78 17.27-15.28 25.5-9.36 14-19.12 27.73-28.88 41.45-3 4.3-6.65 8.22-10 12.31-8.39 10.2-16.35 20.76-25.47 30.39-6.8 7.18-12.72 15.2-19.4 22.51-4.45 4.86-32.75 32.57-39.36 37.53-9.77 7.34-19.66 14.52-29.4 21.9a230.06 230.06 0 0 1 -30 19.32c-5 2.66-9.88 5.38-14.6 8.4a168.1 168.1 0 0 1 -28.29 14.18c-9.49 3.79-18.52 8.73-27.91 12.82-14.2 6.2-28.47 12.25-43.32 16.84-7.55 2.33-15.1 4.75-22.46 7.61-8.08 3.14-16.56 4.26-25 5.52-5.19.78-10.46 1.66-15.64 1.92-10.63.52-20.73 3.72-31.15 5.14-5.85.8-11.6 2.31-17.41 3.38-5.61 1-7.93 4.1-7.59 9.59.21 3.24 2.13 4.82 4.74 5.63 4.82 1.5 10 1.83 14.61.07 5.68-2.16 11.64-1.84 17.41-3 3.85-.75 7.77-1.07 11.65-2 8-1.88 15.83-4.32 24.14-5.08 6.46-.59 12.81-2.67 19.11-4.68 6.53-2.1 13.5-2.77 20.23-4.33 11.89-2.76 23.56-6.08 34.6-11.57 6.48-3.21 13.55-5.19 20.19-8.09 13-5.69 26-11.37 38.77-17.57 9.49-4.61 19.33-8.52 28.34-14.08q4.63-2.85 9.36-5.53a5.39 5.39 0 0 1 5.67.09c2.54 1.52 5.08 3.09 7.46 4.86 8.71 6.54 17.36 13.16 26 19.76a17.83 17.83 0 0 1 3 2.55q9.24 11 18.31 22.13a20.61 20.61 0 0 1 3.12 5.06c4.08 9.74 10 18.6 13.63 28.57a57.87 57.87 0 0 1 2.55 30.1c-1.2 7.14-2.19 14.25-4.34 21.24a141.37 141.37 0 0 1 -13.82 31.67c-4.09 6.79-8.3 13.52-12.85 20a190.19 190.19 0 0 0 -13.35 23.16c-7.19 14.13-14.68 28.11-21.94 42.21q-10.21 19.83-20.17 39.79a43.12 43.12 0 0 0 -3.28 9.29c-.93 4-.65 8 2 11.34a8.27 8.27 0 0 0 3.89 2.8 56.48 56.48 0 0 0 10.61 2.19c10.19.91 20 3.65 30.15 5 2.6.36 21.45 3 27.94 5.58 4 1.55 8.07 2.79 12.09 4.25 4.51 1.64 5.69 5.17 3.13 9.41-1 1.68-18.37 8.84-24.51 10.89-12.55 4.2-24.37 4-37.28 6.54-5.81 1.14-11.58 2.5-17.42 3.41-3.9.6-55.29 7.27-73.44 8.67-12.63 1-74.94 9.3-77.18 9.27-2.59-.05-9.37.57-11.93 0-7.34-1.63-8.28-6.63-9.81-14.7a57.78 57.78 0 0 1 -1.35-11.72c.06-3.64 0-7.28 0-10.93a67.83 67.83 0 0 1 1.28-14.71c1.07-4.74 5-36.17 4.7-47.11-.29-11.26-.65-22.52-.37-33.76.22-9-1.26-17.75-2.19-26.58-.78-7.5-2.27-14.93-3.68-22.35a108.22 108.22 0 0 0 -10.14-29.88c-6.08-11.66-15.24-20.91-26-28.13a185.94 185.94 0 0 0 -40.56-20.56c-9-3.22-18-6.35-27.19-9.06-7.55-2.23-15.32-3.74-23-5.65-4.15-1-8.35-2-12.38-3.41-14.31-5.08-72.25-18.61-85.15-21.1a18.76 18.76 0 0 1 -3.67-1.47c-19.1-8.26-39.28-13.36-58.92-20-12.5-4.24-25-8.4-36.9-14.23-7.45-3.65-49.46-28.42-55.9-31.79a153.17 153.17 0 0 1 -13.7-7.93c-5.8-3.8-11.31-8-17-11.92a98.67 98.67 0 0 1 -14.28-12.25c-5.36-5.39-21.3-19.29-23.42-21.38-7.76-7.68-15.41-15.47-23.21-23.12-5.25-5.15-15.52-20.38-28.2-38s-19.12-28.51-19.83-29.15c-.36-.33-.33-1.16-.34-1.76 0-.22.39-.57.66-.64 5.08-1.37 28.63-6.46 33-12.28a9 9 0 0 0 .84-9.43 8.4 8.4 0 0 0 -7.79-5.21c-6.71-.24-41.41 13.89-53.23 16.92-10.82 2.77-21.85 4.72-32.79 7-3.54.74-7.08 1.48-10.64 2.14-8.45 1.57-58.76 8.32-84.47 4.35s-38.74-6.46-64.78-52.24-26.7-69.36-28.3-77.43c-2.48-12.57-4.91-25.15-7.55-37.69-1.57-7.46-6.2-62.19-6.08-67.8.07-3.47-1.29-6.46-2.18-9.59-.79-2.75-3.27-4.13-6.08-4.18a5.4 5.4 0 0 0 -5.47 3.51 23.27 23.27 0 0 0 -1.88 6.58 57.54 57.54 0 0 0 -.27 11.88c.76 6.37-2.29 10.5-6.64 14.48-8.05 7.38-15.86 15-23.7 22.63-5.22 5.07-10.18 10.43-15.5 15.4-6.52 6.09-13.26 11.94-20 17.83a4.86 4.86 0 0 1 -6.83-.74 5 5 0 0 1 -.67-1.1 26.66 26.66 0 0 1 -1.77-7.63 91.23 91.23 0 0 1 6.24-37.73c5.34-13.83 11.64-27.28 16-41.53 1.52-5 4.57-9.51 6.83-14.29 3-6.27 5.63-12.67 8.75-18.85 5.63-11.2 10.52-22.8 17.41-33.33 3.43-5.25 27.74-47.49 32.06-53.36 2.73-3.72 15.73-20.94 21.19-27.64a222.92 222.92 0 0 1 25.49-26.38c6.43-5.67 13.36-10.77 20.22-15.93a9.58 9.58 0 0 1 11.18-.69 8.08 8.08 0 0 1 2.49 1.53c5.63 7.32 13.66 12.37 18.74 20.24 6.27 9.71 13.41 18.89 19.19 28.87 11.26 19.46 20.66 39.78 26.25 61.72 1.38 5.4 2.92 10.82 4.64 16.08 2 6.06.48 11.07-2.26 16-2.4 4.3-5.66 8.11-8.29 12.3a57.9 57.9 0 0 0 -5.58 10.41c-1.63 4.33 1.09 7.75 5.79 8.28a9.51 9.51 0 0 0 6.61-1.45 30.29 30.29 0 0 0 9.74-9.54c6-9.86 12.81-19.25 17.86-29.72 1.55-3.22 19.61-33.55 21.28-35.51 9.27-10.86 16.3-23.27 24.31-35 3.54-5.2 29.8-44.31 36.83-53.87q17.61-24 36-47.32a193.13 193.13 0 0 1 15.46-16.77c10.28-10.32 20.55-20.66 31.22-30.57 14.52-13.48 29.08-27 44.73-39.17.26-.2.5-.43.77-.62 16.32-11.81 32.6-23.67 49-35.39 4-2.88 8.31-5.42 12.57-7.94 8.81-5.22 17.67-10.35 26.53-15.48 15.71-9.1 31.49-18.06 48.21-25.24 3-1.3 6-2.77 9-4.17 4.14-1.94 7.76-.2 8.81 4.31.37 1.61.35 3.3.66 4.92.59 3.08 2.17 4.47 5.36 4.86a25.06 25.06 0 0 0 3 .21c5.13 0 7.39-2 7.47-7 .12-7 .11-13.91 0-20.86-.13-9.6-.41-19.19-.59-27.4.22-17.28.42-33.17.62-49.06a16.7 16.7 0 0 1 0-3c2.45-13.08 1.62-26.32 2-39.51a118.62 118.62 0 0 1 2.43-20.4c1.54-7.42 1.82-15 3.53-22.38 2.09-9 1.44-18.35 3.73-27.33 1.7-6.7 3-13.5 4.67-20.2 2-8 4.23-15.91 6.47-23.83 2.6-9.18 5.63-18.25 7.91-27.51a218.09 218.09 0 0 1 8.38-27.36 64 64 0 0 0 4-31.11 114.83 114.83 0 0 0 -4.83-21.12c-4.33-13.56-9.45-26.69-17.19-38.79-6.76-10.56-23.74-38.83-25.84-42.16a17.16 17.16 0 0 1 -1.4-3.58 1 1 0 0 1 .21-.91c.44-.29 1.12-.71 1.5-.56 2.12.84 13.32 15.94 17.83 21.45 6.7 8.16 14.28 15.61 21.5 23.35q3.72 4 7.48 7.94c1.13 1.21 2.21 2.48 3.44 3.58a16.55 16.55 0 0 0 21.79.85c1-.79 1.92-1.83 3-2.61 5.78-4.28 6.31-10.14 3.66-15.94-3.33-7.29-5.2-14.88-7-22.58a40.69 40.69 0 0 0 -3.28-8.24c-2.32-4.75-4.58-9.56-7.32-14.06-5.88-9.64-9.65-20.27-14.73-30.28-1.78-3.52-8.78-17.48-10-21.17-.39-1.24 1.25-2.59 2.44-2.27 4 1.07 21.63 22.4 27.65 30.24a211.54 211.54 0 0 1 19.92 31.85c4.87 9.38 10 18.64 14.84 28a5 5 0 0 0 4.77 2.83h2c7.68-.07 12.67-5 13.35-12.83.47-5.48-1.44-10.44-3.14-15.33-4.77-13.7-10-27.24-15-40.85-.57-1.54-11.35-25.61-16.44-35.22-1.58-3-3.12-9.08-2.82-9.92.51-1.42 2.25-4 5.11-1.94s11.41 15.65 15.37 20.95 16 24.28 18.92 27.85c4 5 6.59 10.68 9.28 16.34 2.12 4.46 4 9 6.09 13.52 2.74 6 6.1 11.72 6.52 18.51a3.55 3.55 0 0 0 .78 1.77c2.8 3.63 9.29 4 12.39.77a16.39 16.39 0 0 0 4.68-9.62c.51-4.56 1.54-9.08 1.87-13.66s.07-9.27.07-13.9c0-11.25-.13-22.5.07-33.75.09-4.84-1.64-23.54-1.85-26.16 0-.54.49-1.58.84-1.62.91-.1 2.22-.09 2.74.46a18.88 18.88 0 0 1 4.06 5.45 94.73 94.73 0 0 1 6 21.86q2.33 16.11 4.63 32.21c2.26 15.84 1.49 31.64 1.62 47.47 0 3.3-.06 6.61-.07 9.91 0 4.4-.79 8.6-3.86 11.94a8.82 8.82 0 0 0 -2.37 6.29c0 2.48.58 4.63 2.76 6a6.3 6.3 0 0 0 7.44-.1c2.41-1.72 5-3.35 6.93-5.56s18.88-14.18 27.19-20c14.55-10.23 33.88-23.28 35.84-24.46 1.3-.78 3.63 1.14 3.23 2.63a20.38 20.38 0 0 1 -2 5.5c-3.72 5.83-8.77 10.53-13.7 15.31-1.89 1.83-3.9 3.54-5.66 5.48-3.78 4.15-7.29 8.55-11.16 12.6-4.76 5-9.38 10.09-13.66 15.53-3.88 4.92-8.27 9.44-12.25 14.29-2.3 2.79-4.77 5.63-6.23 8.87-4.06 9-7.47 18.3-6.84 28.59.4 6.57.11 13.16 1.87 19.65.76 2.81.59 5.92.54 8.89-.13 6.67 1.9 13 2.73 19.5 2 15.79 8.26 30.46 11.51 45.92s7.44 30.69 11.36 46c1.39 5.42 3.06 10.78 4.86 16.07 3 8.74 6.17 17.4 9.26 26.1 3.43 9.62 6.71 19.3 10.33 28.85a90.43 90.43 0 0 0 5.69 11.56c3.84 6.92 17.65 17.22 42.34 11.45s52.4-16.86 57.92-18.93c4.61-1.73 33.33-13.79 49-17.19 6.36-1.38 9 1.56 9.5 2.68 1.77 4.13 5.2 5.78 9.29 4.75 2.63-.66 54-43 67.12-53.55 8-6.43 53.21-42.39 65.25-51.62 11.8-9 24.08-17.46 36.2-26.08q26.65-19 53.4-37.79c4.59-3.24 9.07-6.7 13.94-9.46 10.68-6.06 20.38-13.49 30.31-20.62a171.71 171.71 0 0 1 17.52-11.21c7-3.83 13.58-8.16 20.31-12.37 12.32-7.7 24.9-15 37.35-22.51 6.79-4.09 13.66-8.08 20.29-12.42 11.38-7.44 23.58-13.31 35.88-19 5-2.32 10.48-3.81 15.78-5.56 2.33-.78 6 2.14 6.27 4.81.17 2 .1 4 .41 5.92.45 2.8 4.15 4.33 7 3.27a10.76 10.76 0 0 0 7.36-8.51c1.62-8 3.64-16 5.33-24 2.5-11.93 5.63-23.64 10.46-34.9a204.62 204.62 0 0 1 17.81-32c6.19-9.37 12.17-18.9 18.66-28.06 5-7 10.7-13.43 15.86-20.29 12.19-16.23 27-29.91 42.06-43.33 2.46-2.19 5.13-4.17 7.46-6.49a106.82 106.82 0 0 1 19.58-15.14c3.66-2.25 7.2-4.71 11-6.78a54.73 54.73 0 0 1 10.79-4.89c6.28-1.82 11.47-.65 15.21 7.4a20.86 20.86 0 0 1 2.3 10.57c-.45 5.23-.25 10.47-1.37 15.73-2 9.64-3.18 19.47-4.91 29.18-1.39 7.77-3.11 15.47-4.67 23.21-.39 1.93-.7 3.87-1.09 5.81-.89 4.51-1.41 9.15-2.8 13.52-2.3 7.23-4.38 14.47-6 21.89-1.71 7.74-20.52 59-22.78 66.25a6.76 6.76 0 0 0 1.6 7.32c2.85 2.85 5.28 3.16 8.82 1.12a12.35 12.35 0 0 0 5.43-6.81c1.59-4.32 3.19-8.65 5-12.89 2.48-5.77 5.62-7.44 11.8-5.85 7.31 1.88 14.77 3.55 21.69 6.46a166.73 166.73 0 0 1 21.77 11.64 196.52 196.52 0 0 1 35.36 27c5.75 5.63 12.33 7.3 20 5.78 2.25-.44 17.65-7.68 20.28-9q14.15-7.17 28.46-14c6-2.84 12-5.46 18.1-8a185.48 185.48 0 0 1 32-10c12.51-2.81 25-6 37.68-7.62 9.42-1.2 18.88-3.27 28.53-2.37 2 .19 3.86.16 5.64 1.4 2.69 1.92 3.34 3.26 2.22 6.5zm-193 502.14c-2.41-5.1-6.17-11.55-20.22-14s-16.38-.93-22.22 3.6-8.77 14.63-7.93 21.62a25.94 25.94 0 0 1 .2 3.94 6.46 6.46 0 0 1 -.64 1.82c-.54-.23-1.29-.32-1.57-.73-2.17-3.26-4.88-6.1-6.17-10-1.65-5-4-9.74-6-14.62-4.58-11.2-5.76-23-5-34.89a54.87 54.87 0 0 1 4.69-18 108.1 108.1 0 0 1 15.4-26.47c8.75-10.72 20.38-16.45 34.3-17.28 2-.11 4 0 5.95 0 1.32 0 2.65.07 4 0 7.83-.54 14.09 2.64 19.46 8.07 2.79 2.82 5.79 5.42 8.51 8.3 4.79 5.09 13 17.59 14.94 39.64s.92 26.64-4.3 39.38c-4.7 11.48-13.45 19.31-23.35 26.08-1.85 1.26-4.18 1.83-6.26 2.76-1.22.55-1.8-.07-1.93-1.12a6.27 6.27 0 0 1 .16-3c2.19-5.53.18-10.53-2-15.15z" fill="#0e5256"></path><path d="m1899.69 930.24a43.5 43.5 0 0 0 -24.61-15.56c-8.44-1.94-17-2.14-25.55-2.23-12.28-.13-23.37 3.62-33.59 10.13-3.62 2.3-6.93 5.06-10.45 7.53-14.88 10.44-24.47 25-30.7 41.61a129.71 129.71 0 0 0 -7.79 47.45 84 84 0 0 0 11.55 41.36c7.14 12.49 16.74 22.93 27.07 32.71 7.68 7.28 17.42 11 27.64 12.16 16.82 1.95 33-1.23 47.49-10.2 10.36-6.42 20.13-13.81 30-21 2.28-1.69 3.92-4.43 5.45-6.93a61.38 61.38 0 0 0 6.94-17.3c2.85-11.21 5.63-22.37 5-33.23.46-12.8-1.91-24.4-4.45-36a119.73 119.73 0 0 0 -24-50.5zm13.86 90.62c-1.37 7.76-2 15.7-4.64 23.18-3.9 11.17-10.12 20.68-20.62 26.88-5.06 3-4.94 3.07-6.45-2.93-1.27-5.1-2.46-10.24-4.17-15.19-2.44-7-11.08-11.7-18.31-10.29-1.6.32-3.19 1.07-4.77 1-6.06-.09-10.68 3.26-15.29 6.37a15 15 0 0 0 -5.2 7.06c-2.75 6.74-5 13.59-5.43 20.88-.19 2.9-2.17 3.9-4.3 4.81a3.45 3.45 0 0 1 -2.76.1c-6.64-4.83-13.68-9-18.87-15.77a100.48 100.48 0 0 1 -19.32-42.92 80.27 80.27 0 0 1 .36-29.6c.83-4.52 1.89-9 3-13.46 1.78-7.18 5.58-13.32 9.79-19.32 8.61-12.27 20.58-20.32 33.6-27a34.12 34.12 0 0 1 18.13-4.18c2 .14 4 0 6 0 6.27 0 12.51-.13 18.59 2.06a38.21 38.21 0 0 1 16.91 11.61c5.3 6.4 9.32 13.59 13.37 20.79 4.13 7.36 4.83 15.66 6.81 23.62 1.91 7.69 1.64 15.68 3.53 23.38a22.39 22.39 0 0 1 0 9z" fill="#0e5256"></path><path d="m1952.58 437.28a17.19 17.19 0 0 0 -3.28 2.12 138.46 138.46 0 0 0 -9.68 10 447.88 447.88 0 0 0 -32.16 42.69 532.46 532.46 0 0 0 -30.57 52.1c-3.11 6.16-6.18 12.34-9.32 18.49a36.77 36.77 0 0 0 -3 9.32c-.49 2.39.92 4.58 2.7 6.07s3.68.39 5.52-.44c2.5-1.13 4.52-2.57 5.64-5.23 1-2.43 2.47-4.67 3.6-7.06 2.8-6 5.27-12.12 8.35-18 5.87-11.09 12-22 18.18-33a138.33 138.33 0 0 1 7.51-11.65c6.09-8.62 12.22-17.2 17.59-26.3 1.31-2.22 3.36-4 5.11-5.94a1 1 0 0 1 .91-.16c.38.31 1 .85.88 1.17-.44 1.92-.65 4.06-1.66 5.67-3.41 5.42-5 11.51-6.7 17.51-3.13 10.81-7.91 21-11.92 31.42-2.72 7.08-5.43 14.16-8.39 21.14-4.78 11.23-9.89 22.32-14.59 33.58-1.37 3.28-5.86 13.45 4.1 13.47s36-73.33 42.69-92.67c1.07-3.11 2.13-6.25 3.47-9.25 6.79-15.09 10.81-31 14.61-47.05.84-3.53-.24-6.67-3.06-8.49-2.22-1.37-4.44-.79-6.53.49z" fill="#0e5256"></path><path d="m1937 745.18c-3.7-2.33-7.7-1.32-13.58-1.8-3.6.57-9.17 1.17-14.59 2.4-8.33 1.88-16.69 3.79-24.8 6.43-8.45 2.74-16.66 6.24-24.88 9.61s-15.57 8.59-22.38 14.39a18.58 18.58 0 0 0 -5.39 8.19 3.91 3.91 0 0 0 .61 3.7c2.2 3.26 5 4.4 8.49 3.15a25.18 25.18 0 0 0 5.32-2.59c16.75-10.9 35.59-17.08 54.12-23.92a25.13 25.13 0 0 1 3.81-1c6.77-1.35 13.54-2.63 20.3-4a83.24 83.24 0 0 0 9.61-2.13 13.23 13.23 0 0 0 4.86-3.21c2.73-2.73 1.76-7.14-1.5-9.22z" fill="#0e5256"></path><path d="m1832.64 843.31a34.06 34.06 0 0 0 5.31-1.76c3.85-1.87 7.62-3.94 11.31-6.11 8.84-5.2 17.86-10 27.91-12.45 4.46-1.11 8.88-2.42 13.31-3.67 6.65-1.86 13.26-3.86 20-5.59 3.63-.93 5.64-3.36 6.72-6.61a4.4 4.4 0 0 0 -.75-3.55 9.29 9.29 0 0 0 -8.74-3.69c-5.18.73-10.3 1.94-15.41 3.09-6.74 1.51-13.53 2.89-20.16 4.8-13.67 3.93-26.84 9.08-38.78 17.05-3.08 2.06-6 4.27-8 7.32a7.62 7.62 0 0 0 -.06 8.45c1.36 2.18 3.62 2.7 7.34 2.72z" fill="#0e5256"></path><path d="m2115.42 862.29c-5.3-10.32-12.26-19.52-19.59-28.41a168.26 168.26 0 0 0 -31.32-29.88 13.57 13.57 0 0 0 -9.18-2.86 4.54 4.54 0 0 0 -4.26 6.21 12.35 12.35 0 0 0 1.65 3.55 55.66 55.66 0 0 0 5.05 6c9 9.15 18.11 18.29 27.29 27.31a86.93 86.93 0 0 1 14.16 17.69c2.17 3.68 4.86 7 7.13 10.68a11 11 0 0 0 6.24 4.51c2.39.79 5.74-1.19 6-3.69a11.6 11.6 0 0 0 -.23-4.87 43.83 43.83 0 0 0 -2.94-6.24z" fill="#0e5256"></path><path d="m2068.1 777.13a150.52 150.52 0 0 1 38.3 43.36 23.32 23.32 0 0 0 2.83 4 4.72 4.72 0 0 0 5.51.57 6.05 6.05 0 0 0 2-3.14 5.35 5.35 0 0 0 .08-2.42 24.69 24.69 0 0 0 -6.17-18.69c-7.37-8.84-14.76-17.69-22.62-26.09-4.45-4.77-9.52-9.11-15.89-11.42-.93-.34-1.78-.89-2.72-1.16-2.42-.71-6.6 1-7.83 3.08-1.06 1.82-.46 5.31 1.44 7.28a50.51 50.51 0 0 0 5.07 4.63z" fill="#0e5256"></path></svg> 